Arima Greek-Light.ufo
<glyph name="exclam" format="1">
  <advance width="268"/>
  <unicode hex="0021"/>
  <outline>
    <contour>
      <point x="115" y="718" type="curve"/>
      <point x="119" y="163" type="line"/>
      <point x="149" y="163" type="line"/>
      <point x="153" y="718" type="line"/>
      <point x="141" y="721"/>
      <point x="127" y="721"/>
    </contour>
    <component base="period" xOffset="20"/>
  </outline>
</glyph>
<glyph name="numbersign" format="1">
  <advance width="680"/>
  <unicode hex="0023"/>
  <outline>
    <contour>
      <point x="484" y="688" type="line"/>
      <point x="358" y="0" type="line"/>
      <point x="388" y="0" type="line"/>
      <point x="514" y="688" type="line"/>
    </contour>
    <contour>
      <point x="33" y="258" type="line"/>
      <point x="29" y="232" type="line"/>
      <point x="612" y="232" type="line"/>
      <point x="616" y="258" type="line"/>
    </contour>
    <contour>
      <point x="284" y="688" type="line"/>
      <point x="158" y="0" type="line"/>
      <point x="188" y="0" type="line"/>
      <point x="314" y="688" type="line"/>
    </contour>
    <contour>
      <point x="65" y="458" type="line"/>
      <point x="61" y="432" type="line"/>
      <point x="644" y="432" type="line"/>
      <point x="648" y="458" type="line"/>
    </contour>
  </outline>
</glyph>
<glyph name="percent" format="1">
  <advance width="956"/>
  <unicode hex="0025"/>
  <outline>
    <contour>
      <point x="261" y="-12" type="curve"/>
      <point x="715" y="686" type="line"/>
      <point x="715" y="697"/>
      <point x="705" y="702"/>
      <point x="695" y="700" type="curve"/>
      <point x="241" y="2" type="line"/>
      <point x="244" y="-8"/>
      <point x="250" y="-12"/>
    </contour>
    <contour>
      <point x="201" y="315" type="curve"/>
      <point x="298" y="315"/>
      <point x="352" y="376"/>
      <point x="352" y="508" type="curve"/>
      <point x="352" y="639"/>
      <point x="298" y="700"/>
      <point x="201" y="700" type="curve"/>
      <point x="104" y="700"/>
      <point x="49" y="639"/>
      <point x="49" y="508" type="curve"/>
      <point x="49" y="376"/>
      <point x="104" y="315"/>
    </contour>
    <contour>
      <point x="201" y="336" type="curve"/>
      <point x="122" y="336"/>
      <point x="76" y="390"/>
      <point x="76" y="508" type="curve"/>
      <point x="76" y="626"/>
      <point x="122" y="679"/>
      <point x="201" y="679" type="curve"/>
      <point x="279" y="679"/>
      <point x="326" y="626"/>
      <point x="326" y="508" type="curve"/>
      <point x="326" y="390"/>
      <point x="279" y="336"/>
    </contour>
    <contour>
      <point x="756" y="-8" type="curve"/>
      <point x="853" y="-8"/>
      <point x="907" y="53"/>
      <point x="907" y="185" type="curve"/>
      <point x="907" y="316"/>
      <point x="853" y="377"/>
      <point x="756" y="377" type="curve"/>
      <point x="659" y="377"/>
      <point x="604" y="316"/>
      <point x="604" y="185" type="curve"/>
      <point x="604" y="53"/>
      <point x="659" y="-8"/>
    </contour>
    <contour>
      <point x="756" y="13" type="curve"/>
      <point x="677" y="13"/>
      <point x="631" y="67"/>
      <point x="631" y="185" type="curve"/>
      <point x="631" y="303"/>
      <point x="677" y="356"/>
      <point x="756" y="356" type="curve"/>
      <point x="834" y="356"/>
      <point x="881" y="303"/>
      <point x="881" y="185" type="curve"/>
      <point x="881" y="67"/>
      <point x="834" y="13"/>
    </contour>
  </outline>
</glyph>
<glyph name="ampersand" format="1">
  <advance width="792"/>
  <unicode hex="0026"/>
  <outline>
    <contour>
      <point x="358" y="-15" type="curve"/>
      <point x="531" y="-15"/>
      <point x="674" y="119"/>
      <point x="674" y="312" type="curve"/>
      <point x="674" y="478"/>
      <point x="556" y="688"/>
      <point x="410" y="688" type="curve"/>
      <point x="386" y="688"/>
      <point x="375" y="682"/>
      <point x="375" y="661" type="curve"/>
      <point x="532" y="669"/>
      <point x="642" y="475"/>
      <point x="642" y="312" type="curve"/>
      <point x="642" y="122"/>
      <point x="508" y="13"/>
      <point x="360" y="13" type="curve"/>
      <point x="193" y="13"/>
      <point x="101" y="153"/>
      <point x="101" y="290" type="curve"/>
      <point x="101" y="416"/>
      <point x="178" y="484"/>
      <point x="263" y="484" type="curve"/>
      <point x="344" y="484"/>
      <point x="379" y="426"/>
      <point x="379" y="362" type="curve"/>
      <point x="379" y="277"/>
      <point x="315" y="236"/>
      <point x="223" y="184" type="curve"/>
      <point x="228" y="164" type="line"/>
      <point x="373" y="207"/>
      <point x="617" y="360"/>
      <point x="747" y="561" type="curve"/>
      <point x="756" y="575"/>
      <point x="745" y="587"/>
      <point x="725" y="587" type="curve"/>
      <point x="617" y="403"/>
      <point x="371" y="224"/>
      <point x="229" y="183" type="curve"/>
      <point x="233" y="173" type="line"/>
      <point x="330" y="227"/>
      <point x="407" y="270"/>
      <point x="407" y="367" type="curve"/>
      <point x="407" y="437"/>
      <point x="364" y="512"/>
      <point x="267" y="512" type="curve"/>
      <point x="164" y="512"/>
      <point x="69" y="430"/>
      <point x="69" y="286" type="curve"/>
      <point x="69" y="136"/>
      <point x="173" y="-15"/>
    </contour>
  </outline>
</glyph>
<glyph name="quotesingle" format="1">
  <advance width="114"/>
  <unicode hex="0027"/>
  <outline>
    <contour>
      <point x="40" y="727" type="curve"/>
      <point x="46" y="610" type="line"/>
      <point x="68" y="610" type="line"/>
      <point x="74" y="727" type="line"/>
      <point x="63" y="730"/>
      <point x="51" y="730"/>
    </contour>
  </outline>
</glyph>
<glyph name="plus" format="1">
  <advance width="557"/>
  <unicode hex="002B"/>
  <outline>
    <contour>
      <point x="263" y="549" type="curve"/>
      <point x="264" y="158" type="line"/>
      <point x="273" y="154"/>
      <point x="284" y="154"/>
      <point x="293" y="157" type="curve"/>
      <point x="293" y="549" type="line"/>
      <point x="283" y="553"/>
      <point x="273" y="553"/>
    </contour>
    <contour>
      <point x="83" y="338" type="curve"/>
      <point x="474" y="338" type="line"/>
      <point x="478" y="348"/>
      <point x="478" y="358"/>
      <point x="474" y="368" type="curve"/>
      <point x="83" y="368" type="line"/>
      <point x="79" y="358"/>
      <point x="79" y="348"/>
    </contour>
  </outline>
</glyph>
<glyph name="comma" format="1">
  <advance width="236"/>
  <unicode hex="002C"/>
  <outline>
    <contour>
      <point x="99" y="-90" type="curve"/>
      <point x="146" y="-52"/>
      <point x="156" y="-16"/>
      <point x="156" y="9" type="curve"/>
      <point x="156" y="49"/>
      <point x="132" y="56"/>
      <point x="117" y="56" type="curve"/>
      <point x="90" y="56"/>
      <point x="80" y="32"/>
      <point x="80" y="22" type="curve"/>
      <point x="95" y="16"/>
      <point x="107" y="6"/>
      <point x="107" y="-19" type="curve"/>
      <point x="107" y="-40"/>
      <point x="99" y="-57"/>
      <point x="81" y="-76" type="curve"/>
      <point x="84" y="-81"/>
      <point x="89" y="-87"/>
    </contour>
  </outline>
</glyph>
<glyph name="hyphen" format="1">
  <advance width="399"/>
  <unicode hex="002D"/>
  <outline>
    <contour>
      <point x="60" y="270" type="line"/>
      <point x="60" y="242" type="line"/>
      <point x="339" y="242" type="line"/>
      <point x="339" y="270" type="line"/>
    </contour>
  </outline>
</glyph>
<glyph name="zero" format="1">
  <advance width="608"/>
  <unicode hex="0030"/>
  <outline>
    <contour>
      <point x="304" y="-12" type="curve"/>
      <point x="449" y="-12"/>
      <point x="533" y="100"/>
      <point x="533" y="344" type="curve"/>
      <point x="533" y="588"/>
      <point x="449" y="700"/>
      <point x="304" y="700" type="curve"/>
      <point x="159" y="700"/>
      <point x="75" y="588"/>
      <point x="75" y="344" type="curve"/>
      <point x="75" y="100"/>
      <point x="159" y="-12"/>
    </contour>
    <contour>
      <point x="304" y="16" type="curve"/>
      <point x="180" y="16"/>
      <point x="107" y="118"/>
      <point x="107" y="344" type="curve"/>
      <point x="107" y="570"/>
      <point x="180" y="672"/>
      <point x="304" y="672" type="curve"/>
      <point x="428" y="672"/>
      <point x="501" y="570"/>
      <point x="501" y="344" type="curve"/>
      <point x="501" y="118"/>
      <point x="428" y="16"/>
    </contour>
  </outline>
</glyph>
<glyph name="one" format="1">
  <advance width="397"/>
  <unicode hex="0031"/>
  <outline>
    <contour>
      <point x="241" y="-8" type="curve"/>
      <point x="250" y="-8"/>
      <point x="255" y="-4"/>
      <point x="259" y="0" type="curve"/>
      <point x="255" y="16"/>
      <point x="253" y="47"/>
      <point x="253" y="87" type="curve"/>
      <point x="251" y="671" type="line"/>
      <point x="251" y="685"/>
      <point x="245" y="693"/>
      <point x="234" y="693" type="curve"/>
      <point x="228" y="693"/>
      <point x="224" y="691"/>
      <point x="220" y="689" type="curve"/>
      <point x="170" y="648"/>
      <point x="52" y="566"/>
      <point x="41" y="563" type="curve"/>
      <point x="41" y="555"/>
      <point x="36" y="541"/>
      <point x="57" y="541" type="curve"/>
      <point x="73" y="541"/>
      <point x="168" y="611"/>
      <point x="220" y="656" type="curve"/>
      <point x="221" y="640"/>
      <point x="222" y="620"/>
      <point x="222" y="598" type="curve"/>
      <point x="224" y="14" type="line" smooth="yes"/>
      <point x="224" y="0"/>
      <point x="230" y="-8"/>
    </contour>
  </outline>
</glyph>
<glyph name="three" format="1">
  <advance width="541"/>
  <unicode hex="0033"/>
  <outline>
    <contour>
      <point x="251" y="-12" type="curve"/>
      <point x="383" y="-12"/>
      <point x="476" y="52"/>
      <point x="476" y="179" type="curve"/>
      <point x="476" y="296"/>
      <point x="399" y="347"/>
      <point x="290" y="369" type="curve"/>
      <point x="393" y="391"/>
      <point x="454" y="446"/>
      <point x="454" y="541" type="curve"/>
      <point x="454" y="660"/>
      <point x="359" y="700"/>
      <point x="263" y="700" type="curve"/>
      <point x="123" y="700"/>
      <point x="70" y="611"/>
      <point x="70" y="573" type="curve"/>
      <point x="70" y="556"/>
      <point x="81" y="550"/>
      <point x="93" y="550" type="curve"/>
      <point x="98" y="588"/>
      <point x="135" y="672"/>
      <point x="259" y="672" type="curve"/>
      <point x="366" y="672"/>
      <point x="420" y="611"/>
      <point x="420" y="539" type="curve"/>
      <point x="420" y="444"/>
      <point x="330" y="383"/>
      <point x="191" y="381" type="curve"/>
      <point x="191" y="354" type="line"/>
      <point x="323" y="350"/>
      <point x="443" y="308"/>
      <point x="443" y="177" type="curve"/>
      <point x="443" y="80"/>
      <point x="378" y="16"/>
      <point x="250" y="16" type="curve"/>
      <point x="107" y="16"/>
      <point x="77" y="96"/>
      <point x="69" y="138" type="curve"/>
      <point x="56" y="138"/>
      <point x="46" y="131"/>
      <point x="46" y="116" type="curve"/>
      <point x="46" y="86"/>
      <point x="87" y="-12"/>
    </contour>
  </outline>
</glyph>
<glyph name="five" format="1">
  <advance width="551"/>
  <unicode hex="0035"/>
  <outline>
    <contour>
      <point x="259" y="-12" type="curve"/>
      <point x="382" y="-12"/>
      <point x="486" y="47"/>
      <point x="486" y="223" type="curve"/>
      <point x="486" y="349"/>
      <point x="405" y="429"/>
      <point x="280" y="429" type="curve"/>
      <point x="214" y="429"/>
      <point x="172" y="412"/>
      <point x="130" y="393" type="curve"/>
      <point x="142" y="662" type="line"/>
      <point x="241" y="662"/>
      <point x="340" y="662"/>
      <point x="439" y="662" type="curve"/>
      <point x="442" y="673"/>
      <point x="444" y="681"/>
      <point x="441" y="690" type="curve"/>
      <point x="340" y="687"/>
      <point x="235" y="688"/>
      <point x="131" y="688" type="curve"/>
      <point x="121" y="688"/>
      <point x="113" y="682"/>
      <point x="113" y="671" type="curve"/>
      <point x="100" y="378" type="line"/>
      <point x="100" y="369"/>
      <point x="102" y="358"/>
      <point x="118" y="358" type="curve"/>
      <point x="132" y="366"/>
      <point x="204" y="403"/>
      <point x="277" y="403" type="curve"/>
      <point x="379" y="403"/>
      <point x="454" y="343"/>
      <point x="454" y="219" type="curve"/>
      <point x="454" y="91"/>
      <point x="396" y="14"/>
      <point x="259" y="14" type="curve"/>
      <point x="141" y="14"/>
      <point x="102" y="102"/>
      <point x="99" y="140" type="curve"/>
      <point x="85" y="140"/>
      <point x="74" y="130"/>
      <point x="74" y="118" type="curve"/>
      <point x="74" y="60"/>
      <point x="145" y="-12"/>
    </contour>
  </outline>
</glyph>
<glyph name="six" format="1">
  <advance width="568"/>
  <unicode hex="0036"/>
  <outline>
    <contour>
      <point x="301" y="-12" type="curve"/>
      <point x="424" y="-12"/>
      <point x="506" y="79"/>
      <point x="506" y="222" type="curve"/>
      <point x="506" y="358"/>
      <point x="424" y="426"/>
      <point x="311" y="426" type="curve"/>
      <point x="194" y="426"/>
      <point x="111" y="340"/>
      <point x="89" y="276" type="curve"/>
      <point x="98" y="248" type="line"/>
      <point x="131" y="325"/>
      <point x="209" y="400"/>
      <point x="311" y="400" type="curve"/>
      <point x="410" y="400"/>
      <point x="474" y="331"/>
      <point x="474" y="221" type="curve"/>
      <point x="474" y="120"/>
      <point x="423" y="14"/>
      <point x="301" y="14" type="curve"/>
      <point x="164" y="14"/>
      <point x="105" y="134"/>
      <point x="105" y="297" type="curve"/>
      <point x="105" y="444"/>
      <point x="125" y="674"/>
      <point x="326" y="674" type="curve"/>
      <point x="362" y="674"/>
      <point x="401" y="666"/>
      <point x="443" y="626" type="curve"/>
      <point x="451" y="625"/>
      <point x="458" y="631"/>
      <point x="458" y="640" type="curve"/>
      <point x="458" y="667"/>
      <point x="384" y="700"/>
      <point x="323" y="700" type="curve"/>
      <point x="163" y="700"/>
      <point x="75" y="589"/>
      <point x="75" y="298" type="curve"/>
      <point x="75" y="54"/>
      <point x="193" y="-12"/>
    </contour>
  </outline>
</glyph>
<glyph name="seven" format="1">
  <advance width="499"/>
  <unicode hex="0037"/>
  <outline>
    <contour>
      <point x="223" y="0" type="curve"/>
      <point x="223" y="161"/>
      <point x="316" y="495"/>
      <point x="451" y="659" type="curve"/>
      <point x="458" y="668"/>
      <point x="455" y="688"/>
      <point x="441" y="688" type="curve"/>
      <point x="237" y="688" type="line" smooth="yes"/>
      <point x="173" y="688"/>
      <point x="110" y="688"/>
      <point x="46" y="688" type="curve"/>
      <point x="38" y="684"/>
      <point x="38" y="666"/>
      <point x="46" y="662" type="curve"/>
      <point x="169" y="662"/>
      <point x="293" y="662"/>
      <point x="416" y="662" type="curve"/>
      <point x="299" y="528"/>
      <point x="194" y="175"/>
      <point x="194" y="0" type="curve"/>
      <point x="204" y="-5"/>
      <point x="213" y="-5"/>
    </contour>
  </outline>
</glyph>
<glyph name="equal" format="1">
  <advance width="557"/>
  <unicode hex="003D"/>
  <outline>
    <contour>
      <point x="83" y="442" type="curve"/>
      <point x="474" y="442" type="line"/>
      <point x="478" y="452"/>
      <point x="478" y="462"/>
      <point x="474" y="472" type="curve"/>
      <point x="83" y="472" type="line"/>
      <point x="79" y="462"/>
      <point x="79" y="452"/>
    </contour>
    <contour>
      <point x="83" y="232" type="curve"/>
      <point x="474" y="232" type="line"/>
      <point x="478" y="242"/>
      <point x="478" y="252"/>
      <point x="474" y="262" type="curve"/>
      <point x="83" y="262" type="line"/>
      <point x="79" y="252"/>
      <point x="79" y="242"/>
    </contour>
  </outline>
</glyph>
<glyph name="greater" format="1">
  <advance width="478"/>
  <unicode hex="003E"/>
  <outline>
    <contour>
      <point x="71" y="168" type="curve"/>
      <point x="437" y="340" type="line"/>
      <point x="442" y="347"/>
      <point x="442" y="355"/>
      <point x="437" y="362" type="curve"/>
      <point x="71" y="534" type="line" smooth="yes"/>
      <point x="62" y="538"/>
      <point x="53" y="523"/>
      <point x="58" y="505" type="curve"/>
      <point x="400" y="351" type="line"/>
      <point x="58" y="197" type="line"/>
      <point x="54" y="180"/>
      <point x="62" y="164"/>
    </contour>
  </outline>
</glyph>
<glyph name="A" format="1">
  <advance width="562"/>
  <unicode hex="0041"/>
  <outline>
    <contour>
      <point x="45" y="-8" type="curve"/>
      <point x="51" y="-8"/>
      <point x="55" y="-8"/>
      <point x="61" y="-6" type="curve"/>
      <point x="59" y="-2"/>
      <point x="59" y="4"/>
      <point x="59" y="8" type="curve"/>
      <point x="59" y="14"/>
      <point x="62" y="24"/>
      <point x="64" y="29" type="curve"/>
      <point x="287" y="686" type="line"/>
      <point x="275" y="686" type="line"/>
      <point x="508" y="6" type="line" smooth="yes"/>
      <point x="511" y="-3"/>
      <point x="520" y="-8"/>
      <point x="530" y="-8" type="curve"/>
      <point x="536" y="-8"/>
      <point x="541" y="-6"/>
      <point x="547" y="1" type="curve"/>
      <point x="542" y="7"/>
      <point x="536" y="18"/>
      <point x="531" y="31" type="curve"/>
      <point x="307" y="683" type="line" smooth="yes"/>
      <point x="303" y="694"/>
      <point x="294" y="700"/>
      <point x="282" y="700" type="curve"/>
      <point x="275" y="700"/>
      <point x="268" y="698"/>
      <point x="260" y="692" type="curve"/>
      <point x="33" y="34" type="line"/>
      <point x="31" y="27"/>
      <point x="27" y="17"/>
      <point x="27" y="10" type="curve"/>
      <point x="26" y="-1"/>
      <point x="34" y="-8"/>
    </contour>
    <contour>
      <point x="130" y="260" type="line"/>
      <point x="130" y="234" type="line"/>
      <point x="435" y="234" type="line"/>
      <point x="435" y="260" type="line"/>
    </contour>
    <contour>
      <point x="287" y="0" type="move" name="bottom"/>
    </contour>
    <contour>
      <point x="521" y="-4" type="move" name="ogonek"/>
    </contour>
    <contour>
      <point x="280" y="688" type="move" name="top"/>
    </contour>
  </outline>
</glyph>
<glyph name="D" format="1">
  <advance width="629"/>
  <unicode hex="0044"/>
  <outline>
    <contour>
      <point x="126" y="0" type="curve"/>
      <point x="295" y="0" type="line" smooth="yes"/>
      <point x="463" y="0"/>
      <point x="559" y="100"/>
      <point x="559" y="344" type="curve"/>
      <point x="559" y="588"/>
      <point x="463" y="700"/>
      <point x="295" y="700" type="curve"/>
      <point x="247" y="700"/>
      <point x="153" y="698"/>
      <point x="101" y="695" type="curve"/>
      <point x="105" y="679"/>
      <point x="107" y="640"/>
      <point x="107" y="600" type="curve"/>
      <point x="109" y="22" type="line" smooth="yes"/>
      <point x="109" y="8"/>
      <point x="115" y="0"/>
    </contour>
    <contour>
      <point x="295" y="28" type="curve"/>
      <point x="138" y="28" type="line"/>
      <point x="136" y="672" type="line"/>
      <point x="295" y="672" type="line" smooth="yes"/>
      <point x="440" y="672"/>
      <point x="527" y="570"/>
      <point x="527" y="344" type="curve"/>
      <point x="527" y="118"/>
      <point x="440" y="28"/>
    </contour>
    <contour>
      <point x="285" y="0" type="move" name="bottom"/>
    </contour>
    <contour>
      <point x="310" y="344" type="move" name="center"/>
    </contour>
    <contour>
      <point x="303" y="688" type="move" name="top"/>
    </contour>
  </outline>
</glyph>
<glyph name="F" format="1">
  <advance width="505"/>
  <unicode hex="0046"/>
  <outline>
    <contour>
      <point x="126" y="-8" type="curve"/>
      <point x="135" y="-8"/>
      <point x="140" y="-4"/>
      <point x="144" y="0" type="curve"/>
      <point x="140" y="16"/>
      <point x="138" y="47"/>
      <point x="138" y="87" type="curve"/>
      <point x="136" y="662" type="line"/>
      <point x="234" y="662"/>
      <point x="332" y="662"/>
      <point x="430" y="662" type="curve"/>
      <point x="441" y="665"/>
      <point x="447" y="688"/>
      <point x="433" y="688" type="curve"/>
      <point x="119" y="688" type="line" smooth="yes"/>
      <point x="110" y="688"/>
      <point x="105" y="685"/>
      <point x="101" y="680" type="curve"/>
      <point x="105" y="664"/>
      <point x="107" y="640"/>
      <point x="107" y="600" type="curve"/>
      <point x="109" y="14" type="line" smooth="yes"/>
      <point x="109" y="0"/>
      <point x="115" y="-8"/>
    </contour>
    <contour>
      <point x="131" y="372" type="line"/>
      <point x="131" y="346" type="line"/>
      <point x="409" y="346" type="line"/>
      <point x="412" y="355"/>
      <point x="412" y="363"/>
      <point x="409" y="372" type="curve"/>
    </contour>
    <contour>
      <point x="253" y="0" type="move" name="bottom"/>
    </contour>
    <contour>
      <point x="253" y="688" type="move" name="top"/>
    </contour>
  </outline>
</glyph>
<glyph name="G" format="1">
  <advance width="599"/>
  <unicode hex="0047"/>
  <outline>
    <contour>
      <point x="327" y="-12" type="curve"/>
      <point x="517" y="-12"/>
      <point x="534" y="144"/>
      <point x="534" y="218" type="curve"/>
      <point x="534" y="345"/>
      <point x="484" y="380"/>
      <point x="443" y="380" type="curve"/>
      <point x="425" y="380"/>
      <point x="415" y="373"/>
      <point x="416" y="359" type="curve"/>
      <point x="467" y="359"/>
      <point x="503" y="321"/>
      <point x="503" y="220" type="curve"/>
      <point x="503" y="146"/>
      <point x="484" y="16"/>
      <point x="326" y="16" type="curve"/>
      <point x="180" y="16"/>
      <point x="102" y="128"/>
      <point x="102" y="344" type="curve"/>
      <point x="102" y="560"/>
      <point x="180" y="672"/>
      <point x="324" y="672" type="curve"/>
      <point x="398" y="672"/>
      <point x="459" y="643"/>
      <point x="470" y="603" type="curve"/>
      <point x="484" y="598"/>
      <point x="495" y="606"/>
      <point x="495" y="619" type="curve"/>
      <point x="495" y="653"/>
      <point x="423" y="700"/>
      <point x="322" y="700" type="curve"/>
      <point x="160" y="700"/>
      <point x="70" y="578"/>
      <point x="70" y="343" type="curve"/>
      <point x="70" y="110"/>
      <point x="159" y="-12"/>
    </contour>
    <contour>
      <point x="322" y="0" type="move" name="bottom"/>
    </contour>
    <contour>
      <point x="322" y="688" type="move" name="top"/>
    </contour>
  </outline>
</glyph>
<glyph name="K" format="1">
  <advance width="554"/>
  <unicode hex="004B"/>
  <outline>
    <contour>
      <point x="494" y="-8" type="curve"/>
      <point x="509" y="-8"/>
      <point x="536" y="1"/>
      <point x="536" y="22" type="curve"/>
      <point x="536" y="27"/>
      <point x="535" y="32"/>
      <point x="531" y="37" type="curve"/>
      <point x="522" y="22"/>
      <point x="505" y="20"/>
      <point x="498" y="20" type="curve"/>
      <point x="483" y="20"/>
      <point x="470" y="29"/>
      <point x="460" y="61" type="curve"/>
      <point x="410" y="223" type="line" smooth="yes"/>
      <point x="388" y="292"/>
      <point x="347" y="345"/>
      <point x="247" y="355" type="curve"/>
      <point x="241" y="344" type="line"/>
      <point x="394" y="387"/>
      <point x="452" y="516"/>
      <point x="452" y="621" type="curve"/>
      <point x="452" y="677"/>
      <point x="437" y="699"/>
      <point x="422" y="699" type="curve"/>
      <point x="415" y="699"/>
      <point x="408" y="694"/>
      <point x="402" y="687" type="curve"/>
      <point x="409" y="676"/>
      <point x="420" y="655"/>
      <point x="420" y="614" type="curve"/>
      <point x="420" y="503"/>
      <point x="332" y="361"/>
      <point x="171" y="361" type="curve"/>
      <point x="157" y="361"/>
      <point x="144" y="361"/>
      <point x="130" y="361" type="curve"/>
      <point x="131" y="335" type="line"/>
      <point x="171" y="335" type="line" smooth="yes"/>
      <point x="331" y="335"/>
      <point x="355" y="283"/>
      <point x="379" y="221" type="curve"/>
      <point x="434" y="45" type="line" smooth="yes"/>
      <point x="444" y="12"/>
      <point x="471" y="-8"/>
    </contour>
    <contour>
      <point x="126" y="-8" type="curve"/>
      <point x="135" y="-8"/>
      <point x="140" y="-4"/>
      <point x="144" y="0" type="curve"/>
      <point x="140" y="16"/>
      <point x="138" y="47"/>
      <point x="138" y="87" type="curve"/>
      <point x="136" y="673" type="line"/>
      <point x="136" y="687"/>
      <point x="130" y="695"/>
      <point x="119" y="695" type="curve"/>
      <point x="110" y="695"/>
      <point x="105" y="691"/>
      <point x="101" y="687" type="curve"/>
      <point x="105" y="671"/>
      <point x="107" y="640"/>
      <point x="107" y="600" type="curve"/>
      <point x="109" y="14" type="line" smooth="yes"/>
      <point x="109" y="0"/>
      <point x="115" y="-8"/>
    </contour>
    <contour>
      <point x="281" y="0" type="move" name="bottom"/>
    </contour>
    <contour>
      <point x="281" y="688" type="move" name="top"/>
    </contour>
  </outline>
</glyph>
<glyph name="M" format="1">
  <advance width="850"/>
  <unicode hex="004D"/>
  <outline>
    <contour>
      <point x="743" y="87" type="curve"/>
      <point x="741" y="673" type="line"/>
      <point x="741" y="687"/>
      <point x="735" y="695"/>
      <point x="724" y="695" type="curve"/>
      <point x="719" y="695"/>
      <point x="713" y="694"/>
      <point x="709" y="691" type="curve"/>
      <point x="615" y="515"/>
      <point x="520" y="332"/>
      <point x="426" y="156" type="curve"/>
      <point x="434" y="161" type="line"/>
      <point x="334" y="336"/>
      <point x="232" y="511"/>
      <point x="132" y="686" type="curve"/>
      <point x="129" y="692"/>
      <point x="124" y="695"/>
      <point x="117" y="695" type="curve"/>
      <point x="109" y="695"/>
      <point x="105" y="691"/>
      <point x="101" y="687" type="curve"/>
      <point x="105" y="671"/>
      <point x="107" y="640"/>
      <point x="107" y="600" type="curve"/>
      <point x="109" y="14" type="line" smooth="yes"/>
      <point x="109" y="0"/>
      <point x="114" y="-8"/>
      <point x="124" y="-8" type="curve"/>
      <point x="133" y="-8"/>
      <point x="138" y="-4"/>
      <point x="142" y="0" type="curve"/>
      <point x="138" y="16"/>
      <point x="136" y="47"/>
      <point x="136" y="87" type="curve"/>
      <point x="134" y="635" type="line"/>
      <point x="130" y="629" type="line"/>
      <point x="225" y="466"/>
      <point x="320" y="299"/>
      <point x="415" y="136" type="curve"/>
      <point x="425" y="129"/>
      <point x="436" y="129"/>
      <point x="446" y="136" type="curve"/>
      <point x="718" y="645" type="line"/>
      <point x="712" y="647" type="line"/>
      <point x="714" y="14" type="line" smooth="yes"/>
      <point x="714" y="0"/>
      <point x="720" y="-8"/>
      <point x="731" y="-8" type="curve"/>
      <point x="740" y="-8"/>
      <point x="745" y="-4"/>
      <point x="749" y="0" type="curve"/>
      <point x="745" y="16"/>
      <point x="743" y="47"/>
    </contour>
    <contour>
      <point x="425" y="0" type="move" name="bottom"/>
    </contour>
    <contour>
      <point x="425" y="688" type="move" name="top"/>
    </contour>
  </outline>
</glyph>
<glyph name="O" format="1">
  <advance width="638"/>
  <unicode hex="004F"/>
  <outline>
    <contour>
      <point x="319" y="-12" type="curve"/>
      <point x="476" y="-12"/>
      <point x="568" y="100"/>
      <point x="568" y="344" type="curve"/>
      <point x="568" y="588"/>
      <point x="476" y="700"/>
      <point x="319" y="700" type="curve"/>
      <point x="162" y="700"/>
      <point x="70" y="588"/>
      <point x="70" y="344" type="curve"/>
      <point x="70" y="100"/>
      <point x="162" y="-12"/>
    </contour>
    <contour>
      <point x="319" y="16" type="curve"/>
      <point x="183" y="16"/>
      <point x="102" y="118"/>
      <point x="102" y="344" type="curve"/>
      <point x="102" y="570"/>
      <point x="183" y="672"/>
      <point x="319" y="672" type="curve"/>
      <point x="455" y="672"/>
      <point x="536" y="570"/>
      <point x="536" y="344" type="curve"/>
      <point x="536" y="118"/>
      <point x="455" y="16"/>
    </contour>
    <contour>
      <point x="319" y="0" type="move" name="bottom"/>
    </contour>
    <contour>
      <point x="319" y="344" type="move" name="center"/>
    </contour>
    <contour>
      <point x="566" y="10" type="move" name="ogonek"/>
    </contour>
    <contour>
      <point x="319" y="688" type="move" name="top"/>
    </contour>
    <contour>
      <point x="30" y="688" type="move" name="topleft"/>
    </contour>
    <contour>
      <point x="513" y="623" type="move" name="topright"/>
    </contour>
  </outline>
</glyph>
<glyph name="P" format="1">
  <advance width="535"/>
  <unicode hex="0050"/>
  <outline>
    <contour>
      <point x="127" y="-8" type="curve"/>
      <point x="136" y="-8"/>
      <point x="141" y="-4"/>
      <point x="145" y="0" type="curve"/>
      <point x="140" y="17"/>
      <point x="138" y="78"/>
      <point x="138" y="87" type="curve"/>
      <point x="138" y="670" type="line"/>
      <point x="148" y="673"/>
      <point x="169" y="674"/>
      <point x="194" y="674" type="curve"/>
      <point x="367" y="674"/>
      <point x="442" y="624"/>
      <point x="442" y="498" type="curve"/>
      <point x="442" y="364"/>
      <point x="356" y="307"/>
      <point x="180" y="307" type="curve"/>
      <point x="141" y="307"/>
      <point x="129" y="307"/>
      <point x="116" y="309" type="curve"/>
      <point x="123" y="283" type="line"/>
      <point x="137" y="282"/>
      <point x="150" y="282"/>
      <point x="169" y="282" type="curve"/>
      <point x="376" y="282"/>
      <point x="474" y="348"/>
      <point x="474" y="499" type="curve"/>
      <point x="474" y="632"/>
      <point x="397" y="700"/>
      <point x="203" y="700" type="curve"/>
      <point x="125" y="700"/>
      <point x="104" y="689"/>
      <point x="101" y="687" type="curve"/>
      <point x="106" y="670"/>
      <point x="108" y="609"/>
      <point x="108" y="600" type="curve"/>
      <point x="108" y="14" type="line"/>
      <point x="109" y="0"/>
      <point x="115" y="-8"/>
    </contour>
    <contour>
      <point x="267" y="0" type="move" name="bottom"/>
    </contour>
    <contour>
      <point x="267" y="688" type="move" name="top"/>
    </contour>
  </outline>
</glyph>
<glyph name="Q" format="1">
  <advance width="638"/>
  <unicode hex="0051"/>
  <outline>
    <contour>
      <point x="484" y="-134" type="curve"/>
      <point x="557" y="-134"/>
      <point x="603" y="-102"/>
      <point x="603" y="-46" type="curve"/>
      <point x="603" y="-33"/>
      <point x="592" y="-18"/>
      <point x="574" y="-22" type="curve"/>
      <point x="582" y="-74"/>
      <point x="539" y="-106"/>
      <point x="481" y="-106" type="curve"/>
      <point x="407" y="-108"/>
      <point x="334" y="-53"/>
      <point x="271" y="-7" type="curve"/>
      <point x="283" y="-10"/>
      <point x="306" y="-12"/>
      <point x="319" y="-12" type="curve"/>
      <point x="476" y="-12"/>
      <point x="568" y="100"/>
      <point x="568" y="344" type="curve"/>
      <point x="568" y="588"/>
      <point x="476" y="700"/>
      <point x="319" y="700" type="curve"/>
      <point x="162" y="700"/>
      <point x="70" y="588"/>
      <point x="70" y="344" type="curve"/>
      <point x="70" y="184"/>
      <point x="113" y="81"/>
      <point x="192" y="21" type="curve"/>
      <point x="268" y="-37"/>
      <point x="370" y="-137"/>
    </contour>
    <contour>
      <point x="319" y="16" type="curve"/>
      <point x="183" y="16"/>
      <point x="102" y="118"/>
      <point x="102" y="344" type="curve"/>
      <point x="102" y="570"/>
      <point x="183" y="672"/>
      <point x="319" y="672" type="curve"/>
      <point x="455" y="672"/>
      <point x="536" y="570"/>
      <point x="536" y="344" type="curve"/>
      <point x="536" y="118"/>
      <point x="455" y="16"/>
    </contour>
    <contour>
      <point x="316" y="0" type="move" name="bottom"/>
    </contour>
    <contour>
      <point x="316" y="688" type="move" name="top"/>
    </contour>
  </outline>
</glyph>
<glyph name="R" format="1">
  <advance width="572"/>
  <unicode hex="0052"/>
  <outline>
    <contour>
      <point x="127" y="-8" type="curve"/>
      <point x="136" y="-8"/>
      <point x="141" y="-4"/>
      <point x="145" y="0" type="curve"/>
      <point x="140" y="17"/>
      <point x="138" y="78"/>
      <point x="138" y="87" type="curve"/>
      <point x="138" y="670" type="line"/>
      <point x="150" y="673"/>
      <point x="173" y="674"/>
      <point x="206" y="674" type="curve"/>
      <point x="370" y="674"/>
      <point x="442" y="632"/>
      <point x="442" y="500" type="curve"/>
      <point x="442" y="388"/>
      <point x="349" y="328"/>
      <point x="249" y="328" type="curve"/>
      <point x="193" y="328"/>
      <point x="154" y="328"/>
      <point x="124" y="329" type="curve"/>
      <point x="131" y="302" type="line"/>
      <point x="249" y="302" type="line" smooth="yes"/>
      <point x="355" y="302"/>
      <point x="371" y="250"/>
      <point x="391" y="200" type="curve"/>
      <point x="453" y="45" type="line" smooth="yes"/>
      <point x="466" y="12"/>
      <point x="490" y="-8"/>
      <point x="513" y="-8" type="curve"/>
      <point x="528" y="-8"/>
      <point x="555" y="1"/>
      <point x="555" y="22" type="curve"/>
      <point x="555" y="27"/>
      <point x="554" y="32"/>
      <point x="550" y="37" type="curve"/>
      <point x="541" y="22"/>
      <point x="524" y="20"/>
      <point x="517" y="20" type="curve"/>
      <point x="502" y="20"/>
      <point x="492" y="29"/>
      <point x="479" y="61" type="curve"/>
      <point x="422" y="202" type="line" smooth="yes"/>
      <point x="398" y="262"/>
      <point x="372" y="321"/>
      <point x="307" y="321" type="curve"/>
      <point x="312" y="312" type="line"/>
      <point x="406" y="329"/>
      <point x="474" y="401"/>
      <point x="474" y="505" type="curve"/>
      <point x="474" y="644"/>
      <point x="396" y="700"/>
      <point x="209" y="700" type="curve"/>
      <point x="130" y="700"/>
      <point x="104" y="689"/>
      <point x="101" y="687" type="curve"/>
      <point x="106" y="670"/>
      <point x="108" y="609"/>
      <point x="108" y="600" type="curve"/>
      <point x="108" y="14" type="line"/>
      <point x="109" y="0"/>
      <point x="115" y="-8"/>
    </contour>
    <contour>
      <point x="286" y="0" type="move" name="bottom"/>
    </contour>
    <contour>
      <point x="252" y="688" type="move" name="top"/>
    </contour>
  </outline>
</glyph>
<glyph name="S" format="1">
  <advance width="543"/>
  <unicode hex="0053"/>
  <outline>
    <contour>
      <point x="276" y="-12" type="curve"/>
      <point x="444" y="-12"/>
      <point x="484" y="80"/>
      <point x="484" y="155" type="curve"/>
      <point x="484" y="257"/>
      <point x="409" y="313"/>
      <point x="288" y="377" type="curve"/>
      <point x="212" y="418"/>
      <point x="122" y="458"/>
      <point x="122" y="554" type="curve"/>
      <point x="122" y="643"/>
      <point x="200" y="672"/>
      <point x="278" y="672" type="curve"/>
      <point x="361" y="672"/>
      <point x="434" y="639"/>
      <point x="434" y="564" type="curve"/>
      <point x="434" y="556"/>
      <point x="433" y="547"/>
      <point x="428" y="538" type="curve"/>
      <point x="438" y="535"/>
      <point x="445" y="535"/>
      <point x="452" y="539" type="curve"/>
      <point x="462" y="545"/>
      <point x="465" y="554"/>
      <point x="465" y="570" type="curve"/>
      <point x="465" y="649"/>
      <point x="390" y="700"/>
      <point x="280" y="700" type="curve"/>
      <point x="177" y="700"/>
      <point x="90" y="655"/>
      <point x="90" y="550" type="curve"/>
      <point x="90" y="451"/>
      <point x="167" y="408"/>
      <point x="271" y="351" type="curve"/>
      <point x="386" y="288"/>
      <point x="452" y="245"/>
      <point x="452" y="155" type="curve"/>
      <point x="452" y="63"/>
      <point x="382" y="16"/>
      <point x="274" y="16" type="curve"/>
      <point x="172" y="16"/>
      <point x="99" y="58"/>
      <point x="99" y="153" type="curve"/>
      <point x="99" y="169"/>
      <point x="101" y="176"/>
      <point x="104" y="186" type="curve"/>
      <point x="75" y="189"/>
      <point x="66" y="174"/>
      <point x="66" y="142" type="curve"/>
      <point x="66" y="61"/>
      <point x="126" y="-12"/>
    </contour>
    <contour>
      <point x="272" y="0" type="move" name="bottom"/>
    </contour>
    <contour>
      <point x="272" y="688" type="move" name="top"/>
    </contour>
  </outline>
</glyph>
<glyph name="V" format="1">
  <advance width="553"/>
  <unicode hex="0056"/>
  <outline>
    <contour>
      <point x="275" y="-8" type="curve"/>
      <point x="282" y="-8"/>
      <point x="289" y="-6"/>
      <point x="297" y="0" type="curve"/>
      <point x="519" y="658" type="line"/>
      <point x="521" y="665"/>
      <point x="525" y="675"/>
      <point x="525" y="682" type="curve"/>
      <point x="526" y="693"/>
      <point x="517" y="700"/>
      <point x="504" y="700" type="curve"/>
      <point x="499" y="700"/>
      <point x="495" y="700"/>
      <point x="490" y="698" type="curve"/>
      <point x="492" y="694"/>
      <point x="492" y="688"/>
      <point x="492" y="684" type="curve"/>
      <point x="492" y="678"/>
      <point x="489" y="668"/>
      <point x="487" y="663" type="curve"/>
      <point x="269" y="6" type="line"/>
      <point x="283" y="6" type="line"/>
      <point x="55" y="686" type="line" smooth="yes"/>
      <point x="52" y="695"/>
      <point x="44" y="700"/>
      <point x="35" y="700" type="curve"/>
      <point x="28" y="700"/>
      <point x="22" y="698"/>
      <point x="15" y="691" type="curve"/>
      <point x="20" y="685"/>
      <point x="27" y="674"/>
      <point x="31" y="661" type="curve"/>
      <point x="250" y="9" type="line" smooth="yes"/>
      <point x="254" y="-2"/>
      <point x="263" y="-8"/>
    </contour>
    <contour>
      <point x="270" y="0" type="move" name="bottom"/>
    </contour>
    <contour>
      <point x="270" y="688" type="move" name="top"/>
    </contour>
  </outline>
</glyph>
<glyph name="asciicircum" format="1">
  <advance width="535"/>
  <unicode hex="005E"/>
  <outline>
    <contour>
      <point x="105" y="276" type="curve"/>
      <point x="268" y="408" type="line"/>
      <point x="431" y="276" type="line"/>
      <point x="437" y="276"/>
      <point x="449" y="278"/>
      <point x="455" y="284" type="curve"/>
      <point x="285" y="442" type="line"/>
      <point x="273" y="444"/>
      <point x="262" y="444"/>
      <point x="250" y="442" type="curve"/>
      <point x="80" y="284" type="line"/>
      <point x="83" y="278"/>
      <point x="99" y="276"/>
    </contour>
  </outline>
</glyph>
<glyph name="underscore" format="1">
  <advance width="373"/>
  <unicode hex="005F"/>
  <outline>
    <contour>
      <point x="-30" y="-93" type="line"/>
      <point x="403" y="-95" type="line"/>
      <point x="403" y="-69" type="line"/>
      <point x="-30" y="-67" type="line"/>
    </contour>
  </outline>
</glyph>
<glyph name="b" format="1">
  <advance width="529"/>
  <unicode hex="0062"/>
  <outline>
    <contour>
      <point x="267" y="-12" type="curve"/>
      <point x="419" y="-12"/>
      <point x="476" y="126"/>
      <point x="476" y="275" type="curve"/>
      <point x="476" y="438"/>
      <point x="417" y="512"/>
      <point x="306" y="512" type="curve"/>
      <point x="214" y="512"/>
      <point x="145" y="443"/>
      <point x="119" y="365" type="curve"/>
      <point x="120" y="635" type="line" smooth="yes"/>
      <point x="120" y="654"/>
      <point x="122" y="710"/>
      <point x="125" y="720" type="curve"/>
      <point x="121" y="724"/>
      <point x="116" y="728"/>
      <point x="107" y="728" type="curve"/>
      <point x="95" y="728"/>
      <point x="88" y="720"/>
      <point x="88" y="706" type="curve"/>
      <point x="88" y="56" type="line"/>
      <point x="135" y="-2"/>
      <point x="220" y="-12"/>
    </contour>
    <contour>
      <point x="270" y="16" type="curve"/>
      <point x="208" y="14"/>
      <point x="138" y="39"/>
      <point x="118" y="70" type="curve"/>
      <point x="118" y="220" type="line" smooth="yes"/>
      <point x="118" y="314"/>
      <point x="162" y="484"/>
      <point x="308" y="484" type="curve"/>
      <point x="393" y="484"/>
      <point x="445" y="421"/>
      <point x="445" y="276" type="curve"/>
      <point x="445" y="170"/>
      <point x="419" y="20"/>
    </contour>
    <contour>
      <point x="265" y="0" type="move" name="bottom"/>
    </contour>
    <contour>
      <point x="265" y="500" type="move" name="top"/>
    </contour>
  </outline>
</glyph>
<glyph name="e" format="1">
  <advance width="497"/>
  <unicode hex="0065"/>
  <outline>
    <contour>
      <point x="268" y="-12" type="curve"/>
      <point x="344" y="-12"/>
      <point x="410" y="15"/>
      <point x="435" y="72" type="curve"/>
      <point x="447" y="100"/>
      <point x="439" y="110"/>
      <point x="427" y="115" type="curve"/>
      <point x="409" y="45"/>
      <point x="340" y="17"/>
      <point x="271" y="17" type="curve"/>
      <point x="176" y="17"/>
      <point x="85" y="71"/>
      <point x="85" y="247" type="curve"/>
      <point x="85" y="409"/>
      <point x="163" y="485"/>
      <point x="274" y="485" type="curve"/>
      <point x="338" y="485"/>
      <point x="407" y="460"/>
      <point x="407" y="375" type="curve"/>
      <point x="407" y="291"/>
      <point x="339" y="249"/>
      <point x="213" y="249" type="curve"/>
      <point x="170" y="249"/>
      <point x="105" y="254"/>
      <point x="67" y="262" type="curve"/>
      <point x="67" y="237" type="line"/>
      <point x="104" y="231"/>
      <point x="144" y="224"/>
      <point x="201" y="224" type="curve"/>
      <point x="354" y="224"/>
      <point x="438" y="274"/>
      <point x="438" y="375" type="curve"/>
      <point x="438" y="463"/>
      <point x="375" y="512"/>
      <point x="276" y="512" type="curve"/>
      <point x="130" y="512"/>
      <point x="53" y="408"/>
      <point x="53" y="243" type="curve"/>
      <point x="53" y="73"/>
      <point x="134" y="-12"/>
    </contour>
    <contour>
      <point x="249" y="0" type="move" name="bottom"/>
    </contour>
    <contour>
      <point x="365" y="17" type="move" name="ogonek"/>
    </contour>
    <contour>
      <point x="268" y="500" type="move" name="top"/>
    </contour>
  </outline>
</glyph>
<glyph name="f" format="1">
  <advance width="372"/>
  <unicode hex="0066"/>
  <outline>
    <contour>
      <point x="135" y="-8" type="curve"/>
      <point x="144" y="-8"/>
      <point x="149" y="-4"/>
      <point x="153" y="0" type="curve"/>
      <point x="149" y="16"/>
      <point x="147" y="47"/>
      <point x="147" y="87" type="curve"/>
      <point x="148" y="574" type="line" smooth="yes"/>
      <point x="148" y="640"/>
      <point x="162" y="712"/>
      <point x="257" y="712" type="curve"/>
      <point x="305" y="712"/>
      <point x="343" y="696"/>
      <point x="343" y="648" type="curve"/>
      <point x="343" y="635"/>
      <point x="341" y="615"/>
      <point x="323" y="593" type="curve"/>
      <point x="325" y="592"/>
      <point x="327" y="592"/>
      <point x="329" y="592" type="curve"/>
      <point x="344" y="592"/>
      <point x="372" y="613"/>
      <point x="372" y="656" type="curve"/>
      <point x="372" y="711"/>
      <point x="321" y="740"/>
      <point x="259" y="740" type="curve"/>
      <point x="135" y="740"/>
      <point x="117" y="643"/>
      <point x="117" y="577" type="curve"/>
      <point x="118" y="14" type="line" smooth="yes"/>
      <point x="118" y="0"/>
      <point x="124" y="-8"/>
    </contour>
    <contour>
      <point x="37" y="486" type="curve"/>
      <point x="36" y="472" type="line"/>
      <point x="49" y="473"/>
      <point x="83" y="474"/>
      <point x="96" y="474" type="curve"/>
      <point x="293" y="474" type="line" smooth="yes"/>
      <point x="299" y="474"/>
      <point x="303" y="480"/>
      <point x="304" y="488" type="curve"/>
      <point x="305" y="502" type="line"/>
      <point x="295" y="501"/>
      <point x="263" y="500"/>
      <point x="253" y="500" type="curve"/>
      <point x="48" y="500" type="line" smooth="yes"/>
      <point x="42" y="500"/>
      <point x="38" y="494"/>
    </contour>
    <contour>
      <point x="190" y="0" type="move" name="bottom"/>
    </contour>
    <contour>
      <point x="190" y="500" type="move" name="top"/>
    </contour>
  </outline>
</glyph>
<glyph name="g" format="1">
  <advance width="529"/>
  <unicode hex="0067"/>
  <outline>
    <contour>
      <point x="208" y="-240" type="curve"/>
      <point x="343" y="-240"/>
      <point x="442" y="-170"/>
      <point x="442" y="46" type="curve"/>
      <point x="442" y="446" type="line"/>
      <point x="395" y="504"/>
      <point x="313" y="512"/>
      <point x="266" y="512" type="curve"/>
      <point x="73" y="512"/>
      <point x="53" y="341"/>
      <point x="53" y="247" type="curve"/>
      <point x="53" y="70"/>
      <point x="117" y="-10"/>
      <point x="229" y="-10" type="curve"/>
      <point x="318" y="-10"/>
      <point x="385" y="41"/>
      <point x="411" y="125" type="curve"/>
      <point x="411" y="102"/>
      <point x="411" y="81"/>
      <point x="411" y="62" type="curve"/>
      <point x="411" y="-126"/>
      <point x="352" y="-212"/>
      <point x="210" y="-212" type="curve"/>
      <point x="145" y="-212"/>
      <point x="85" y="-186"/>
      <point x="85" y="-113" type="curve"/>
      <point x="85" y="-89"/>
      <point x="92" y="-71"/>
      <point x="111" y="-60" type="curve"/>
      <point x="107" y="-54"/>
      <point x="101" y="-51"/>
      <point x="92" y="-51" type="curve"/>
      <point x="74" y="-51"/>
      <point x="56" y="-76"/>
      <point x="56" y="-116" type="curve"/>
      <point x="56" y="-199"/>
      <point x="126" y="-240"/>
    </contour>
    <contour>
      <point x="231" y="18" type="curve"/>
      <point x="137" y="18"/>
      <point x="85" y="87"/>
      <point x="85" y="245" type="curve"/>
      <point x="85" y="332"/>
      <point x="104" y="484"/>
      <point x="257" y="484" type="curve"/>
      <point x="323" y="484"/>
      <point x="384" y="468"/>
      <point x="412" y="433" type="curve"/>
      <point x="411" y="247" type="line" smooth="yes"/>
      <point x="411" y="163"/>
      <point x="373" y="18"/>
    </contour>
    <contour>
      <point x="265" y="0" type="move" name="bottom"/>
    </contour>
    <contour>
      <point x="265" y="500" type="move" name="top"/>
    </contour>
  </outline>
</glyph>
<glyph name="j" format="1">
  <advance width="254"/>
  <unicode hex="006A"/>
  <outline>
    <contour>
      <point x="34" y="-236" type="curve"/>
      <point x="136" y="-236"/>
      <point x="148" y="-145"/>
      <point x="148" y="-83" type="curve"/>
      <point x="147" y="490" type="line" smooth="yes"/>
      <point x="147" y="504"/>
      <point x="141" y="512"/>
      <point x="130" y="512" type="curve"/>
      <point x="121" y="512"/>
      <point x="116" y="508"/>
      <point x="112" y="504" type="curve"/>
      <point x="116" y="488"/>
      <point x="118" y="455"/>
      <point x="118" y="417" type="curve"/>
      <point x="117" y="-80" type="line" smooth="yes"/>
      <point x="117" y="-160"/>
      <point x="101" y="-208"/>
      <point x="32" y="-208" type="curve"/>
      <point x="7" y="-208"/>
      <point x="-30" y="-202"/>
      <point x="-30" y="-154" type="curve"/>
      <point x="-30" y="-147"/>
      <point x="-30" y="-140"/>
      <point x="-28" y="-132" type="curve"/>
      <point x="-29" y="-132"/>
      <point x="-30" y="-132"/>
      <point x="-31" y="-132" type="curve"/>
      <point x="-49" y="-132"/>
      <point x="-55" y="-150"/>
      <point x="-55" y="-164" type="curve"/>
      <point x="-55" y="-209"/>
      <point x="-24" y="-236"/>
    </contour>
    <contour>
      <point x="130" y="636" type="curve"/>
      <point x="148" y="636"/>
      <point x="164" y="652"/>
      <point x="164" y="670" type="curve"/>
      <point x="164" y="688"/>
      <point x="148" y="704"/>
      <point x="130" y="704" type="curve"/>
      <point x="112" y="704"/>
      <point x="96" y="688"/>
      <point x="96" y="670" type="curve"/>
      <point x="96" y="652"/>
      <point x="112" y="636"/>
    </contour>
  </outline>
</glyph>
<glyph name="k" format="1">
  <advance width="540"/>
  <unicode hex="006B"/>
  <outline>
    <contour>
      <point x="115" y="-8" type="curve"/>
      <point x="124" y="-8"/>
      <point x="129" y="-4"/>
      <point x="133" y="0" type="curve"/>
      <point x="128" y="21"/>
      <point x="127" y="30"/>
      <point x="127" y="161" type="curve"/>
      <point x="176" y="174"/>
      <point x="243" y="194"/>
      <point x="304" y="218" type="curve"/>
      <point x="409" y="31" type="line" smooth="yes"/>
      <point x="420" y="11"/>
      <point x="439" y="-8"/>
      <point x="462" y="-8" type="curve"/>
      <point x="477" y="-8"/>
      <point x="502" y="1"/>
      <point x="502" y="22" type="curve"/>
      <point x="502" y="27"/>
      <point x="501" y="32"/>
      <point x="497" y="37" type="curve"/>
      <point x="488" y="22"/>
      <point x="475" y="20"/>
      <point x="468" y="20" type="curve"/>
      <point x="453" y="20"/>
      <point x="444" y="28"/>
      <point x="433" y="47" type="curve"/>
      <point x="345" y="205" type="line"/>
      <point x="340" y="213"/>
      <point x="336" y="221"/>
      <point x="329" y="229" type="curve"/>
      <point x="398" y="260"/>
      <point x="464" y="312"/>
      <point x="464" y="395" type="curve"/>
      <point x="464" y="472"/>
      <point x="415" y="512"/>
      <point x="342" y="512" type="curve"/>
      <point x="232" y="512"/>
      <point x="147" y="432"/>
      <point x="122" y="315" type="curve"/>
      <point x="127" y="312" type="line"/>
      <point x="128" y="640" type="line" smooth="yes"/>
      <point x="128" y="675"/>
      <point x="131" y="711"/>
      <point x="134" y="720" type="curve"/>
      <point x="130" y="724"/>
      <point x="125" y="728"/>
      <point x="116" y="728" type="curve"/>
      <point x="104" y="728"/>
      <point x="97" y="720"/>
      <point x="97" y="706" type="curve"/>
      <point x="98" y="14" type="line" smooth="yes"/>
      <point x="98" y="0"/>
      <point x="104" y="-8"/>
    </contour>
    <contour>
      <point x="127" y="185" type="curve"/>
      <point x="127" y="364"/>
      <point x="208" y="484"/>
      <point x="340" y="484" type="curve"/>
      <point x="394" y="484"/>
      <point x="434" y="458"/>
      <point x="434" y="394" type="curve"/>
      <point x="434" y="279"/>
      <point x="280" y="229"/>
    </contour>
    <contour>
      <point x="269" y="0" type="move" name="bottom"/>
    </contour>
    <contour>
      <point x="269" y="500" type="move" name="top"/>
    </contour>
  </outline>
</glyph>
<glyph name="l" format="1">
  <advance width="250"/>
  <unicode hex="006C"/>
  <outline>
    <contour>
      <point x="164" y="-10" type="curve"/>
      <point x="192" y="-10"/>
      <point x="218" y="2"/>
      <point x="218" y="24" type="curve"/>
      <point x="218" y="30"/>
      <point x="216" y="37"/>
      <point x="209" y="45" type="curve"/>
      <point x="201" y="28"/>
      <point x="184" y="18"/>
      <point x="165" y="18" type="curve"/>
      <point x="138" y="18"/>
      <point x="124" y="38"/>
      <point x="124" y="71" type="curve"/>
      <point x="125" y="524" type="line" smooth="yes"/>
      <point x="125" y="644"/>
      <point x="125" y="705"/>
      <point x="131" y="720" type="curve"/>
      <point x="127" y="724"/>
      <point x="122" y="728"/>
      <point x="113" y="728" type="curve"/>
      <point x="101" y="728"/>
      <point x="94" y="720"/>
      <point x="94" y="706" type="curve"/>
      <point x="94" y="73" type="line" smooth="yes"/>
      <point x="94" y="19"/>
      <point x="122" y="-10"/>
    </contour>
    <contour>
      <point x="156" y="0" type="move" name="bottom"/>
    </contour>
    <contour>
      <point x="125" y="262" type="move" name="center"/>
    </contour>
    <contour>
      <point x="128" y="705" type="move" name="top"/>
    </contour>
    <contour>
      <point x="191" y="688" type="move" name="topright"/>
    </contour>
  </outline>
</glyph>
<glyph name="p" format="1">
  <advance width="544"/>
  <unicode hex="0070"/>
  <outline>
    <contour>
      <point x="121" y="-228" type="curve"/>
      <point x="130" y="-228"/>
      <point x="135" y="-224"/>
      <point x="139" y="-220" type="curve"/>
      <point x="136" y="-206"/>
      <point x="133" y="-146"/>
      <point x="133" y="-106" type="curve"/>
      <point x="133" y="86" type="line"/>
      <point x="155" y="24"/>
      <point x="209" y="-12"/>
      <point x="285" y="-12" type="curve"/>
      <point x="420" y="-12"/>
      <point x="491" y="100"/>
      <point x="491" y="278" type="curve"/>
      <point x="491" y="356"/>
      <point x="477" y="512"/>
      <point x="325" y="512" type="curve"/>
      <point x="189" y="512"/>
      <point x="127" y="388"/>
      <point x="110" y="271" type="curve"/>
      <point x="133" y="300" type="line"/>
      <point x="133" y="431" type="line" smooth="yes"/>
      <point x="133" y="483"/>
      <point x="117" y="510"/>
      <point x="76" y="510" type="curve"/>
      <point x="52" y="510"/>
      <point x="36" y="501"/>
      <point x="36" y="486" type="curve"/>
      <point x="36" y="479"/>
      <point x="39" y="472"/>
      <point x="46" y="464" type="curve"/>
      <point x="53" y="480"/>
      <point x="65" y="482"/>
      <point x="73" y="482" type="curve"/>
      <point x="95" y="482"/>
      <point x="103" y="469"/>
      <point x="103" y="432" type="curve"/>
      <point x="102" y="-206" type="line" smooth="yes"/>
      <point x="102" y="-220"/>
      <point x="109" y="-228"/>
    </contour>
    <contour>
      <point x="282" y="16" type="curve"/>
      <point x="157" y="16"/>
      <point x="133" y="125"/>
      <point x="133" y="214" type="curve"/>
      <point x="133" y="370"/>
      <point x="208" y="484"/>
      <point x="323" y="484" type="curve"/>
      <point x="447" y="484"/>
      <point x="459" y="350"/>
      <point x="459" y="276" type="curve"/>
      <point x="459" y="99"/>
      <point x="391" y="16"/>
    </contour>
    <contour>
      <point x="270" y="0" type="move" name="bottom"/>
    </contour>
    <contour>
      <point x="270" y="500" type="move" name="top"/>
    </contour>
  </outline>
</glyph>
<glyph name="r" format="1">
  <advance width="413"/>
  <unicode hex="0072"/>
  <outline>
    <contour>
      <point x="120" y="-8" type="curve"/>
      <point x="129" y="-8"/>
      <point x="135" y="-4"/>
      <point x="139" y="0" type="curve"/>
      <point x="133" y="24"/>
      <point x="134" y="59"/>
      <point x="134" y="247" type="curve"/>
      <point x="134" y="433"/>
      <point x="207" y="484"/>
      <point x="266" y="484" type="curve"/>
      <point x="311" y="484"/>
      <point x="339" y="464"/>
      <point x="339" y="414" type="curve"/>
      <point x="339" y="396"/>
      <point x="337" y="377"/>
      <point x="319" y="355" type="curve"/>
      <point x="321" y="354"/>
      <point x="325" y="353"/>
      <point x="331" y="354" type="curve"/>
      <point x="347" y="357"/>
      <point x="368" y="380"/>
      <point x="368" y="418" type="curve"/>
      <point x="368" y="480"/>
      <point x="326" y="512"/>
      <point x="266" y="512" type="curve"/>
      <point x="186" y="512"/>
      <point x="128" y="443"/>
      <point x="120" y="319" type="curve"/>
      <point x="132" y="327" type="line"/>
      <point x="132" y="427" type="line" smooth="yes"/>
      <point x="132" y="481"/>
      <point x="117" y="510"/>
      <point x="76" y="510" type="curve"/>
      <point x="54" y="510"/>
      <point x="36" y="501"/>
      <point x="36" y="484" type="curve"/>
      <point x="36" y="476"/>
      <point x="40" y="469"/>
      <point x="46" y="464" type="curve"/>
      <point x="52" y="479"/>
      <point x="65" y="482"/>
      <point x="73" y="482" type="curve"/>
      <point x="94" y="482"/>
      <point x="103" y="469"/>
      <point x="103" y="432" type="curve"/>
      <point x="103" y="14" type="line" smooth="yes"/>
      <point x="103" y="0"/>
      <point x="109" y="-8"/>
    </contour>
    <contour>
      <point x="119" y="0" type="move" name="bottom"/>
    </contour>
    <contour>
      <point x="186" y="500" type="move" name="top"/>
    </contour>
  </outline>
</glyph>
<glyph name="s" format="1">
  <advance width="460"/>
  <unicode hex="0073"/>
  <outline>
    <contour>
      <point x="227" y="-12" type="curve"/>
      <point x="378" y="-12"/>
      <point x="414" y="58"/>
      <point x="414" y="113" type="curve"/>
      <point x="414" y="205"/>
      <point x="319" y="231"/>
      <point x="237" y="269" type="curve"/>
      <point x="166" y="302"/>
      <point x="101" y="327"/>
      <point x="101" y="403" type="curve"/>
      <point x="101" y="465"/>
      <point x="163" y="485"/>
      <point x="229" y="485" type="curve"/>
      <point x="314" y="485"/>
      <point x="366" y="460"/>
      <point x="366" y="404" type="curve"/>
      <point x="366" y="396"/>
      <point x="365" y="387"/>
      <point x="361" y="378" type="curve"/>
      <point x="370" y="375"/>
      <point x="378" y="375"/>
      <point x="384" y="379" type="curve"/>
      <point x="394" y="385"/>
      <point x="397" y="395"/>
      <point x="397" y="410" type="curve"/>
      <point x="397" y="473"/>
      <point x="341" y="513"/>
      <point x="231" y="513" type="curve"/>
      <point x="144" y="513"/>
      <point x="69" y="482"/>
      <point x="69" y="400" type="curve"/>
      <point x="69" y="308"/>
      <point x="143" y="280"/>
      <point x="221" y="242" type="curve"/>
      <point x="299" y="204"/>
      <point x="382" y="186"/>
      <point x="382" y="111" type="curve"/>
      <point x="382" y="50"/>
      <point x="317" y="16"/>
      <point x="224" y="16" type="curve"/>
      <point x="137" y="16"/>
      <point x="76" y="49"/>
      <point x="76" y="124" type="curve"/>
      <point x="76" y="138"/>
      <point x="78" y="146"/>
      <point x="82" y="156" type="curve"/>
      <point x="56" y="159"/>
      <point x="45" y="145"/>
      <point x="45" y="114" type="curve"/>
      <point x="45" y="47"/>
      <point x="94" y="-12"/>
    </contour>
    <contour>
      <point x="230" y="0" type="move" name="bottom"/>
    </contour>
    <contour>
      <point x="230" y="500" type="move" name="top"/>
    </contour>
  </outline>
</glyph>
<glyph name="u" format="1">
  <advance width="551"/>
  <unicode hex="0075"/>
  <outline>
    <contour>
      <point x="245" y="-12" type="curve"/>
      <point x="337" y="-12"/>
      <point x="423" y="63"/>
      <point x="431" y="185" type="curve"/>
      <point x="418" y="177" type="line"/>
      <point x="418" y="73" type="line" smooth="yes"/>
      <point x="418" y="21"/>
      <point x="434" y="-6"/>
      <point x="475" y="-6" type="curve"/>
      <point x="499" y="-6"/>
      <point x="515" y="3"/>
      <point x="515" y="18" type="curve"/>
      <point x="515" y="25"/>
      <point x="512" y="32"/>
      <point x="505" y="40" type="curve"/>
      <point x="498" y="24"/>
      <point x="486" y="22"/>
      <point x="478" y="22" type="curve"/>
      <point x="456" y="22"/>
      <point x="448" y="35"/>
      <point x="448" y="72" type="curve"/>
      <point x="447" y="490" type="line"/>
      <point x="447" y="504"/>
      <point x="441" y="512"/>
      <point x="430" y="512" type="curve"/>
      <point x="421" y="512"/>
      <point x="416" y="508"/>
      <point x="412" y="504" type="curve"/>
      <point x="418" y="480"/>
      <point x="418" y="445"/>
      <point x="418" y="257" type="curve"/>
      <point x="418" y="68"/>
      <point x="314" y="16"/>
      <point x="248" y="16" type="curve"/>
      <point x="156" y="16"/>
      <point x="119" y="59"/>
      <point x="119" y="206" type="curve"/>
      <point x="118" y="490" type="line"/>
      <point x="118" y="504"/>
      <point x="112" y="512"/>
      <point x="101" y="512" type="curve"/>
      <point x="92" y="512"/>
      <point x="87" y="508"/>
      <point x="83" y="504" type="curve"/>
      <point x="87" y="488"/>
      <point x="89" y="457"/>
      <point x="89" y="417" type="curve"/>
      <point x="90" y="207" type="line" smooth="yes"/>
      <point x="91" y="44"/>
      <point x="139" y="-12"/>
    </contour>
    <contour>
      <point x="286" y="0" type="move" name="bottom"/>
    </contour>
    <contour>
      <point x="492" y="8" type="move" name="ogonek"/>
    </contour>
    <contour>
      <point x="265" y="500" type="move" name="top"/>
    </contour>
    <contour>
      <point x="447" y="490" type="move" name="topright"/>
    </contour>
  </outline>
</glyph>
<glyph name="v" format="1">
  <advance width="464"/>
  <unicode hex="0076"/>
  <outline>
    <contour>
      <point x="235" y="-8" type="curve"/>
      <point x="242" y="-8"/>
      <point x="249" y="-6"/>
      <point x="257" y="0" type="curve"/>
      <point x="439" y="458" type="line" smooth="yes"/>
      <point x="442" y="465"/>
      <point x="445" y="475"/>
      <point x="445" y="482" type="curve"/>
      <point x="446" y="493"/>
      <point x="437" y="500"/>
      <point x="424" y="500" type="curve"/>
      <point x="419" y="500"/>
      <point x="415" y="500"/>
      <point x="410" y="498" type="curve"/>
      <point x="412" y="494"/>
      <point x="412" y="488"/>
      <point x="412" y="484" type="curve"/>
      <point x="412" y="478"/>
      <point x="409" y="468"/>
      <point x="407" y="463" type="curve"/>
      <point x="231" y="6" type="line"/>
      <point x="241" y="6" type="line"/>
      <point x="55" y="486" type="line"/>
      <point x="52" y="495"/>
      <point x="44" y="500"/>
      <point x="35" y="500" type="curve"/>
      <point x="28" y="500"/>
      <point x="22" y="498"/>
      <point x="15" y="491" type="curve"/>
      <point x="20" y="485"/>
      <point x="28" y="469"/>
      <point x="31" y="461" type="curve"/>
      <point x="210" y="9" type="line" smooth="yes"/>
      <point x="214" y="-2"/>
      <point x="223" y="-8"/>
    </contour>
    <contour>
      <point x="230" y="0" type="move" name="bottom"/>
    </contour>
    <contour>
      <point x="230" y="500" type="move" name="top"/>
    </contour>
  </outline>
</glyph>
<glyph name="w" format="1">
  <advance width="733"/>
  <unicode hex="0077"/>
  <outline>
    <contour>
      <point x="209" y="-8" type="curve"/>
      <point x="216" y="-8"/>
      <point x="225" y="-6"/>
      <point x="233" y="0" type="curve"/>
      <point x="370" y="461" type="line"/>
      <point x="503" y="9" type="line" smooth="yes"/>
      <point x="506" y="-2"/>
      <point x="518" y="-8"/>
      <point x="530" y="-8" type="curve"/>
      <point x="537" y="-8"/>
      <point x="543" y="-6"/>
      <point x="551" y="0" type="curve"/>
      <point x="703" y="458" type="line"/>
      <point x="706" y="465"/>
      <point x="709" y="475"/>
      <point x="709" y="482" type="curve"/>
      <point x="710" y="493"/>
      <point x="701" y="500"/>
      <point x="688" y="500" type="curve"/>
      <point x="683" y="500"/>
      <point x="679" y="500"/>
      <point x="674" y="498" type="curve"/>
      <point x="676" y="494"/>
      <point x="676" y="488"/>
      <point x="676" y="484" type="curve"/>
      <point x="676" y="478"/>
      <point x="673" y="468"/>
      <point x="671" y="463" type="curve"/>
      <point x="528" y="19" type="line"/>
      <point x="385" y="500" type="line"/>
      <point x="380" y="503"/>
      <point x="376" y="504"/>
      <point x="370" y="504" type="curve"/>
      <point x="361" y="504"/>
      <point x="351" y="501"/>
      <point x="346" y="498" type="curve"/>
      <point x="348" y="494"/>
      <point x="348" y="488"/>
      <point x="348" y="484" type="curve"/>
      <point x="348" y="478"/>
      <point x="345" y="467"/>
      <point x="344" y="463" type="curve"/>
      <point x="211" y="19" type="line"/>
      <point x="60" y="486" type="line" smooth="yes"/>
      <point x="57" y="495"/>
      <point x="49" y="500"/>
      <point x="40" y="500" type="curve"/>
      <point x="33" y="500"/>
      <point x="27" y="498"/>
      <point x="20" y="491" type="curve"/>
      <point x="25" y="485"/>
      <point x="33" y="469"/>
      <point x="36" y="461" type="curve"/>
      <point x="185" y="9" type="line" smooth="yes"/>
      <point x="189" y="-2"/>
      <point x="197" y="-8"/>
    </contour>
    <contour>
      <point x="365" y="0" type="move" name="bottom"/>
    </contour>
    <contour>
      <point x="365" y="500" type="move" name="top"/>
    </contour>
  </outline>
</glyph>
<glyph name="asciitilde" format="1">
  <advance width="521"/>
  <unicode hex="007E"/>
  <outline>
    <contour>
      <point x="362" y="319" type="curve"/>
      <point x="403" y="319"/>
      <point x="433" y="349"/>
      <point x="441" y="388" type="curve"/>
      <point x="434" y="394"/>
      <point x="426" y="397"/>
      <point x="414" y="397" type="curve"/>
      <point x="405" y="370"/>
      <point x="395" y="350"/>
      <point x="369" y="350" type="curve"/>
      <point x="288" y="350"/>
      <point x="259" y="401"/>
      <point x="168" y="401" type="curve"/>
      <point x="129" y="401"/>
      <point x="91" y="380"/>
      <point x="80" y="335" type="curve"/>
      <point x="87" y="329"/>
      <point x="96" y="323"/>
      <point x="105" y="324" type="curve"/>
      <point x="113" y="354"/>
      <point x="138" y="370"/>
      <point x="164" y="370" type="curve"/>
      <point x="242" y="370"/>
      <point x="271" y="319"/>
    </contour>
  </outline>
</glyph>
<glyph name="brokenbar" format="1">
  <advance width="230"/>
  <unicode hex="00A6"/>
  <outline>
    <contour>
      <point x="100" y="728" type="line"/>
      <point x="100" y="384" type="line"/>
      <point x="130" y="384" type="line"/>
      <point x="130" y="728" type="line"/>
    </contour>
    <contour>
      <point x="100" y="207" type="line"/>
      <point x="100" y="-137" type="line"/>
      <point x="130" y="-137" type="line"/>
      <point x="130" y="207" type="line"/>
    </contour>
  </outline>
</glyph>
<glyph name="copyright" format="1">
  <advance width="837"/>
  <unicode hex="00A9"/>
  <outline>
    <contour>
      <point x="419" y="-12" type="curve"/>
      <point x="617" y="-12"/>
      <point x="777" y="148"/>
      <point x="777" y="346" type="curve"/>
      <point x="777" y="541"/>
      <point x="617" y="700"/>
      <point x="419" y="700" type="curve"/>
      <point x="220" y="700"/>
      <point x="60" y="542"/>
      <point x="60" y="346" type="curve"/>
      <point x="60" y="148"/>
      <point x="220" y="-12"/>
    </contour>
    <contour>
      <point x="425" y="123" type="curve"/>
      <point x="505" y="123"/>
      <point x="569" y="165"/>
      <point x="569" y="193" type="curve"/>
      <point x="569" y="201"/>
      <point x="561" y="202"/>
      <point x="552" y="202" type="curve"/>
      <point x="538" y="166"/>
      <point x="479" y="145"/>
      <point x="425" y="145" type="curve"/>
      <point x="329" y="145"/>
      <point x="273" y="214"/>
      <point x="273" y="346" type="curve"/>
      <point x="273" y="478"/>
      <point x="329" y="547"/>
      <point x="425" y="547" type="curve"/>
      <point x="486" y="547"/>
      <point x="526" y="531"/>
      <point x="535" y="508" type="curve"/>
      <point x="544" y="505"/>
      <point x="554" y="511"/>
      <point x="554" y="517" type="curve"/>
      <point x="554" y="540"/>
      <point x="502" y="569"/>
      <point x="425" y="569" type="curve"/>
      <point x="312" y="569"/>
      <point x="244" y="493"/>
      <point x="244" y="346" type="curve"/>
      <point x="244" y="199"/>
      <point x="312" y="123"/>
    </contour>
    <contour>
      <point x="419" y="13" type="curve"/>
      <point x="235" y="13"/>
      <point x="87" y="161"/>
      <point x="87" y="346" type="curve"/>
      <point x="87" y="528"/>
      <point x="235" y="675"/>
      <point x="419" y="675" type="curve"/>
      <point x="602" y="675"/>
      <point x="750" y="528"/>
      <point x="750" y="346" type="curve"/>
      <point x="750" y="162"/>
      <point x="602" y="13"/>
    </contour>
  </outline>
</glyph>
<glyph name="plusminus" format="1">
  <advance width="577"/>
  <unicode hex="00B1"/>
  <outline>
    <contour>
      <point x="93" y="342" type="curve"/>
      <point x="484" y="342" type="line"/>
      <point x="488" y="352"/>
      <point x="488" y="362"/>
      <point x="484" y="372" type="curve"/>
      <point x="93" y="372" type="line"/>
      <point x="89" y="362"/>
      <point x="89" y="352"/>
    </contour>
    <contour>
      <point x="93" y="122" type="curve"/>
      <point x="484" y="122" type="line"/>
      <point x="488" y="132"/>
      <point x="488" y="142"/>
      <point x="484" y="152" type="curve"/>
      <point x="93" y="152" type="line"/>
      <point x="89" y="142"/>
      <point x="89" y="132"/>
    </contour>
    <contour>
      <point x="303" y="211" type="curve"/>
      <point x="303" y="503" type="line"/>
      <point x="293" y="507"/>
      <point x="283" y="507"/>
      <point x="273" y="503" type="curve"/>
      <point x="274" y="212" type="line"/>
      <point x="283" y="208"/>
      <point x="294" y="208"/>
    </contour>
  </outline>
</glyph>
<glyph name="micro" format="1">
  <advance width="558"/>
  <unicode hex="00B5"/>
  <outline>
    <contour>
      <point x="248" y="-12" type="curve"/>
      <point x="340" y="-12"/>
      <point x="426" y="63"/>
      <point x="434" y="185" type="curve"/>
      <point x="421" y="177" type="line"/>
      <point x="421" y="73" type="line" smooth="yes"/>
      <point x="421" y="21"/>
      <point x="437" y="-6"/>
      <point x="478" y="-6" type="curve"/>
      <point x="502" y="-6"/>
      <point x="518" y="3"/>
      <point x="518" y="18" type="curve"/>
      <point x="518" y="25"/>
      <point x="515" y="32"/>
      <point x="508" y="40" type="curve"/>
      <point x="501" y="24"/>
      <point x="489" y="22"/>
      <point x="481" y="22" type="curve"/>
      <point x="459" y="22"/>
      <point x="451" y="35"/>
      <point x="451" y="72" type="curve"/>
      <point x="450" y="490" type="line"/>
      <point x="450" y="504"/>
      <point x="444" y="512"/>
      <point x="433" y="512" type="curve"/>
      <point x="424" y="512"/>
      <point x="419" y="508"/>
      <point x="415" y="504" type="curve"/>
      <point x="421" y="480"/>
      <point x="421" y="445"/>
      <point x="421" y="257" type="curve"/>
      <point x="421" y="68"/>
      <point x="317" y="16"/>
      <point x="251" y="16" type="curve"/>
      <point x="159" y="16"/>
      <point x="122" y="59"/>
      <point x="122" y="206" type="curve"/>
      <point x="121" y="490" type="line"/>
      <point x="121" y="504"/>
      <point x="115" y="512"/>
      <point x="104" y="512" type="curve"/>
      <point x="95" y="512"/>
      <point x="90" y="508"/>
      <point x="86" y="504" type="curve"/>
      <point x="90" y="488"/>
      <point x="92" y="457"/>
      <point x="92" y="417" type="curve"/>
      <point x="93" y="207" type="line" smooth="yes"/>
      <point x="94" y="44"/>
      <point x="142" y="-12"/>
    </contour>
    <contour>
      <point x="111" y="-228" type="curve"/>
      <point x="120" y="-228"/>
      <point x="125" y="-224"/>
      <point x="129" y="-220" type="curve"/>
      <point x="126" y="-206"/>
      <point x="123" y="-146"/>
      <point x="123" y="-106" type="curve"/>
      <point x="123" y="86" type="line"/>
      <point x="93" y="207" type="line"/>
      <point x="92" y="-206" type="line" smooth="yes"/>
      <point x="92" y="-220"/>
      <point x="99" y="-228"/>
    </contour>
  </outline>
</glyph>
<glyph name="paragraph" format="1">
  <advance width="631"/>
  <unicode hex="00B6"/>
  <outline>
    <contour>
      <point x="533" y="-195" type="curve"/>
      <point x="548" y="-195"/>
      <point x="553" y="-188"/>
      <point x="556" y="-174" type="curve"/>
      <point x="531" y="-168"/>
      <point x="516" y="-149"/>
      <point x="516" y="-74" type="curve"/>
      <point x="516" y="434" type="line" smooth="yes"/>
      <point x="516" y="617"/>
      <point x="439" y="700"/>
      <point x="278" y="700" type="curve"/>
      <point x="79" y="700"/>
      <point x="50" y="556"/>
      <point x="50" y="481" type="curve"/>
      <point x="50" y="326"/>
      <point x="171" y="258"/>
      <point x="283" y="283" type="curve"/>
      <point x="287" y="313" type="line"/>
      <point x="176" y="288"/>
      <point x="82" y="345"/>
      <point x="82" y="482" type="curve"/>
      <point x="82" y="562"/>
      <point x="113" y="672"/>
      <point x="278" y="672" type="curve"/>
      <point x="421" y="672"/>
      <point x="486" y="601"/>
      <point x="486" y="434" type="curve"/>
      <point x="486" y="-98" type="line" smooth="yes"/>
      <point x="486" y="-159"/>
      <point x="511" y="-195"/>
    </contour>
    <contour>
      <point x="296" y="-8" type="curve"/>
      <point x="305" y="-8"/>
      <point x="310" y="-4"/>
      <point x="314" y="0" type="curve"/>
      <point x="310" y="16"/>
      <point x="308" y="47"/>
      <point x="308" y="87" type="curve"/>
      <point x="306" y="510" type="line"/>
      <point x="306" y="524"/>
      <point x="300" y="532"/>
      <point x="289" y="532" type="curve"/>
      <point x="280" y="532"/>
      <point x="275" y="528"/>
      <point x="271" y="524" type="curve"/>
      <point x="275" y="508"/>
      <point x="277" y="477"/>
      <point x="277" y="437" type="curve"/>
      <point x="279" y="14" type="line" smooth="yes"/>
      <point x="279" y="0"/>
      <point x="285" y="-8"/>
    </contour>
  </outline>
</glyph>
<glyph name="periodcentered" format="1">
  <advance width="228"/>
  <unicode hex="00B7"/>
  <outline>
    <contour>
      <point x="114" y="211" type="curve"/>
      <point x="132" y="211"/>
      <point x="148" y="227"/>
      <point x="148" y="245" type="curve"/>
      <point x="148" y="263"/>
      <point x="132" y="279"/>
      <point x="114" y="279" type="curve"/>
      <point x="96" y="279"/>
      <point x="80" y="263"/>
      <point x="80" y="245" type="curve"/>
      <point x="80" y="227"/>
      <point x="96" y="211"/>
    </contour>
  </outline>
</glyph>
<glyph name="onesuperior" format="1">
  <advance width="280"/>
  <unicode hex="00B9"/>
  <outline>
    <contour>
      <point x="175" y="238" type="curve"/>
      <point x="182" y="238"/>
      <point x="186" y="241"/>
      <point x="189" y="244" type="curve"/>
      <point x="186" y="256"/>
      <point x="184" y="278"/>
      <point x="185" y="304" type="curve"/>
      <point x="184" y="683" type="line"/>
      <point x="184" y="694"/>
      <point x="178" y="700"/>
      <point x="169" y="700" type="curve"/>
      <point x="164" y="700"/>
      <point x="162" y="699"/>
      <point x="158" y="697" type="curve"/>
      <point x="120" y="672"/>
      <point x="48" y="619"/>
      <point x="40" y="614" type="curve"/>
      <point x="40" y="609"/>
      <point x="41" y="599"/>
      <point x="50" y="599" type="curve"/>
      <point x="59" y="599"/>
      <point x="122" y="648"/>
      <point x="158" y="672" type="curve"/>
      <point x="159" y="661"/>
      <point x="159" y="649"/>
      <point x="159" y="635" type="curve"/>
      <point x="161" y="254" type="line" smooth="yes"/>
      <point x="161" y="244"/>
      <point x="166" y="238"/>
    </contour>
  </outline>
</glyph>
<glyph name="ordmasculine" format="1">
  <advance width="358"/>
  <unicode hex="00BA"/>
  <outline>
    <contour>
      <point x="179" y="357" type="curve"/>
      <point x="269" y="357"/>
      <point x="322" y="422"/>
      <point x="322" y="533" type="curve"/>
      <point x="322" y="643"/>
      <point x="269" y="708"/>
      <point x="179" y="708" type="curve"/>
      <point x="88" y="708"/>
      <point x="36" y="643"/>
      <point x="36" y="533" type="curve"/>
      <point x="36" y="422"/>
      <point x="88" y="357"/>
    </contour>
    <contour>
      <point x="179" y="378" type="curve"/>
      <point x="104" y="378"/>
      <point x="59" y="435"/>
      <point x="59" y="533" type="curve"/>
      <point x="59" y="630"/>
      <point x="104" y="687"/>
      <point x="179" y="687" type="curve"/>
      <point x="254" y="687"/>
      <point x="299" y="630"/>
      <point x="299" y="533" type="curve"/>
      <point x="299" y="435"/>
      <point x="254" y="378"/>
    </contour>
  </outline>
</glyph>
<glyph name="Eth" format="1">
  <advance width="619"/>
  <unicode hex="00D0"/>
  <outline>
    <contour>
      <point x="27" y="336" type="curve"/>
      <point x="310" y="336" type="line"/>
      <point x="314" y="344"/>
      <point x="314" y="353"/>
      <point x="310" y="361" type="curve"/>
      <point x="27" y="361" type="line"/>
      <point x="23" y="353"/>
      <point x="23" y="344"/>
    </contour>
    <component base="D"/>
  </outline>
</glyph>
<glyph name="Oslash" format="1">
  <advance width="618"/>
  <unicode hex="00D8"/>
  <outline>
    <contour>
      <point x="110" y="-13" type="curve"/>
      <point x="517" y="688" type="line"/>
      <point x="513" y="696"/>
      <point x="506" y="701"/>
      <point x="496" y="701" type="curve"/>
      <point x="88" y="-1" type="line"/>
      <point x="92" y="-9"/>
      <point x="100" y="-13"/>
    </contour>
    <component base="O"/>
    <contour>
      <point x="309" y="0" type="move" name="bottom"/>
    </contour>
    <contour>
      <point x="309" y="688" type="move" name="top"/>
    </contour>
  </outline>
</glyph>
<glyph name="Thorn" format="1">
  <advance width="534"/>
  <unicode hex="00DE"/>
  <outline>
    <contour>
      <point x="169" y="152" type="curve"/>
      <point x="376" y="152"/>
      <point x="474" y="218"/>
      <point x="474" y="369" type="curve"/>
      <point x="474" y="502"/>
      <point x="397" y="570"/>
      <point x="203" y="570" type="curve"/>
      <point x="183" y="570"/>
      <point x="137" y="569"/>
      <point x="123" y="568" type="curve"/>
      <point x="122" y="542" type="line"/>
      <point x="133" y="544"/>
      <point x="178" y="544"/>
      <point x="194" y="544" type="curve"/>
      <point x="367" y="544"/>
      <point x="442" y="494"/>
      <point x="442" y="368" type="curve"/>
      <point x="442" y="234"/>
      <point x="356" y="177"/>
      <point x="180" y="177" type="curve"/>
      <point x="141" y="177"/>
      <point x="129" y="177"/>
      <point x="116" y="179" type="curve"/>
      <point x="123" y="153" type="line"/>
      <point x="137" y="152"/>
      <point x="150" y="152"/>
    </contour>
    <contour>
      <point x="126" y="-8" type="curve"/>
      <point x="135" y="-8"/>
      <point x="140" y="-4"/>
      <point x="144" y="0" type="curve"/>
      <point x="140" y="16"/>
      <point x="138" y="47"/>
      <point x="138" y="87" type="curve"/>
      <point x="136" y="673" type="line" smooth="yes"/>
      <point x="136" y="687"/>
      <point x="130" y="695"/>
      <point x="119" y="695" type="curve"/>
      <point x="110" y="695"/>
      <point x="105" y="691"/>
      <point x="101" y="687" type="curve"/>
      <point x="105" y="671"/>
      <point x="107" y="640"/>
      <point x="107" y="600" type="curve"/>
      <point x="109" y="14" type="line" smooth="yes"/>
      <point x="109" y="0"/>
      <point x="115" y="-8"/>
    </contour>
    <contour>
      <point x="300" y="0" type="move" name="bottom"/>
    </contour>
    <contour>
      <point x="300" y="688" type="move" name="top"/>
    </contour>
  </outline>
</glyph>
<glyph name="dcaron" format="1">
  <advance width="561"/>
  <unicode hex="010F"/>
  <outline>
    <contour>
      <point x="517" y="606" type="curve"/>
      <point x="539" y="606" type="line"/>
      <point x="545" y="645"/>
      <point x="547" y="684"/>
      <point x="545" y="723" type="curve"/>
      <point x="534" y="726"/>
      <point x="522" y="726"/>
      <point x="511" y="723" type="curve"/>
      <point x="518" y="682"/>
      <point x="520" y="643"/>
    </contour>
    <component base="d"/>
  </outline>
</glyph>
<glyph name="dcroat" format="1">
  <advance width="548"/>
  <unicode hex="0111"/>
  <outline>
    <contour>
      <point x="289" y="588" type="curve"/>
      <point x="518" y="588" type="line"/>
      <point x="522" y="596"/>
      <point x="522" y="605"/>
      <point x="518" y="613" type="curve"/>
      <point x="289" y="613" type="line"/>
      <point x="285" y="605"/>
      <point x="285" y="596"/>
    </contour>
    <component base="d"/>
  </outline>
</glyph>
<glyph name="gcommaaccent" format="1">
  <advance width="529"/>
  <unicode hex="0123"/>
  <outline>
    <contour>
      <point x="263" y="564" type="curve"/>
      <point x="281" y="564"/>
      <point x="291" y="580"/>
      <point x="291" y="591" type="curve"/>
      <point x="276" y="593"/>
      <point x="271" y="597"/>
      <point x="271" y="617" type="curve"/>
      <point x="271" y="636"/>
      <point x="279" y="661"/>
      <point x="296" y="688" type="curve"/>
      <point x="293" y="693"/>
      <point x="290" y="696"/>
      <point x="280" y="699" type="curve"/>
      <point x="240" y="655"/>
      <point x="231" y="626"/>
      <point x="231" y="603" type="curve"/>
      <point x="231" y="572"/>
      <point x="248" y="564"/>
    </contour>
    <component base="g"/>
  </outline>
</glyph>
<glyph name="Hbar" format="1">
  <advance width="662"/>
  <unicode hex="0126"/>
  <outline>
    <contour>
      <point x="56" y="553" type="curve"/>
      <point x="605" y="553" type="line"/>
      <point x="609" y="561"/>
      <point x="609" y="570"/>
      <point x="605" y="578" type="curve"/>
      <point x="56" y="578" type="line"/>
      <point x="52" y="570"/>
      <point x="52" y="561"/>
    </contour>
    <component base="H"/>
  </outline>
</glyph>
<glyph name="hbar" format="1">
  <advance width="564"/>
  <unicode hex="0127"/>
  <outline>
    <contour>
      <point x="30" y="588" type="curve"/>
      <point x="259" y="588" type="line"/>
      <point x="263" y="596"/>
      <point x="263" y="605"/>
      <point x="259" y="613" type="curve"/>
      <point x="30" y="613" type="line"/>
      <point x="26" y="605"/>
      <point x="26" y="596"/>
    </contour>
    <component base="h"/>
  </outline>
</glyph>
<glyph name="dotlessi" format="1">
  <advance width="223"/>
  <unicode hex="0131"/>
  <outline>
    <contour>
      <point x="123" y="87" type="curve"/>
      <point x="121" y="490" type="line" smooth="yes"/>
      <point x="121" y="504"/>
      <point x="115" y="512"/>
      <point x="104" y="512" type="curve"/>
      <point x="95" y="512"/>
      <point x="90" y="508"/>
      <point x="86" y="504" type="curve"/>
      <point x="90" y="488"/>
      <point x="92" y="457"/>
      <point x="92" y="417" type="curve"/>
      <point x="94" y="14" type="line" smooth="yes"/>
      <point x="94" y="0"/>
      <point x="100" y="-8"/>
      <point x="111" y="-8" type="curve"/>
      <point x="120" y="-8"/>
      <point x="125" y="-4"/>
      <point x="129" y="0" type="curve"/>
      <point x="125" y="16"/>
      <point x="123" y="47"/>
    </contour>
    <contour>
      <point x="111" y="0" type="move" name="bottom"/>
    </contour>
    <contour>
      <point x="125" y="-4" type="move" name="ogonek"/>
    </contour>
    <contour>
      <point x="105" y="500" type="move" name="top"/>
    </contour>
  </outline>
</glyph>
<glyph name="kgreenlandic" format="1">
  <advance width="563"/>
  <unicode hex="0138"/>
  <outline>
    <contour>
      <point x="476" y="-8" type="curve"/>
      <point x="491" y="-8"/>
      <point x="518" y="1"/>
      <point x="518" y="23" type="curve"/>
      <point x="518" y="27"/>
      <point x="517" y="32"/>
      <point x="513" y="37" type="curve"/>
      <point x="507" y="26"/>
      <point x="493" y="20"/>
      <point x="480" y="20" type="curve"/>
      <point x="465" y="20"/>
      <point x="451" y="28"/>
      <point x="442" y="61" type="curve"/>
      <point x="417" y="153" type="line" smooth="yes"/>
      <point x="399" y="217"/>
      <point x="368" y="255"/>
      <point x="279" y="261" type="curve"/>
      <point x="273" y="252" type="line"/>
      <point x="391" y="274"/>
      <point x="445" y="356"/>
      <point x="445" y="440" type="curve"/>
      <point x="445" y="480"/>
      <point x="437" y="512"/>
      <point x="419" y="512" type="curve"/>
      <point x="412" y="512"/>
      <point x="403" y="509"/>
      <point x="399" y="500" type="curve"/>
      <point x="406" y="490"/>
      <point x="413" y="464"/>
      <point x="413" y="433" type="curve"/>
      <point x="413" y="352"/>
      <point x="338" y="267"/>
      <point x="208" y="267" type="curve"/>
      <point x="178" y="267"/>
      <point x="147" y="267"/>
      <point x="117" y="267" type="curve"/>
      <point x="118" y="241" type="line"/>
      <point x="218" y="241" type="line" smooth="yes"/>
      <point x="347" y="241"/>
      <point x="370" y="204"/>
      <point x="386" y="151" type="curve"/>
      <point x="416" y="45" type="line" smooth="yes"/>
      <point x="426" y="11"/>
      <point x="453" y="-8"/>
    </contour>
    <contour>
      <point x="113" y="-8" type="curve"/>
      <point x="122" y="-8"/>
      <point x="127" y="-4"/>
      <point x="131" y="0" type="curve"/>
      <point x="127" y="16"/>
      <point x="125" y="47"/>
      <point x="125" y="87" type="curve"/>
      <point x="125" y="490" type="line" smooth="yes"/>
      <point x="125" y="504"/>
      <point x="119" y="512"/>
      <point x="108" y="512" type="curve"/>
      <point x="98" y="512"/>
      <point x="92" y="508"/>
      <point x="88" y="504" type="curve"/>
      <point x="92" y="488"/>
      <point x="94" y="457"/>
      <point x="94" y="417" type="curve"/>
      <point x="94" y="14" type="line" smooth="yes"/>
      <point x="94" y="0"/>
      <point x="102" y="-8"/>
    </contour>
    <contour>
      <point x="285" y="0" type="move" name="bottom"/>
    </contour>
    <contour>
      <point x="285" y="500" type="move" name="top"/>
    </contour>
  </outline>
</glyph>
<glyph name="Lcaron" format="1">
  <advance width="456"/>
  <unicode hex="013D"/>
  <outline>
    <contour>
      <point x="258" y="607" type="curve"/>
      <point x="280" y="607" type="line"/>
      <point x="286" y="646"/>
      <point x="288" y="685"/>
      <point x="286" y="724" type="curve"/>
      <point x="275" y="727"/>
      <point x="263" y="727"/>
      <point x="252" y="724" type="curve"/>
      <point x="259" y="683"/>
      <point x="261" y="644"/>
    </contour>
    <component base="L"/>
  </outline>
</glyph>
<glyph name="lcaron" format="1">
  <advance width="266"/>
  <unicode hex="013E"/>
  <outline>
    <contour>
      <point x="205" y="606" type="curve"/>
      <point x="227" y="606" type="line"/>
      <point x="233" y="645"/>
      <point x="235" y="684"/>
      <point x="233" y="723" type="curve"/>
      <point x="222" y="726"/>
      <point x="210" y="726"/>
      <point x="199" y="723" type="curve"/>
      <point x="206" y="682"/>
      <point x="208" y="643"/>
    </contour>
    <component base="l"/>
  </outline>
</glyph>
<glyph name="Lslash" format="1">
  <advance width="456"/>
  <unicode hex="0141"/>
  <outline>
    <contour>
      <point x="55" y="169" type="curve"/>
      <point x="277" y="389" type="line"/>
      <point x="274" y="398"/>
      <point x="268" y="404"/>
      <point x="259" y="407" type="curve"/>
      <point x="37" y="186" type="line"/>
      <point x="39" y="176"/>
      <point x="45" y="171"/>
    </contour>
    <component base="L"/>
  </outline>
</glyph>
<glyph name="Eng" format="1">
  <advance width="665"/>
  <unicode hex="014A"/>
  <outline>
    <contour>
      <point x="121" y="-8" type="curve"/>
      <point x="132" y="-8"/>
      <point x="138" y="0"/>
      <point x="138" y="14" type="curve"/>
      <point x="136" y="629" type="line"/>
      <point x="243" y="460"/>
      <point x="473" y="90"/>
      <point x="542" y="-5" type="curve"/>
      <point x="548" y="-7"/>
      <point x="561" y="-6"/>
      <point x="564" y="0" type="curve"/>
      <point x="562" y="673" type="line" smooth="yes"/>
      <point x="562" y="687"/>
      <point x="556" y="695"/>
      <point x="545" y="695" type="curve"/>
      <point x="536" y="695"/>
      <point x="531" y="691"/>
      <point x="527" y="687" type="curve"/>
      <point x="531" y="671"/>
      <point x="533" y="640"/>
      <point x="533" y="600" type="curve"/>
      <point x="535" y="53" type="line"/>
      <point x="423" y="221"/>
      <point x="228" y="547"/>
      <point x="133" y="688" type="curve"/>
      <point x="130" y="691"/>
      <point x="113" y="696"/>
      <point x="101" y="687" type="curve"/>
      <point x="105" y="671"/>
      <point x="107" y="630"/>
      <point x="107" y="590" type="curve"/>
      <point x="109" y="87" type="line" smooth="yes"/>
      <point x="109" y="47"/>
      <point x="107" y="16"/>
      <point x="103" y="0" type="curve"/>
      <point x="107" y="-4"/>
      <point x="112" y="-8"/>
    </contour>
    <contour>
      <point x="564" y="0" type="curve"/>
      <point x="539" y="0" type="line"/>
      <point x="539" y="-146"/>
      <point x="529" y="-202"/>
      <point x="477" y="-202" type="curve"/>
      <point x="449" y="-202"/>
      <point x="430" y="-179"/>
      <point x="430" y="-148" type="curve"/>
      <point x="430" y="-141"/>
      <point x="430" y="-134"/>
      <point x="432" y="-126" type="curve"/>
      <point x="431" y="-126"/>
      <point x="430" y="-126"/>
      <point x="429" y="-126" type="curve"/>
      <point x="411" y="-126"/>
      <point x="405" y="-144"/>
      <point x="405" y="-158" type="curve"/>
      <point x="405" y="-203"/>
      <point x="434" y="-230"/>
      <point x="479" y="-230" type="curve"/>
      <point x="559" y="-230"/>
      <point x="564" y="-146"/>
    </contour>
  </outline>
</glyph>
<glyph name="eng" format="1">
  <advance width="551"/>
  <unicode hex="014B"/>
  <outline>
    <contour>
      <point x="121" y="-8" type="curve"/>
      <point x="130" y="-8"/>
      <point x="135" y="-4"/>
      <point x="139" y="0" type="curve"/>
      <point x="133" y="24"/>
      <point x="133" y="59"/>
      <point x="133" y="247" type="curve"/>
      <point x="133" y="433"/>
      <point x="239" y="484"/>
      <point x="307" y="484" type="curve"/>
      <point x="402" y="484"/>
      <point x="440" y="422"/>
      <point x="441" y="298" type="curve"/>
      <point x="441" y="14" type="line"/>
      <point x="471" y="14" type="line"/>
      <point x="471" y="297" type="line" smooth="yes"/>
      <point x="471" y="437"/>
      <point x="420" y="512"/>
      <point x="310" y="512" type="curve"/>
      <point x="216" y="512"/>
      <point x="128" y="439"/>
      <point x="120" y="319" type="curve"/>
      <point x="133" y="327" type="line"/>
      <point x="133" y="431" type="line" smooth="yes"/>
      <point x="133" y="483"/>
      <point x="117" y="510"/>
      <point x="76" y="510" type="curve"/>
      <point x="52" y="510"/>
      <point x="36" y="501"/>
      <point x="36" y="486" type="curve"/>
      <point x="36" y="479"/>
      <point x="39" y="472"/>
      <point x="46" y="464" type="curve"/>
      <point x="53" y="480"/>
      <point x="65" y="482"/>
      <point x="73" y="482" type="curve"/>
      <point x="94" y="482"/>
      <point x="102" y="469"/>
      <point x="103" y="432" type="curve"/>
      <point x="103" y="14" type="line" smooth="yes"/>
      <point x="103" y="0"/>
      <point x="109" y="-8"/>
    </contour>
    <contour>
      <point x="369" y="-230" type="curve"/>
      <point x="471" y="-230"/>
      <point x="471" y="-139"/>
      <point x="471" y="-77" type="curve"/>
      <point x="471" y="34" type="line"/>
      <point x="441" y="34" type="line"/>
      <point x="442" y="-74" type="line" smooth="yes"/>
      <point x="443" y="-154"/>
      <point x="431" y="-202"/>
      <point x="367" y="-202" type="curve"/>
      <point x="342" y="-202"/>
      <point x="305" y="-196"/>
      <point x="305" y="-148" type="curve"/>
      <point x="305" y="-141"/>
      <point x="305" y="-134"/>
      <point x="307" y="-126" type="curve"/>
      <point x="306" y="-126"/>
      <point x="305" y="-126"/>
      <point x="304" y="-126" type="curve"/>
      <point x="286" y="-126"/>
      <point x="280" y="-144"/>
      <point x="280" y="-158" type="curve"/>
      <point x="280" y="-203"/>
      <point x="311" y="-230"/>
    </contour>
  </outline>
</glyph>
<glyph name="OE" format="1">
  <advance width="869"/>
  <unicode hex="0152"/>
  <outline>
    <contour>
      <point x="475" y="44" type="curve"/>
      <point x="471" y="85" type="line"/>
      <point x="434" y="38"/>
      <point x="383" y="16"/>
      <point x="319" y="16" type="curve"/>
      <point x="183" y="16"/>
      <point x="102" y="118"/>
      <point x="102" y="344" type="curve"/>
      <point x="102" y="570"/>
      <point x="183" y="672"/>
      <point x="319" y="672" type="curve"/>
      <point x="380" y="672"/>
      <point x="430" y="651"/>
      <point x="467" y="608" type="curve"/>
      <point x="470" y="649" type="line"/>
      <point x="431" y="683"/>
      <point x="380" y="700"/>
      <point x="319" y="700" type="curve"/>
      <point x="162" y="700"/>
      <point x="70" y="588"/>
      <point x="70" y="344" type="curve"/>
      <point x="70" y="100"/>
      <point x="162" y="-12"/>
      <point x="319" y="-12" type="curve"/>
      <point x="382" y="-12"/>
      <point x="435" y="6"/>
    </contour>
    <component base="E" xOffset="346"/>
    <contour>
      <point x="28" y="0" type="move" name="bottom"/>
    </contour>
    <contour>
      <point x="37" y="344" type="move" name="center"/>
    </contour>
    <contour>
      <point x="284" y="10" type="move" name="ogonek"/>
    </contour>
    <contour>
      <point x="28" y="688" type="move" name="top"/>
    </contour>
    <contour>
      <point x="-252" y="688" type="move" name="topleft"/>
    </contour>
    <contour>
      <point x="231" y="623" type="move" name="topright"/>
    </contour>
  </outline>
</glyph>
<glyph name="tcaron" format="1">
  <advance width="325"/>
  <unicode hex="0165"/>
  <outline>
    <contour>
      <point x="200" y="673" type="curve"/>
      <point x="211" y="676"/>
      <point x="223" y="676"/>
      <point x="234" y="673" type="curve"/>
      <point x="236" y="634"/>
      <point x="234" y="595"/>
      <point x="228" y="556" type="curve"/>
      <point x="206" y="556" type="line"/>
      <point x="209" y="593"/>
      <point x="207" y="632"/>
    </contour>
    <component base="t"/>
  </outline>
</glyph>
<glyph name="Tbar" format="1">
  <advance width="503"/>
  <unicode hex="0166"/>
  <outline>
    <contour>
      <point x="114" y="354" type="curve"/>
      <point x="391" y="354" type="line"/>
      <point x="393" y="362"/>
      <point x="393" y="371"/>
      <point x="391" y="379" type="curve"/>
      <point x="114" y="379" type="line"/>
      <point x="112" y="371"/>
      <point x="112" y="362"/>
    </contour>
    <component base="T"/>
  </outline>
</glyph>
<glyph name="tbar" format="1">
  <advance width="325"/>
  <unicode hex="0167"/>
  <outline>
    <contour>
      <point x="40" y="357" type="curve"/>
      <point x="269" y="357" type="line"/>
      <point x="273" y="365"/>
      <point x="273" y="374"/>
      <point x="269" y="382" type="curve"/>
      <point x="40" y="382" type="line"/>
      <point x="36" y="374"/>
      <point x="36" y="365"/>
    </contour>
    <component base="t"/>
  </outline>
</glyph>
<glyph name="Schwa" format="1">
  <advance width="596"/>
  <unicode hex="018F"/>
  <outline>
    <contour>
      <point x="268" y="-12" type="curve"/>
      <point x="443" y="-12"/>
      <point x="536" y="127"/>
      <point x="536" y="347" type="curve"/>
      <point x="536" y="582"/>
      <point x="438" y="700"/>
      <point x="276" y="700" type="curve"/>
      <point x="184" y="700"/>
      <point x="104" y="667"/>
      <point x="74" y="596" type="curve"/>
      <point x="62" y="568"/>
      <point x="70" y="558"/>
      <point x="82" y="553" type="curve"/>
      <point x="104" y="637"/>
      <point x="189" y="671"/>
      <point x="273" y="671" type="curve"/>
      <point x="391" y="671"/>
      <point x="504" y="594"/>
      <point x="504" y="343" type="curve"/>
      <point x="504" y="120"/>
      <point x="407" y="15"/>
      <point x="270" y="15" type="curve"/>
      <point x="185" y="15"/>
      <point x="93" y="50"/>
      <point x="93" y="170" type="curve"/>
      <point x="93" y="284"/>
      <point x="161" y="341"/>
      <point x="286" y="341" type="curve"/>
      <point x="356" y="341"/>
      <point x="461" y="336"/>
      <point x="522" y="328" type="curve"/>
      <point x="522" y="353" type="line"/>
      <point x="460" y="359"/>
      <point x="393" y="366"/>
      <point x="298" y="366" type="curve"/>
      <point x="145" y="366"/>
      <point x="61" y="301"/>
      <point x="61" y="170" type="curve"/>
      <point x="61" y="53"/>
      <point x="141" y="-12"/>
    </contour>
  </outline>
</glyph>
<glyph name="Uhorn" format="1">
  <advance width="642"/>
  <unicode hex="01AF"/>
  <outline>
    <component base="U"/>
    <component base="horncomb" xOffset="351" yOffset="190"/>
    <contour>
      <point x="318" y="0" type="move" name="bottom"/>
    </contour>
    <contour>
      <point x="326" y="688" type="move" name="top"/>
    </contour>
  </outline>
</glyph>
<glyph name="uhorn" format="1">
  <advance width="551"/>
  <unicode hex="01B0"/>
  <outline>
    <component base="u"/>
    <component base="horncomb" xOffset="251" yOffset="-10"/>
    <contour>
      <point x="249" y="0" type="move" name="bottom"/>
    </contour>
    <contour>
      <point x="249" y="500" type="move" name="top"/>
    </contour>
  </outline>
</glyph>
<glyph name="schwa" format="1">
  <advance width="497"/>
  <unicode hex="0259"/>
  <outline>
    <contour>
      <point x="221" y="-12" type="curve"/>
      <point x="367" y="-12"/>
      <point x="444" y="92"/>
      <point x="444" y="257" type="curve"/>
      <point x="444" y="427"/>
      <point x="363" y="512"/>
      <point x="229" y="512" type="curve"/>
      <point x="153" y="512"/>
      <point x="87" y="485"/>
      <point x="62" y="428" type="curve"/>
      <point x="50" y="400"/>
      <point x="58" y="390"/>
      <point x="70" y="385" type="curve"/>
      <point x="88" y="455"/>
      <point x="157" y="483"/>
      <point x="226" y="483" type="curve"/>
      <point x="321" y="483"/>
      <point x="412" y="429"/>
      <point x="412" y="253" type="curve"/>
      <point x="412" y="91"/>
      <point x="334" y="15"/>
      <point x="223" y="15" type="curve"/>
      <point x="159" y="15"/>
      <point x="90" y="40"/>
      <point x="90" y="125" type="curve"/>
      <point x="90" y="209"/>
      <point x="158" y="251"/>
      <point x="284" y="251" type="curve"/>
      <point x="327" y="251"/>
      <point x="392" y="246"/>
      <point x="430" y="238" type="curve"/>
      <point x="430" y="263" type="line"/>
      <point x="393" y="269"/>
      <point x="353" y="276"/>
      <point x="296" y="276" type="curve"/>
      <point x="143" y="276"/>
      <point x="59" y="226"/>
      <point x="59" y="125" type="curve"/>
      <point x="59" y="37"/>
      <point x="122" y="-12"/>
    </contour>
  </outline>
</glyph>
<glyph name="apostrophemod" format="1">
  <advance width="600"/>
  <unicode hex="02BC"/>
  <outline>
    <contour>
      <point x="299" y="659" type="curve"/>
      <point x="305" y="542" type="line"/>
      <point x="327" y="542" type="line"/>
      <point x="333" y="659" type="line"/>
      <point x="322" y="662"/>
      <point x="310" y="662"/>
    </contour>
  </outline>
</glyph>
<glyph name="tildecomb" format="1">
  <advance width="371"/>
  <unicode hex="0303"/>
  <outline>
    <contour>
      <point x="247" y="582" type="curve"/>
      <point x="285" y="582"/>
      <point x="313" y="612"/>
      <point x="321" y="651" type="curve"/>
      <point x="316" y="657"/>
      <point x="310" y="660"/>
      <point x="301" y="660" type="curve"/>
      <point x="291" y="633"/>
      <point x="280" y="613"/>
      <point x="252" y="613" type="curve"/>
      <point x="203" y="613"/>
      <point x="186" y="664"/>
      <point x="131" y="664" type="curve"/>
      <point x="95" y="664"/>
      <point x="60" y="642"/>
      <point x="50" y="597" type="curve"/>
      <point x="55" y="591"/>
      <point x="62" y="586"/>
      <point x="69" y="587" type="curve"/>
      <point x="77" y="617"/>
      <point x="102" y="633"/>
      <point x="128" y="633" type="curve"/>
      <point x="175" y="633"/>
      <point x="192" y="582"/>
    </contour>
    <contour>
      <point x="186" y="500" type="move" name="_top"/>
    </contour>
    <contour>
      <point x="190" y="668" type="move" name="top"/>
    </contour>
  </outline>
</glyph>
<glyph name="brevecomb" format="1">
  <advance width="600"/>
  <unicode hex="0306"/>
  <outline>
    <contour>
      <point x="299" y="562" type="curve"/>
      <point x="370" y="562"/>
      <point x="417" y="612"/>
      <point x="431" y="666" type="curve"/>
      <point x="422" y="669"/>
      <point x="413" y="670"/>
      <point x="404" y="671" type="curve"/>
      <point x="395" y="646"/>
      <point x="370" y="592"/>
      <point x="299" y="592" type="curve"/>
      <point x="229" y="592"/>
      <point x="197" y="644"/>
      <point x="186" y="673" type="curve"/>
      <point x="176" y="671"/>
      <point x="168" y="668"/>
      <point x="160" y="662" type="curve"/>
      <point x="169" y="626"/>
      <point x="209" y="562"/>
    </contour>
    <contour>
      <point x="296" y="500" type="move" name="_top"/>
    </contour>
    <contour>
      <point x="296" y="619" type="move" name="top"/>
    </contour>
  </outline>
</glyph>
<glyph name="dotaccentcomb" format="1">
  <advance width="600"/>
  <unicode hex="0307"/>
  <outline>
    <contour>
      <point x="297" y="573" type="curve"/>
      <point x="315" y="573"/>
      <point x="331" y="589"/>
      <point x="331" y="607" type="curve"/>
      <point x="331" y="625"/>
      <point x="315" y="641"/>
      <point x="297" y="641" type="curve"/>
      <point x="279" y="641"/>
      <point x="263" y="625"/>
      <point x="263" y="607" type="curve"/>
      <point x="263" y="589"/>
      <point x="279" y="573"/>
    </contour>
    <contour>
      <point x="299" y="500" type="move" name="_top"/>
    </contour>
    <contour>
      <point x="303" y="0" type="move" name="top"/>
    </contour>
  </outline>
</glyph>
<glyph name="dieresiscomb" format="1">
  <advance width="328"/>
  <unicode hex="0308"/>
  <outline>
    <contour>
      <point x="244" y="587" type="curve"/>
      <point x="262" y="587"/>
      <point x="278" y="603"/>
      <point x="278" y="621" type="curve"/>
      <point x="278" y="639"/>
      <point x="262" y="655"/>
      <point x="244" y="655" type="curve"/>
      <point x="226" y="655"/>
      <point x="210" y="639"/>
      <point x="210" y="621" type="curve"/>
      <point x="210" y="603"/>
      <point x="226" y="587"/>
    </contour>
    <contour>
      <point x="84" y="587" type="curve"/>
      <point x="102" y="587"/>
      <point x="118" y="603"/>
      <point x="118" y="621" type="curve"/>
      <point x="118" y="639"/>
      <point x="102" y="655"/>
      <point x="84" y="655" type="curve"/>
      <point x="66" y="655"/>
      <point x="50" y="639"/>
      <point x="50" y="621" type="curve"/>
      <point x="50" y="603"/>
      <point x="66" y="587"/>
    </contour>
    <contour>
      <point x="161" y="500" type="move" name="_top"/>
    </contour>
    <contour>
      <point x="161" y="612" type="move" name="top"/>
    </contour>
  </outline>
</glyph>
<glyph name="hookabovecomb" format="1">
  <advance width="600"/>
  <unicode hex="0309"/>
  <outline>
    <contour>
      <point x="189" y="551" type="curve"/>
      <point x="198" y="530" type="line"/>
      <point x="259" y="541"/>
      <point x="280" y="563"/>
      <point x="280" y="593" type="curve"/>
      <point x="280" y="640"/>
      <point x="222" y="654"/>
      <point x="171" y="654" type="curve"/>
      <point x="173" y="625" type="line"/>
      <point x="200" y="625"/>
      <point x="245" y="619"/>
      <point x="245" y="591" type="curve"/>
      <point x="245" y="569"/>
      <point x="225" y="560"/>
    </contour>
    <contour>
      <point x="213" y="500" type="move" name="_top"/>
    </contour>
    <contour>
      <point x="229" y="0" type="move" name="top"/>
    </contour>
  </outline>
</glyph>
<glyph name="ringcomb" format="1">
  <advance width="600"/>
  <unicode hex="030A"/>
  <outline>
    <contour>
      <point x="298" y="550" type="curve"/>
      <point x="348" y="550"/>
      <point x="381" y="581"/>
      <point x="382" y="630" type="curve"/>
      <point x="382" y="676"/>
      <point x="350" y="706"/>
      <point x="302" y="706" type="curve"/>
      <point x="252" y="706"/>
      <point x="218" y="675"/>
      <point x="218" y="626" type="curve"/>
      <point x="218" y="580"/>
      <point x="250" y="550"/>
    </contour>
    <contour>
      <point x="300" y="572" type="curve"/>
      <point x="266" y="572"/>
      <point x="244" y="594"/>
      <point x="244" y="628" type="curve"/>
      <point x="244" y="662"/>
      <point x="266" y="684"/>
      <point x="300" y="684" type="curve"/>
      <point x="334" y="684"/>
      <point x="356" y="662"/>
      <point x="356" y="628" type="curve"/>
      <point x="356" y="594"/>
      <point x="334" y="572"/>
    </contour>
    <contour>
      <point x="298" y="500" type="move" name="_top"/>
    </contour>
    <contour>
      <point x="300" y="714" type="move" name="top"/>
    </contour>
  </outline>
</glyph>
<glyph name="caroncomb" format="1">
  <advance width="600"/>
  <unicode hex="030C"/>
  <outline>
    <component base="circumflexcomb" yScale="-1" yOffset="1243"/>
    <contour>
      <point x="299" y="500" type="move" name="_top"/>
    </contour>
    <contour>
      <point x="314" y="789" type="move" name="top"/>
    </contour>
  </outline>
</glyph>
<glyph name="horncomb" format="1">
  <advance width="600"/>
  <unicode hex="031B"/>
  <outline>
    <contour>
      <point x="168" y="503" type="curve"/>
      <point x="177" y="480" type="line"/>
      <point x="228" y="495"/>
      <point x="257" y="520"/>
      <point x="257" y="563" type="curve"/>
      <point x="257" y="580"/>
      <point x="251" y="605"/>
      <point x="234" y="623" type="curve"/>
      <point x="221" y="618"/>
      <point x="209" y="609"/>
      <point x="201" y="602" type="curve"/>
      <point x="217" y="583"/>
      <point x="219" y="566"/>
      <point x="219" y="557" type="curve"/>
      <point x="219" y="532"/>
      <point x="204" y="516"/>
    </contour>
    <contour>
      <point x="196" y="500" type="move" name="_topright"/>
    </contour>
    <contour>
      <point x="195" y="500" type="move" name="topright"/>
    </contour>
  </outline>
</glyph>
<glyph name="dotbelowcomb" format="1">
  <advance width="600"/>
  <unicode hex="0323"/>
  <outline>
    <contour>
      <point x="300" y="-113" type="curve"/>
      <point x="318" y="-113"/>
      <point x="334" y="-97"/>
      <point x="334" y="-79" type="curve"/>
      <point x="334" y="-61"/>
      <point x="318" y="-45"/>
      <point x="300" y="-45" type="curve"/>
      <point x="282" y="-45"/>
      <point x="266" y="-61"/>
      <point x="266" y="-79" type="curve"/>
      <point x="266" y="-97"/>
      <point x="282" y="-113"/>
    </contour>
    <contour>
      <point x="297" y="0" type="move" name="_bottom"/>
    </contour>
    <contour>
      <point x="303" y="0" type="move" name="bottom"/>
    </contour>
  </outline>
</glyph>
<glyph name="commaaccentcomb" format="1">
  <advance width="600"/>
  <unicode hex="0326"/>
  <outline>
    <contour>
      <point x="286" y="-180" type="curve"/>
      <point x="333" y="-142"/>
      <point x="343" y="-106"/>
      <point x="343" y="-81" type="curve"/>
      <point x="343" y="-41"/>
      <point x="319" y="-34"/>
      <point x="304" y="-34" type="curve"/>
      <point x="277" y="-34"/>
      <point x="267" y="-58"/>
      <point x="267" y="-68" type="curve"/>
      <point x="282" y="-74"/>
      <point x="294" y="-84"/>
      <point x="294" y="-109" type="curve"/>
      <point x="294" y="-130"/>
      <point x="286" y="-147"/>
      <point x="268" y="-166" type="curve"/>
      <point x="271" y="-171"/>
      <point x="276" y="-177"/>
    </contour>
    <contour>
      <point x="298" y="0" type="move" name="_bottom"/>
    </contour>
    <contour>
      <point x="234" y="0" type="move" name="bottom"/>
    </contour>
  </outline>
</glyph>
<glyph name="cedillacomb" format="1">
  <advance width="600"/>
  <unicode hex="0327"/>
  <outline>
    <contour>
      <point x="292" y="-189" type="curve"/>
      <point x="340" y="-189"/>
      <point x="378" y="-159"/>
      <point x="378" y="-111" type="curve"/>
      <point x="378" y="-70"/>
      <point x="350" y="-41"/>
      <point x="298" y="-41" type="curve"/>
      <point x="307" y="0" type="line"/>
      <point x="277" y="0" type="line"/>
      <point x="263" y="-65" type="line"/>
      <point x="329" y="-60"/>
      <point x="345" y="-84"/>
      <point x="345" y="-113" type="curve"/>
      <point x="345" y="-146"/>
      <point x="321" y="-161"/>
      <point x="288" y="-161" type="curve"/>
      <point x="252" y="-161"/>
      <point x="236" y="-147"/>
      <point x="226" y="-139" type="curve"/>
      <point x="220" y="-143"/>
      <point x="213" y="-153"/>
      <point x="214" y="-161" type="curve"/>
      <point x="228" y="-176"/>
      <point x="252" y="-189"/>
    </contour>
    <contour>
      <point x="294" y="0" type="move" name="_bottom"/>
    </contour>
    <contour>
      <point x="296" y="-189" type="move" name="bottom"/>
    </contour>
  </outline>
</glyph>
<glyph name="ypogegrammeni" format="1">
  <advance width="301"/>
  <unicode hex="037A"/>
  <outline>
    <contour>
      <point x="160" y="-230" type="curve"/>
      <point x="177" y="-230"/>
      <point x="196" y="-220"/>
      <point x="196" y="-202" type="curve"/>
      <point x="196" y="-196"/>
      <point x="194" y="-189"/>
      <point x="187" y="-181" type="curve"/>
      <point x="182" y="-199"/>
      <point x="170" y="-204"/>
      <point x="161" y="-204" type="curve"/>
      <point x="141" y="-204"/>
      <point x="134" y="-187"/>
      <point x="135" y="-149" type="curve"/>
      <point x="135" y="-78" type="line" smooth="yes"/>
      <point x="135" y="-64"/>
      <point x="130" y="-56"/>
      <point x="120" y="-56" type="curve"/>
      <point x="111" y="-56"/>
      <point x="106" y="-60"/>
      <point x="102" y="-64" type="curve"/>
      <point x="106" y="-80"/>
      <point x="106" y="-113"/>
      <point x="106" y="-153" type="curve"/>
      <point x="106" y="-201"/>
      <point x="118" y="-230"/>
    </contour>
    <contour>
      <point x="118" y="0" type="move" name="_bottom"/>
    </contour>
  </outline>
</glyph>
<glyph name="tonos" format="1">
  <advance width="207"/>
  <unicode hex="0384"/>
  <outline>
    <contour>
      <point x="86" y="557" type="curve"/>
      <point x="150" y="719" type="line"/>
      <point x="139" y="728"/>
      <point x="129" y="731"/>
      <point x="114" y="732" type="curve"/>
      <point x="63" y="562" type="line"/>
      <point x="65" y="557"/>
      <point x="80" y="556"/>
    </contour>
    <contour>
      <point x="72" y="500" type="move" name="_top"/>
    </contour>
    <contour>
      <point x="118" y="688" type="move" name="top"/>
    </contour>
  </outline>
</glyph>
<glyph name="dieresistonos" format="1">
  <advance width="321"/>
  <unicode hex="0385"/>
  <outline>
    <contour>
      <point x="165" y="589" type="curve"/>
      <point x="202" y="743" type="line"/>
      <point x="190" y="750"/>
      <point x="179" y="752"/>
      <point x="162" y="752" type="curve"/>
      <point x="142" y="594" type="line"/>
      <point x="144" y="589"/>
      <point x="159" y="588"/>
    </contour>
    <contour>
      <point x="81" y="587" type="curve"/>
      <point x="101" y="587"/>
      <point x="111" y="604"/>
      <point x="111" y="623" type="curve"/>
      <point x="111" y="642"/>
      <point x="101" y="659"/>
      <point x="81" y="659" type="curve"/>
      <point x="61" y="659"/>
      <point x="50" y="642"/>
      <point x="50" y="623" type="curve"/>
      <point x="50" y="604"/>
      <point x="61" y="587"/>
    </contour>
    <contour>
      <point x="241" y="587" type="curve"/>
      <point x="261" y="587"/>
      <point x="271" y="604"/>
      <point x="271" y="623" type="curve"/>
      <point x="271" y="642"/>
      <point x="261" y="659"/>
      <point x="241" y="659" type="curve"/>
      <point x="221" y="659"/>
      <point x="210" y="642"/>
      <point x="210" y="623" type="curve"/>
      <point x="210" y="604"/>
      <point x="221" y="587"/>
    </contour>
    <contour>
      <point x="158" y="500" type="move" name="_top"/>
    </contour>
  </outline>
</glyph>
<glyph name="Alpha" format="1">
  <advance width="562"/>
  <unicode hex="0391"/>
  <outline>
    <component base="A"/>
    <contour>
      <point x="207" y="688" type="move" name="topleft"/>
    </contour>
  </outline>
</glyph>
<glyph name="Eta" format="1">
  <advance width="662"/>
  <unicode hex="0397"/>
  <outline>
    <component base="H"/>
    <contour>
      <point x="85" y="688" type="move" name="topleft"/>
    </contour>
  </outline>
</glyph>
<glyph name="Iota" format="1">
  <advance width="245"/>
  <unicode hex="0399"/>
  <outline>
    <component base="I"/>
    <contour>
      <point x="57" y="688" type="move" name="topleft"/>
    </contour>
  </outline>
</glyph>
<glyph name="Omicron" format="1">
  <advance width="638"/>
  <unicode hex="039F"/>
  <outline>
    <component base="O"/>
    <contour>
      <point x="112" y="688" type="move" name="topleft"/>
    </contour>
  </outline>
</glyph>
<glyph name="Pi" format="1">
  <advance width="652"/>
  <unicode hex="03A0"/>
  <outline>
    <contour>
      <point x="126" y="-12" type="curve"/>
      <point x="135" y="-12"/>
      <point x="140" y="-8"/>
      <point x="144" y="-4" type="curve"/>
      <point x="140" y="12"/>
      <point x="138" y="43"/>
      <point x="138" y="83" type="curve"/>
      <point x="138" y="662" type="line"/>
      <point x="514" y="662" type="line"/>
      <point x="514" y="10" type="line" smooth="yes"/>
      <point x="514" y="-4"/>
      <point x="520" y="-12"/>
      <point x="531" y="-12" type="curve"/>
      <point x="540" y="-12"/>
      <point x="545" y="-8"/>
      <point x="549" y="-4" type="curve"/>
      <point x="545" y="12"/>
      <point x="543" y="43"/>
      <point x="543" y="83" type="curve"/>
      <point x="545" y="600" type="line" smooth="yes"/>
      <point x="545" y="640"/>
      <point x="547" y="671"/>
      <point x="551" y="687" type="curve"/>
      <point x="539" y="688"/>
      <point x="526" y="688"/>
      <point x="518" y="688" type="curve"/>
      <point x="134" y="688" type="line" smooth="yes"/>
      <point x="126" y="688"/>
      <point x="113" y="688"/>
      <point x="101" y="687" type="curve"/>
      <point x="105" y="671"/>
      <point x="107" y="640"/>
      <point x="107" y="600" type="curve"/>
      <point x="109" y="10" type="line" smooth="yes"/>
      <point x="109" y="-4"/>
      <point x="115" y="-12"/>
    </contour>
    <contour>
      <point x="40" y="688" type="move" name="topleft"/>
    </contour>
  </outline>
</glyph>
<glyph name="Rho" format="1">
  <advance width="535"/>
  <unicode hex="03A1"/>
  <outline>
    <component base="P"/>
    <contour>
      <point x="57" y="687" type="move" name="topleft"/>
    </contour>
  </outline>
</glyph>
<glyph name="Sigma" format="1">
  <advance width="463"/>
  <unicode hex="03A3"/>
  <outline>
    <contour>
      <point x="66" y="0" type="curve"/>
      <point x="393" y="0" type="line" smooth="yes"/>
      <point x="405" y="0"/>
      <point x="403" y="22"/>
      <point x="393" y="26" type="curve"/>
      <point x="288" y="26"/>
      <point x="174" y="25"/>
      <point x="69" y="25" type="curve"/>
      <point x="76" y="13" type="line"/>
      <point x="277" y="351" type="line"/>
      <point x="68" y="673" type="line"/>
      <point x="67" y="662" type="line"/>
      <point x="171" y="662"/>
      <point x="276" y="662"/>
      <point x="380" y="662" type="curve"/>
      <point x="391" y="665"/>
      <point x="397" y="688"/>
      <point x="383" y="688" type="curve"/>
      <point x="59" y="688" type="line" smooth="yes"/>
      <point x="49" y="688"/>
      <point x="38" y="673"/>
      <point x="41" y="663" type="curve"/>
      <point x="256" y="332" type="line"/>
      <point x="251" y="362" type="line"/>
      <point x="51" y="25" type="line"/>
      <point x="49" y="15"/>
      <point x="57" y="0"/>
    </contour>
    <contour>
      <point x="230" y="698" type="move" name="top"/>
    </contour>
  </outline>
</glyph>
<glyph name="Upsilon" format="1">
  <advance width="573"/>
  <unicode hex="03A5"/>
  <outline>
    <contour>
      <point x="285" y="-8" type="curve"/>
      <point x="294" y="-8"/>
      <point x="299" y="-4"/>
      <point x="303" y="0" type="curve"/>
      <point x="299" y="16"/>
      <point x="295" y="45"/>
      <point x="295" y="82" type="curve"/>
      <point x="295" y="140" type="line" smooth="yes"/>
      <point x="295" y="229"/>
      <point x="357" y="370"/>
      <point x="377" y="415" type="curve"/>
      <point x="452" y="587" type="line" smooth="yes"/>
      <point x="473" y="635"/>
      <point x="486" y="665"/>
      <point x="516" y="665" type="curve"/>
      <point x="529" y="665"/>
      <point x="541" y="658"/>
      <point x="546" y="644" type="curve"/>
      <point x="554" y="647"/>
      <point x="558" y="652"/>
      <point x="558" y="662" type="curve"/>
      <point x="558" y="676"/>
      <point x="541" y="695"/>
      <point x="513" y="695" type="curve"/>
      <point x="471" y="695"/>
      <point x="450" y="658"/>
      <point x="427" y="603" type="curve"/>
      <point x="351" y="423" type="line" smooth="yes"/>
      <point x="332" y="378"/>
      <point x="275" y="257"/>
      <point x="275" y="178" type="curve"/>
      <point x="286" y="178" type="line"/>
      <point x="286" y="247"/>
      <point x="271" y="276"/>
      <point x="230" y="381" type="curve"/>
      <point x="142" y="603" type="line" smooth="yes"/>
      <point x="120" y="659"/>
      <point x="102" y="695"/>
      <point x="60" y="695" type="curve"/>
      <point x="32" y="695"/>
      <point x="15" y="676"/>
      <point x="15" y="662" type="curve"/>
      <point x="15" y="652"/>
      <point x="19" y="647"/>
      <point x="27" y="644" type="curve"/>
      <point x="32" y="658"/>
      <point x="44" y="665"/>
      <point x="57" y="665" type="curve"/>
      <point x="87" y="665"/>
      <point x="99" y="631"/>
      <point x="117" y="587" type="curve"/>
      <point x="205" y="368" type="line" smooth="yes"/>
      <point x="248" y="260"/>
      <point x="267" y="199"/>
      <point x="267" y="140" type="curve"/>
      <point x="267" y="14" type="line" smooth="yes"/>
      <point x="267" y="0"/>
      <point x="274" y="-8"/>
    </contour>
    <contour>
      <point x="284" y="688" type="move" name="top"/>
    </contour>
    <contour>
      <point x="-15" y="688" type="move" name="topleft"/>
    </contour>
  </outline>
</glyph>
<glyph name="Phi" format="1">
  <advance width="751"/>
  <unicode hex="03A6"/>
  <outline>
    <contour>
      <point x="377" y="108" type="curve"/>
      <point x="584" y="109"/>
      <point x="711" y="189"/>
      <point x="711" y="354" type="curve"/>
      <point x="711" y="522"/>
      <point x="579" y="600"/>
      <point x="376" y="600" type="curve"/>
      <point x="164" y="600"/>
      <point x="40" y="517"/>
      <point x="40" y="354" type="curve"/>
      <point x="40" y="185"/>
      <point x="174" y="107"/>
    </contour>
    <contour>
      <point x="380" y="136" type="curve"/>
      <point x="375" y="136" type="line"/>
      <point x="195" y="136"/>
      <point x="72" y="204"/>
      <point x="72" y="354" type="curve"/>
      <point x="72" y="504"/>
      <point x="195" y="572"/>
      <point x="374" y="572" type="curve"/>
      <point x="378" y="572" type="line" smooth="yes"/>
      <point x="557" y="572"/>
      <point x="679" y="503"/>
      <point x="679" y="354" type="curve"/>
      <point x="679" y="205"/>
      <point x="557" y="136"/>
    </contour>
    <component base="I" xOffset="253"/>
    <contour>
      <point x="91" y="688" type="move" name="topleft"/>
    </contour>
  </outline>
</glyph>
<glyph name="Omega" format="1">
  <advance width="618"/>
  <unicode hex="03A9"/>
  <outline>
    <contour>
      <point x="255" y="0" type="curve"/>
      <point x="255" y="28" type="line"/>
      <point x="174" y="57"/>
      <point x="92" y="181"/>
      <point x="92" y="374" type="curve"/>
      <point x="92" y="569"/>
      <point x="183" y="672"/>
      <point x="309" y="672" type="curve"/>
      <point x="435" y="672"/>
      <point x="526" y="570"/>
      <point x="526" y="374" type="curve"/>
      <point x="526" y="181"/>
      <point x="465" y="57"/>
      <point x="363" y="28" type="curve"/>
      <point x="363" y="0" type="line"/>
      <point x="485" y="23"/>
      <point x="558" y="170"/>
      <point x="558" y="374" type="curve"/>
      <point x="558" y="587"/>
      <point x="456" y="700"/>
      <point x="309" y="700" type="curve"/>
      <point x="162" y="700"/>
      <point x="60" y="587"/>
      <point x="60" y="374" type="curve"/>
      <point x="60" y="169"/>
      <point x="154" y="23"/>
    </contour>
    <contour>
      <point x="47" y="0" type="curve"/>
      <point x="255" y="0" type="line"/>
      <point x="255" y="22" type="line"/>
      <point x="33" y="27" type="line"/>
      <point x="26" y="14"/>
      <point x="32" y="0"/>
    </contour>
    <contour>
      <point x="363" y="22" type="line"/>
      <point x="363" y="0" type="line"/>
      <point x="571" y="0" type="line" smooth="yes"/>
      <point x="586" y="0"/>
      <point x="592" y="14"/>
      <point x="585" y="27" type="curve"/>
    </contour>
    <contour>
      <point x="309" y="0" type="move" name="bottom"/>
    </contour>
    <contour>
      <point x="72" y="688" type="move" name="topleft"/>
    </contour>
  </outline>
</glyph>
<glyph name="beta" format="1">
  <advance width="544"/>
  <unicode hex="03B2"/>
  <outline>
    <contour>
      <point x="117" y="-230" type="curve"/>
      <point x="125" y="-230"/>
      <point x="132" y="-224"/>
      <point x="133" y="-221" type="curve"/>
      <point x="126" y="-208"/>
      <point x="125" y="-177"/>
      <point x="125" y="-149" type="curve"/>
      <point x="125" y="499" type="line" smooth="yes"/>
      <point x="125" y="654"/>
      <point x="202" y="700"/>
      <point x="278" y="700" type="curve"/>
      <point x="372" y="700"/>
      <point x="406" y="629"/>
      <point x="406" y="568" type="curve"/>
      <point x="406" y="474"/>
      <point x="345" y="407"/>
      <point x="278" y="385" type="curve"/>
      <point x="323" y="378" type="line"/>
      <point x="397" y="416"/>
      <point x="439" y="488"/>
      <point x="439" y="567" type="curve"/>
      <point x="439" y="669"/>
      <point x="366" y="728"/>
      <point x="277" y="728" type="curve"/>
      <point x="186" y="728"/>
      <point x="95" y="668"/>
      <point x="95" y="513" type="curve"/>
      <point x="95" y="-176" type="line" smooth="yes"/>
      <point x="95" y="-210"/>
      <point x="97" y="-230"/>
    </contour>
    <contour>
      <point x="293" y="-12" type="curve"/>
      <point x="433" y="-12"/>
      <point x="491" y="95"/>
      <point x="491" y="191" type="curve"/>
      <point x="491" y="305"/>
      <point x="409" y="384"/>
      <point x="288" y="390" type="curve"/>
      <point x="285" y="365" type="line"/>
      <point x="387" y="360"/>
      <point x="459" y="287"/>
      <point x="459" y="185" type="curve"/>
      <point x="459" y="87"/>
      <point x="386" y="13"/>
      <point x="291" y="13" type="curve"/>
      <point x="200" y="13"/>
      <point x="150" y="63"/>
      <point x="120" y="100" type="curve"/>
      <point x="119" y="58" type="line"/>
      <point x="158" y="19"/>
      <point x="205" y="-12"/>
    </contour>
    <contour>
      <point x="220" y="347" type="curve"/>
      <point x="249" y="347"/>
      <point x="269" y="355"/>
      <point x="299" y="368" type="curve"/>
      <point x="299" y="391" type="line"/>
      <point x="266" y="393"/>
      <point x="230" y="391"/>
      <point x="192" y="382" type="curve"/>
      <point x="190" y="376"/>
      <point x="189" y="372"/>
      <point x="189" y="367" type="curve"/>
      <point x="189" y="353"/>
      <point x="200" y="347"/>
    </contour>
  </outline>
</glyph>
<glyph name="gamma" format="1">
  <advance width="526"/>
  <unicode hex="03B3"/>
  <outline>
    <contour>
      <point x="288" y="0" type="curve"/>
      <point x="274" y="23" type="line"/>
      <point x="258" y="-13"/>
      <point x="256" y="-128"/>
      <point x="252" y="-211" type="curve"/>
      <point x="261" y="-219"/>
      <point x="266" y="-224"/>
      <point x="280" y="-224" type="curve"/>
      <point x="291" y="-201"/>
      <point x="298" y="-151"/>
      <point x="298" y="-107" type="curve"/>
      <point x="298" y="-75"/>
      <point x="297" y="-33"/>
    </contour>
    <contour>
      <point x="265" y="-41" type="curve"/>
      <point x="291" y="-29" type="line"/>
      <point x="299" y="-12"/>
      <point x="312" y="17"/>
      <point x="324" y="42" type="curve"/>
      <point x="381" y="162"/>
      <point x="466" y="347"/>
      <point x="466" y="499" type="curve"/>
      <point x="466" y="505"/>
      <point x="464" y="518"/>
      <point x="447" y="518" type="curve"/>
      <point x="440" y="518"/>
      <point x="435" y="515"/>
      <point x="433" y="514" type="curve"/>
      <point x="434" y="512"/>
      <point x="435" y="503"/>
      <point x="435" y="497" type="curve"/>
      <point x="435" y="321"/>
      <point x="295" y="55"/>
      <point x="272" y="3" type="curve"/>
      <point x="281" y="5" type="line"/>
      <point x="124" y="451" type="line" smooth="yes"/>
      <point x="109" y="494"/>
      <point x="82" y="512"/>
      <point x="55" y="512" type="curve"/>
      <point x="15" y="512"/>
      <point x="5" y="485"/>
      <point x="5" y="474" type="curve"/>
      <point x="5" y="464"/>
      <point x="11" y="457"/>
      <point x="16" y="455" type="curve"/>
      <point x="21" y="468"/>
      <point x="32" y="483"/>
      <point x="53" y="483" type="curve"/>
      <point x="70" y="483"/>
      <point x="85" y="471"/>
      <point x="97" y="437" type="curve"/>
      <point x="214" y="103" type="line" smooth="yes"/>
      <point x="226" y="69"/>
      <point x="251" y="-2"/>
    </contour>
  </outline>
</glyph>
<glyph name="delta" format="1">
  <advance width="539"/>
  <unicode hex="03B4"/>
  <outline>
    <contour>
      <point x="267" y="-12" type="curve"/>
      <point x="402" y="-12"/>
      <point x="481" y="85"/>
      <point x="481" y="250" type="curve"/>
      <point x="481" y="351"/>
      <point x="441" y="446"/>
      <point x="333" y="502" type="curve"/>
      <point x="236" y="552" type="line" smooth="yes"/>
      <point x="184" y="579"/>
      <point x="151" y="606"/>
      <point x="151" y="643" type="curve"/>
      <point x="151" y="688"/>
      <point x="203" y="700"/>
      <point x="251" y="700" type="curve"/>
      <point x="330" y="700"/>
      <point x="416" y="654"/>
      <point x="422" y="573" type="curve"/>
      <point x="425" y="570"/>
      <point x="430" y="568"/>
      <point x="435" y="568" type="curve"/>
      <point x="446" y="568"/>
      <point x="451" y="576"/>
      <point x="451" y="584" type="curve"/>
      <point x="451" y="668"/>
      <point x="345" y="728"/>
      <point x="251" y="728" type="curve"/>
      <point x="213" y="728"/>
      <point x="119" y="723"/>
      <point x="119" y="640" type="curve"/>
      <point x="119" y="584"/>
      <point x="178" y="548"/>
      <point x="218" y="528" type="curve"/>
      <point x="317" y="479" type="line" smooth="yes"/>
      <point x="413" y="432"/>
      <point x="449" y="346"/>
      <point x="449" y="250" type="curve"/>
      <point x="449" y="103"/>
      <point x="381" y="16"/>
      <point x="267" y="16" type="curve"/>
      <point x="153" y="16"/>
      <point x="85" y="103"/>
      <point x="85" y="250" type="curve"/>
      <point x="85" y="397"/>
      <point x="162" y="489"/>
      <point x="304" y="489" type="curve"/>
      <point x="279" y="512" type="line"/>
      <point x="149" y="512"/>
      <point x="53" y="415"/>
      <point x="53" y="250" type="curve"/>
      <point x="53" y="85"/>
      <point x="132" y="-12"/>
    </contour>
  </outline>
</glyph>
<glyph name="epsilon" format="1">
  <advance width="450"/>
  <unicode hex="03B5"/>
  <outline>
    <contour>
      <point x="195" y="252" type="curve"/>
      <point x="195" y="231" type="line"/>
      <point x="219" y="228"/>
      <point x="252" y="223"/>
      <point x="296" y="223" type="curve"/>
      <point x="320" y="223"/>
      <point x="329" y="236"/>
      <point x="329" y="247" type="curve"/>
      <point x="329" y="251"/>
      <point x="328" y="254"/>
      <point x="326" y="257" type="curve"/>
      <point x="284" y="256"/>
      <point x="244" y="255"/>
    </contour>
    <contour>
      <point x="214" y="230" type="curve"/>
      <point x="214" y="250" type="line"/>
      <point x="153" y="270"/>
      <point x="92" y="310"/>
      <point x="92" y="375" type="curve"/>
      <point x="92" y="435"/>
      <point x="153" y="484"/>
      <point x="246" y="484" type="curve"/>
      <point x="329" y="484"/>
      <point x="375" y="453"/>
      <point x="375" y="419" type="curve"/>
      <point x="375" y="401"/>
      <point x="370" y="389"/>
      <point x="346" y="375" type="curve"/>
      <point x="353" y="368"/>
      <point x="360" y="365"/>
      <point x="367" y="365" type="curve"/>
      <point x="387" y="365"/>
      <point x="405" y="388"/>
      <point x="405" y="419" type="curve"/>
      <point x="405" y="471"/>
      <point x="355" y="512"/>
      <point x="250" y="512" type="curve"/>
      <point x="137" y="512"/>
      <point x="60" y="454"/>
      <point x="60" y="372" type="curve"/>
      <point x="60" y="309"/>
      <point x="106" y="258"/>
      <point x="187" y="232" type="curve"/>
      <point x="187" y="251" type="line"/>
      <point x="89" y="223"/>
      <point x="40" y="181"/>
      <point x="40" y="115" type="curve"/>
      <point x="40" y="41"/>
      <point x="115" y="-12"/>
      <point x="244" y="-12" type="curve"/>
      <point x="370" y="-12"/>
      <point x="445" y="43"/>
      <point x="445" y="97" type="curve"/>
      <point x="445" y="103"/>
      <point x="442" y="111"/>
      <point x="431" y="115" type="curve"/>
      <point x="405" y="32"/>
      <point x="320" y="16"/>
      <point x="239" y="16" type="curve"/>
      <point x="145" y="16"/>
      <point x="72" y="50"/>
      <point x="72" y="118" type="curve"/>
      <point x="72" y="183"/>
      <point x="143" y="217"/>
    </contour>
    <contour>
      <point x="242" y="500" type="move" name="top"/>
    </contour>
  </outline>
</glyph>
<glyph name="zeta" format="1">
  <advance width="394"/>
  <unicode hex="03B6"/>
  <outline>
    <contour>
      <point x="332" y="-187" type="curve"/>
      <point x="364" y="-187"/>
      <point x="396" y="-155"/>
      <point x="396" y="-105" type="curve"/>
      <point x="396" y="-27"/>
      <point x="302" y="-5"/>
      <point x="273" y="6" type="curve"/>
      <point x="229" y="22" type="line" smooth="yes"/>
      <point x="200" y="32"/>
      <point x="112" y="57"/>
      <point x="112" y="191" type="curve"/>
      <point x="112" y="357"/>
      <point x="284" y="596"/>
      <point x="396" y="664" type="curve"/>
      <point x="434" y="687" type="line"/>
      <point x="433" y="698"/>
      <point x="426" y="711"/>
      <point x="408" y="711" type="curve"/>
      <point x="386" y="711"/>
      <point x="374" y="690"/>
      <point x="327" y="672" type="curve"/>
      <point x="292" y="658"/>
      <point x="254" y="652"/>
      <point x="221" y="652" type="curve"/>
      <point x="135" y="652"/>
      <point x="113" y="701"/>
      <point x="102" y="737" type="curve"/>
      <point x="91" y="733"/>
      <point x="88" y="726"/>
      <point x="88" y="718" type="curve"/>
      <point x="88" y="672"/>
      <point x="138" y="623"/>
      <point x="218" y="623" type="curve"/>
      <point x="276" y="623"/>
      <point x="330" y="642"/>
      <point x="365" y="659" type="curve"/>
      <point x="372" y="679" type="line"/>
      <point x="215" y="575"/>
      <point x="80" y="332"/>
      <point x="80" y="186" type="curve"/>
      <point x="80" y="35"/>
      <point x="192" y="5"/>
      <point x="217" y="-4" type="curve"/>
      <point x="266" y="-21" type="line" smooth="yes"/>
      <point x="307" y="-35"/>
      <point x="364" y="-51"/>
      <point x="364" y="-105" type="curve"/>
      <point x="364" y="-153"/>
      <point x="324" y="-173"/>
      <point x="310" y="-174" type="curve"/>
      <point x="312" y="-183"/>
      <point x="321" y="-187"/>
    </contour>
  </outline>
</glyph>
<glyph name="eta" format="1">
  <advance width="578"/>
  <unicode hex="03B7"/>
  <outline>
    <contour>
      <point x="478" y="-230" type="curve"/>
      <point x="486" y="-230"/>
      <point x="493" y="-224"/>
      <point x="494" y="-221" type="curve"/>
      <point x="487" y="-208"/>
      <point x="486" y="-177"/>
      <point x="486" y="-149" type="curve"/>
      <point x="486" y="330" type="line" smooth="yes"/>
      <point x="486" y="468"/>
      <point x="436" y="512"/>
      <point x="353" y="512" type="curve"/>
      <point x="275" y="512"/>
      <point x="185" y="453"/>
      <point x="137" y="313" type="curve"/>
      <point x="149" y="307" type="line"/>
      <point x="161" y="473"/>
      <point x="135" y="512"/>
      <point x="83" y="512" type="curve"/>
      <point x="62" y="512"/>
      <point x="36" y="501"/>
      <point x="36" y="480" type="curve"/>
      <point x="36" y="472"/>
      <point x="40" y="465"/>
      <point x="45" y="460" type="curve"/>
      <point x="50" y="473"/>
      <point x="62" y="484"/>
      <point x="81" y="484" type="curve"/>
      <point x="132" y="484"/>
      <point x="122" y="391"/>
      <point x="122" y="260" type="curve"/>
      <point x="121" y="41" type="line" smooth="yes"/>
      <point x="121" y="8"/>
      <point x="123" y="-12"/>
      <point x="142" y="-12" type="curve"/>
      <point x="150" y="-12"/>
      <point x="155" y="-8"/>
      <point x="159" y="-3" type="curve"/>
      <point x="155" y="6"/>
      <point x="151" y="23"/>
      <point x="151" y="56" type="curve"/>
      <point x="151" y="249" type="line"/>
      <point x="151" y="316"/>
      <point x="229" y="484"/>
      <point x="353" y="484" type="curve"/>
      <point x="436" y="484"/>
      <point x="456" y="423"/>
      <point x="456" y="338" type="curve"/>
      <point x="456" y="-176" type="line" smooth="yes"/>
      <point x="456" y="-210"/>
      <point x="458" y="-230"/>
    </contour>
    <contour>
      <point x="307" y="500" type="move" name="top"/>
    </contour>
  </outline>
</glyph>
<glyph name="theta" format="1">
  <advance width="572"/>
  <unicode hex="03B8"/>
  <outline>
    <contour>
      <point x="291" y="-12" type="curve"/>
      <point x="425" y="-12"/>
      <point x="502" y="126"/>
      <point x="502" y="359" type="curve"/>
      <point x="502" y="591"/>
      <point x="411" y="728"/>
      <point x="291" y="728" type="curve"/>
      <point x="162" y="728"/>
      <point x="80" y="591"/>
      <point x="80" y="359" type="curve"/>
      <point x="80" y="126"/>
      <point x="157" y="-12"/>
    </contour>
    <contour>
      <point x="291" y="16" type="curve"/>
      <point x="179" y="16"/>
      <point x="111" y="132"/>
      <point x="111" y="359" type="curve"/>
      <point x="111" y="586"/>
      <point x="189" y="700"/>
      <point x="289" y="700" type="curve"/>
      <point x="389" y="700"/>
      <point x="470" y="586"/>
      <point x="470" y="359" type="curve"/>
      <point x="470" y="132"/>
      <point x="403" y="16"/>
    </contour>
    <contour>
      <point x="91" y="360" type="curve"/>
      <point x="97" y="354"/>
      <point x="97" y="345"/>
      <point x="103" y="334" type="curve"/>
      <point x="261" y="336"/>
      <point x="346" y="334"/>
      <point x="479" y="335" type="curve"/>
      <point x="475" y="362" type="line"/>
      <point x="336" y="358"/>
      <point x="246" y="358"/>
    </contour>
  </outline>
</glyph>
<glyph name="iota" format="1">
  <advance width="271"/>
  <unicode hex="03B9"/>
  <outline>
    <contour>
      <point x="173" y="-12" type="curve"/>
      <point x="195" y="-12"/>
      <point x="221" y="0"/>
      <point x="221" y="22" type="curve"/>
      <point x="221" y="28"/>
      <point x="219" y="35"/>
      <point x="212" y="43" type="curve"/>
      <point x="204" y="26"/>
      <point x="194" y="16"/>
      <point x="174" y="16" type="curve"/>
      <point x="151" y="16"/>
      <point x="136" y="32"/>
      <point x="136" y="69" type="curve"/>
      <point x="136" y="490" type="line" smooth="yes"/>
      <point x="136" y="504"/>
      <point x="130" y="512"/>
      <point x="118" y="512" type="curve"/>
      <point x="109" y="512"/>
      <point x="104" y="508"/>
      <point x="100" y="504" type="curve"/>
      <point x="104" y="488"/>
      <point x="106" y="457"/>
      <point x="106" y="417" type="curve"/>
      <point x="106" y="71" type="line" smooth="yes"/>
      <point x="106" y="21"/>
      <point x="126" y="-12"/>
    </contour>
    <contour>
      <point x="118" y="500" type="move" name="top"/>
    </contour>
  </outline>
</glyph>
<glyph name="kappa" format="1">
  <advance width="520"/>
  <unicode hex="03BA"/>
  <outline>
    <contour>
      <point x="99" y="-8" type="curve"/>
      <point x="108" y="-8"/>
      <point x="113" y="-4"/>
      <point x="117" y="0" type="curve"/>
      <point x="114" y="7"/>
      <point x="111" y="16"/>
      <point x="111" y="25" type="curve"/>
      <point x="111" y="67"/>
      <point x="132" y="103"/>
      <point x="160" y="140" type="curve"/>
      <point x="299" y="337" type="line" smooth="yes"/>
      <point x="353" y="409"/>
      <point x="399" y="477"/>
      <point x="431" y="477" type="curve"/>
      <point x="436" y="477"/>
      <point x="439" y="475"/>
      <point x="442" y="472" type="curve"/>
      <point x="446" y="475"/>
      <point x="450" y="480"/>
      <point x="450" y="488" type="curve"/>
      <point x="450" y="496"/>
      <point x="445" y="506"/>
      <point x="429" y="506" type="curve"/>
      <point x="385" y="506"/>
      <point x="348" y="448"/>
      <point x="295" y="378" type="curve"/>
      <point x="141" y="161" type="line" smooth="yes"/>
      <point x="120" y="133"/>
      <point x="97" y="98"/>
      <point x="97" y="71" type="curve"/>
      <point x="111" y="79" type="line"/>
      <point x="111" y="490" type="line" smooth="yes"/>
      <point x="111" y="504"/>
      <point x="105" y="512"/>
      <point x="93" y="512" type="curve"/>
      <point x="84" y="512"/>
      <point x="79" y="508"/>
      <point x="75" y="504" type="curve"/>
      <point x="79" y="488"/>
      <point x="81" y="457"/>
      <point x="81" y="417" type="curve"/>
      <point x="81" y="14" type="line" smooth="yes"/>
      <point x="81" y="0"/>
      <point x="87" y="-8"/>
    </contour>
    <contour>
      <point x="458" y="-8" type="curve"/>
      <point x="490" y="-8"/>
      <point x="505" y="13"/>
      <point x="505" y="29" type="curve"/>
      <point x="505" y="37"/>
      <point x="501" y="44"/>
      <point x="494" y="49" type="curve"/>
      <point x="490" y="37"/>
      <point x="482" y="20"/>
      <point x="461" y="20" type="curve"/>
      <point x="440" y="20"/>
      <point x="423" y="45"/>
      <point x="403" y="80" type="curve"/>
      <point x="268" y="317" type="line"/>
      <point x="249" y="291" type="line"/>
      <point x="383" y="53" type="line" smooth="yes"/>
      <point x="409" y="7"/>
      <point x="432" y="-8"/>
    </contour>
  </outline>
</glyph>
<glyph name="lambda" format="1">
  <advance width="507"/>
  <unicode hex="03BB"/>
  <outline>
    <contour>
      <point x="479" y="-12" type="curve"/>
      <point x="513" y="-12"/>
      <point x="527" y="8"/>
      <point x="527" y="23" type="curve"/>
      <point x="527" y="31"/>
      <point x="523" y="38"/>
      <point x="518" y="43" type="curve"/>
      <point x="513" y="31"/>
      <point x="501" y="16"/>
      <point x="483" y="16" type="curve"/>
      <point x="457" y="16"/>
      <point x="446" y="43"/>
      <point x="433" y="75" type="curve"/>
      <point x="216" y="626" type="line" smooth="yes"/>
      <point x="193" y="684"/>
      <point x="179" y="716"/>
      <point x="130" y="716" type="curve"/>
      <point x="100" y="716"/>
      <point x="74" y="700"/>
      <point x="74" y="679" type="curve"/>
      <point x="74" y="671"/>
      <point x="77" y="665"/>
      <point x="83" y="661" type="curve"/>
      <point x="91" y="677"/>
      <point x="109" y="688"/>
      <point x="128" y="688" type="curve"/>
      <point x="154" y="688"/>
      <point x="166" y="675"/>
      <point x="188" y="619" type="curve"/>
      <point x="407" y="60" type="line" smooth="yes"/>
      <point x="430" y="1"/>
      <point x="451" y="-12"/>
    </contour>
    <contour>
      <point x="59" y="-12" type="curve"/>
      <point x="66" y="-12"/>
      <point x="71" y="-11"/>
      <point x="73" y="-10" type="curve"/>
      <point x="71" y="-7"/>
      <point x="71" y="-1"/>
      <point x="71" y="1" type="curve"/>
      <point x="71" y="43"/>
      <point x="208" y="361"/>
      <point x="255" y="477" type="curve"/>
      <point x="235" y="506" type="line"/>
      <point x="175" y="360"/>
      <point x="40" y="39"/>
      <point x="40" y="7" type="curve"/>
      <point x="40" y="1"/>
      <point x="42" y="-12"/>
    </contour>
  </outline>
</glyph>
<glyph name="mu" format="1">
  <advance width="615"/>
  <unicode hex="03BC"/>
  <outline>
    <contour>
      <point x="160" y="-230" type="curve"/>
      <point x="173" y="-230"/>
      <point x="180" y="-219"/>
      <point x="180" y="-213" type="curve"/>
      <point x="175" y="-211"/>
      <point x="170" y="-207"/>
      <point x="166" y="-202" type="curve"/>
      <point x="135" y="-160"/>
      <point x="145" y="-23"/>
      <point x="145" y="154" type="curve"/>
      <point x="131" y="154" type="line"/>
      <point x="131" y="78"/>
      <point x="166" y="-12"/>
      <point x="281" y="-12" type="curve"/>
      <point x="365" y="-12"/>
      <point x="424" y="50"/>
      <point x="448" y="150" type="curve"/>
      <point x="439" y="150" type="line"/>
      <point x="439" y="60"/>
      <point x="459" y="-12"/>
      <point x="521" y="-12" type="curve"/>
      <point x="556" y="-12"/>
      <point x="590" y="23"/>
      <point x="590" y="68" type="curve"/>
      <point x="590" y="86"/>
      <point x="582" y="89"/>
      <point x="576" y="91" type="curve"/>
      <point x="571" y="56"/>
      <point x="554" y="16"/>
      <point x="521" y="16" type="curve"/>
      <point x="470" y="16"/>
      <point x="463" y="120"/>
      <point x="463" y="203" type="curve"/>
      <point x="466" y="474" type="line" smooth="yes"/>
      <point x="466" y="492"/>
      <point x="468" y="512"/>
      <point x="448" y="512" type="curve"/>
      <point x="439" y="512"/>
      <point x="432" y="507"/>
      <point x="430" y="504" type="curve"/>
      <point x="438" y="474"/>
      <point x="436" y="380"/>
      <point x="436" y="251" type="curve"/>
      <point x="436" y="126"/>
      <point x="377" y="16"/>
      <point x="281" y="16" type="curve"/>
      <point x="181" y="16"/>
      <point x="146" y="114"/>
      <point x="146" y="208" type="curve"/>
      <point x="146" y="262"/>
      <point x="146" y="392"/>
      <point x="146" y="482" type="curve"/>
      <point x="146" y="497"/>
      <point x="148" y="512"/>
      <point x="129" y="512" type="curve"/>
      <point x="119" y="512"/>
      <point x="114" y="508"/>
      <point x="110" y="504" type="curve"/>
      <point x="113" y="494"/>
      <point x="115" y="470"/>
      <point x="116" y="440" type="curve"/>
      <point x="116" y="251" type="line"/>
      <point x="116" y="-85"/>
      <point x="108" y="-230"/>
    </contour>
  </outline>
</glyph>
<glyph name="xi" format="1">
  <advance width="510"/>
  <unicode hex="03BE"/>
  <outline>
    <contour>
      <point x="387" y="-170" type="curve"/>
      <point x="411" y="-170"/>
      <point x="433" y="-140"/>
      <point x="433" y="-98" type="curve"/>
      <point x="433" y="-14"/>
      <point x="348" y="7"/>
      <point x="320" y="15" type="curve"/>
      <point x="276" y="27" type="line" smooth="yes"/>
      <point x="204" y="47"/>
      <point x="127" y="75"/>
      <point x="127" y="166" type="curve"/>
      <point x="127" y="261"/>
      <point x="210" y="334"/>
      <point x="313" y="366" type="curve"/>
      <point x="313" y="381" type="line"/>
      <point x="256" y="388"/>
      <point x="141" y="419"/>
      <point x="141" y="518" type="curve"/>
      <point x="141" y="633"/>
      <point x="297" y="699"/>
      <point x="388" y="699" type="curve"/>
      <point x="420" y="699"/>
      <point x="449" y="692"/>
      <point x="459" y="677" type="curve"/>
      <point x="466" y="685"/>
      <point x="469" y="692"/>
      <point x="469" y="699" type="curve"/>
      <point x="469" y="722"/>
      <point x="427" y="728"/>
      <point x="391" y="728" type="curve"/>
      <point x="277" y="728"/>
      <point x="224" y="668"/>
      <point x="123" y="668" type="curve"/>
      <point x="73" y="668"/>
      <point x="-3" y="683"/>
      <point x="-29" y="737" type="curve"/>
      <point x="-40" y="733"/>
      <point x="-43" y="726"/>
      <point x="-43" y="719" type="curve"/>
      <point x="-43" y="680"/>
      <point x="38" y="640"/>
      <point x="122" y="640" type="curve"/>
      <point x="149" y="640"/>
      <point x="177" y="644"/>
      <point x="216" y="663" type="curve"/>
      <point x="212" y="670" type="line"/>
      <point x="172" y="649"/>
      <point x="109" y="595"/>
      <point x="109" y="518" type="curve"/>
      <point x="109" y="413"/>
      <point x="215" y="370"/>
      <point x="276" y="360" type="curve"/>
      <point x="273" y="378" type="line"/>
      <point x="193" y="349"/>
      <point x="95" y="283"/>
      <point x="95" y="167" type="curve"/>
      <point x="95" y="47"/>
      <point x="199" y="20"/>
      <point x="264" y="2" type="curve"/>
      <point x="313" y="-12" type="line" smooth="yes"/>
      <point x="348" y="-22"/>
      <point x="401" y="-41"/>
      <point x="401" y="-98" type="curve"/>
      <point x="401" y="-136"/>
      <point x="377" y="-156"/>
      <point x="364" y="-161" type="curve"/>
      <point x="369" y="-166"/>
      <point x="378" y="-170"/>
    </contour>
    <contour>
      <point x="360" y="356" type="curve"/>
      <point x="397" y="356"/>
      <point x="422" y="367"/>
      <point x="422" y="386" type="curve"/>
      <point x="422" y="390"/>
      <point x="421" y="395"/>
      <point x="420" y="397" type="curve"/>
      <point x="414" y="398"/>
      <point x="407" y="398"/>
      <point x="403" y="398" type="curve"/>
      <point x="354" y="398"/>
      <point x="318" y="388"/>
      <point x="288" y="382" type="curve"/>
      <point x="288" y="360" type="line"/>
      <point x="312" y="358"/>
      <point x="344" y="356"/>
    </contour>
  </outline>
</glyph>
<glyph name="omicron" format="1">
  <advance width="534"/>
  <unicode hex="03BF"/>
  <outline>
    <contour>
      <point x="267" y="-12" type="curve"/>
      <point x="402" y="-12"/>
      <point x="481" y="85"/>
      <point x="481" y="250" type="curve"/>
      <point x="481" y="415"/>
      <point x="402" y="512"/>
      <point x="267" y="512" type="curve"/>
      <point x="132" y="512"/>
      <point x="53" y="415"/>
      <point x="53" y="250" type="curve"/>
      <point x="53" y="85"/>
      <point x="132" y="-12"/>
    </contour>
    <contour>
      <point x="267" y="16" type="curve"/>
      <point x="153" y="16"/>
      <point x="85" y="103"/>
      <point x="85" y="250" type="curve"/>
      <point x="85" y="397"/>
      <point x="153" y="484"/>
      <point x="267" y="484" type="curve"/>
      <point x="381" y="484"/>
      <point x="449" y="397"/>
      <point x="449" y="250" type="curve"/>
      <point x="449" y="103"/>
      <point x="381" y="16"/>
    </contour>
    <contour>
      <point x="268" y="500" type="move" name="top"/>
    </contour>
  </outline>
</glyph>
<glyph name="pi" format="1">
  <advance width="545"/>
  <unicode hex="03C0"/>
  <outline>
    <contour>
      <point x="20" y="436" type="curve"/>
      <point x="34" y="465"/>
      <point x="86" y="474"/>
      <point x="127" y="474" type="curve"/>
      <point x="225" y="474"/>
      <point x="417" y="474"/>
      <point x="549" y="474" type="curve"/>
      <point x="559" y="474"/>
      <point x="565" y="481"/>
      <point x="565" y="489" type="curve"/>
      <point x="565" y="496"/>
      <point x="562" y="503"/>
      <point x="556" y="511" type="curve"/>
      <point x="544" y="500"/>
      <point x="526" y="500"/>
      <point x="498" y="500" type="curve"/>
      <point x="124" y="500" type="line" smooth="yes"/>
      <point x="34" y="500"/>
      <point x="13" y="466"/>
      <point x="13" y="453" type="curve"/>
      <point x="13" y="446"/>
      <point x="15" y="441"/>
    </contour>
    <contour>
      <point x="149" y="-8" type="curve"/>
      <point x="159" y="-8"/>
      <point x="186" y="0"/>
      <point x="187" y="84" type="curve"/>
      <point x="190" y="486" type="line"/>
      <point x="162" y="487" type="line"/>
      <point x="159" y="104" type="line" smooth="yes"/>
      <point x="158" y="35"/>
      <point x="142" y="24"/>
      <point x="127" y="8" type="curve"/>
      <point x="130" y="-2"/>
      <point x="137" y="-8"/>
    </contour>
    <contour>
      <point x="464" y="-8" type="curve"/>
      <point x="508" y="-8"/>
      <point x="535" y="38"/>
      <point x="535" y="72" type="curve"/>
      <point x="535" y="82"/>
      <point x="533" y="91"/>
      <point x="521" y="95" type="curve"/>
      <point x="516" y="49"/>
      <point x="492" y="20"/>
      <point x="466" y="20" type="curve"/>
      <point x="439" y="20"/>
      <point x="421" y="43"/>
      <point x="421" y="157" type="curve"/>
      <point x="421" y="493" type="line"/>
      <point x="391" y="493" type="line"/>
      <point x="391" y="160" type="line" smooth="yes"/>
      <point x="391" y="31"/>
      <point x="412" y="-8"/>
    </contour>
  </outline>
</glyph>
<glyph name="rho" format="1">
  <advance width="507"/>
  <unicode hex="03C1"/>
  <outline>
    <contour>
      <point x="90" y="-230" type="curve"/>
      <point x="103" y="-230"/>
      <point x="111" y="-223"/>
      <point x="113" y="-210" type="curve"/>
      <point x="88" y="-201"/>
      <point x="91" y="-163"/>
      <point x="90" y="-83" type="curve"/>
      <point x="88" y="233" type="line" smooth="yes"/>
      <point x="89" y="396"/>
      <point x="167" y="484"/>
      <point x="271" y="484" type="curve"/>
      <point x="374" y="484"/>
      <point x="430" y="382"/>
      <point x="430" y="268" type="curve"/>
      <point x="430" y="125"/>
      <point x="371" y="16"/>
      <point x="248" y="16" type="curve"/>
      <point x="186" y="16"/>
      <point x="115" y="58"/>
      <point x="80" y="137" type="curve"/>
      <point x="61" y="115" type="line"/>
      <point x="96" y="35"/>
      <point x="168" y="-12"/>
      <point x="248" y="-12" type="curve"/>
      <point x="384" y="-12"/>
      <point x="462" y="103"/>
      <point x="462" y="265" type="curve"/>
      <point x="462" y="387"/>
      <point x="400" y="512"/>
      <point x="271" y="512" type="curve"/>
      <point x="160" y="512"/>
      <point x="57" y="429"/>
      <point x="58" y="232" type="curve"/>
      <point x="61" y="-174" type="line" smooth="yes"/>
      <point x="61" y="-202"/>
      <point x="68" y="-230"/>
    </contour>
  </outline>
</glyph>
<glyph name="sigmafinal" format="1">
  <advance width="423"/>
  <unicode hex="03C2"/>
  <outline>
    <contour>
      <point x="322" y="-187" type="curve"/>
      <point x="354" y="-187"/>
      <point x="386" y="-155"/>
      <point x="386" y="-105" type="curve"/>
      <point x="386" y="-51"/>
      <point x="344" y="-21"/>
      <point x="276" y="2" type="curve"/>
      <point x="240" y="14" type="line" smooth="yes"/>
      <point x="145" y="48"/>
      <point x="85" y="126"/>
      <point x="85" y="260" type="curve"/>
      <point x="85" y="389"/>
      <point x="151" y="484"/>
      <point x="266" y="484" type="curve"/>
      <point x="341" y="484"/>
      <point x="386" y="440"/>
      <point x="386" y="382" type="curve"/>
      <point x="386" y="343"/>
      <point x="368" y="326"/>
      <point x="353" y="315" type="curve"/>
      <point x="360" y="308"/>
      <point x="367" y="305"/>
      <point x="374" y="305" type="curve"/>
      <point x="394" y="305"/>
      <point x="418" y="331"/>
      <point x="418" y="379" type="curve"/>
      <point x="418" y="458"/>
      <point x="357" y="512"/>
      <point x="266" y="512" type="curve"/>
      <point x="134" y="512"/>
      <point x="53" y="407"/>
      <point x="53" y="260" type="curve"/>
      <point x="53" y="108"/>
      <point x="123" y="24"/>
      <point x="236" y="-16" type="curve"/>
      <point x="269" y="-27" type="line" smooth="yes"/>
      <point x="297" y="-36"/>
      <point x="354" y="-51"/>
      <point x="354" y="-105" type="curve"/>
      <point x="354" y="-153"/>
      <point x="321" y="-172"/>
      <point x="300" y="-174" type="curve"/>
      <point x="302" y="-183"/>
      <point x="311" y="-187"/>
    </contour>
    <contour>
      <point x="262" y="500" type="move" name="top"/>
    </contour>
  </outline>
</glyph>
<glyph name="sigma" format="1">
  <advance width="540"/>
  <unicode hex="03C3"/>
  <outline>
    <contour>
      <point x="265" y="-12" type="curve"/>
      <point x="404" y="-12"/>
      <point x="481" y="83"/>
      <point x="482" y="244" type="curve"/>
      <point x="483" y="344"/>
      <point x="438" y="465"/>
      <point x="343" y="481" type="curve"/>
      <point x="277" y="472" type="line"/>
      <point x="395" y="469"/>
      <point x="451" y="356"/>
      <point x="450" y="244" type="curve"/>
      <point x="449" y="101"/>
      <point x="383" y="16"/>
      <point x="264" y="16" type="curve"/>
      <point x="159" y="16"/>
      <point x="85" y="94"/>
      <point x="85" y="242" type="curve"/>
      <point x="85" y="389"/>
      <point x="168" y="472"/>
      <point x="288" y="472" type="curve"/>
      <point x="469" y="474" type="line" smooth="yes"/>
      <point x="503" y="474"/>
      <point x="523" y="473"/>
      <point x="523" y="492" type="curve"/>
      <point x="523" y="501"/>
      <point x="517" y="507"/>
      <point x="514" y="508" type="curve"/>
      <point x="501" y="501"/>
      <point x="476" y="500"/>
      <point x="448" y="500" type="curve"/>
      <point x="291" y="500" type="line" smooth="yes"/>
      <point x="141" y="500"/>
      <point x="53" y="405"/>
      <point x="53" y="241" type="curve"/>
      <point x="53" y="80"/>
      <point x="134" y="-12"/>
    </contour>
    <contour>
      <point x="267" y="500" type="move" name="top"/>
    </contour>
  </outline>
</glyph>
<glyph name="tau" format="1">
  <advance width="410"/>
  <unicode hex="03C4"/>
  <outline>
    <contour>
      <point x="261" y="-8" type="curve"/>
      <point x="302" y="-8"/>
      <point x="330" y="34"/>
      <point x="330" y="67" type="curve"/>
      <point x="330" y="78"/>
      <point x="328" y="87"/>
      <point x="316" y="91" type="curve"/>
      <point x="307" y="46"/>
      <point x="286" y="20"/>
      <point x="261" y="20" type="curve"/>
      <point x="229" y="20"/>
      <point x="201" y="52"/>
      <point x="203" y="171" type="curve"/>
      <point x="208" y="493" type="line"/>
      <point x="178" y="493" type="line"/>
      <point x="173" y="171" type="line" smooth="yes"/>
      <point x="171" y="40"/>
      <point x="204" y="-8"/>
    </contour>
    <contour>
      <point x="20" y="436" type="curve"/>
      <point x="31" y="465"/>
      <point x="53" y="474"/>
      <point x="87" y="474" type="curve"/>
      <point x="192" y="474"/>
      <point x="188" y="474"/>
      <point x="329" y="474" type="curve"/>
      <point x="363" y="474"/>
      <point x="383" y="473"/>
      <point x="383" y="492" type="curve"/>
      <point x="383" y="501"/>
      <point x="377" y="507"/>
      <point x="374" y="508" type="curve"/>
      <point x="361" y="501"/>
      <point x="336" y="500"/>
      <point x="308" y="500" type="curve"/>
      <point x="79" y="500" type="line" smooth="yes"/>
      <point x="27" y="500"/>
      <point x="13" y="468"/>
      <point x="13" y="456" type="curve"/>
      <point x="13" y="448"/>
      <point x="15" y="441"/>
    </contour>
  </outline>
</glyph>
<glyph name="upsilon" format="1">
  <advance width="577"/>
  <unicode hex="03C5"/>
  <outline>
    <contour>
      <point x="288" y="-12" type="curve"/>
      <point x="418" y="-12"/>
      <point x="497" y="90"/>
      <point x="497" y="256" type="curve"/>
      <point x="497" y="414"/>
      <point x="438" y="512"/>
      <point x="398" y="512" type="curve"/>
      <point x="389" y="512"/>
      <point x="383" y="508"/>
      <point x="382" y="501" type="curve"/>
      <point x="430" y="473"/>
      <point x="465" y="378"/>
      <point x="465" y="262" type="curve"/>
      <point x="465" y="103"/>
      <point x="402" y="16"/>
      <point x="288" y="16" type="curve"/>
      <point x="199" y="16"/>
      <point x="147" y="71"/>
      <point x="147" y="166" type="curve"/>
      <point x="147" y="256"/>
      <point x="163" y="332"/>
      <point x="163" y="408" type="curve"/>
      <point x="163" y="465"/>
      <point x="148" y="512"/>
      <point x="93" y="512" type="curve"/>
      <point x="72" y="512"/>
      <point x="46" y="501"/>
      <point x="46" y="478" type="curve"/>
      <point x="46" y="471"/>
      <point x="50" y="462"/>
      <point x="55" y="457" type="curve"/>
      <point x="60" y="470"/>
      <point x="71" y="484"/>
      <point x="91" y="484" type="curve"/>
      <point x="125" y="484"/>
      <point x="133" y="456"/>
      <point x="133" y="410" type="curve"/>
      <point x="133" y="327"/>
      <point x="117" y="248"/>
      <point x="117" y="166" type="curve"/>
      <point x="117" y="53"/>
      <point x="180" y="-12"/>
    </contour>
    <contour>
      <point x="274" y="500" type="move" name="top"/>
    </contour>
  </outline>
</glyph>
<glyph name="phi" format="1">
  <advance width="689"/>
  <unicode hex="03C6"/>
  <outline>
    <contour>
      <point x="338" y="-230" type="curve"/>
      <point x="347" y="-230"/>
      <point x="352" y="-226"/>
      <point x="356" y="-222" type="curve"/>
      <point x="352" y="-206"/>
      <point x="350" y="-175"/>
      <point x="350" y="-135" type="curve"/>
      <point x="350" y="300" type="line" smooth="yes"/>
      <point x="350" y="418"/>
      <point x="384" y="484"/>
      <point x="462" y="484" type="curve"/>
      <point x="538" y="484"/>
      <point x="602" y="408"/>
      <point x="602" y="277" type="curve"/>
      <point x="602" y="120"/>
      <point x="514" y="19"/>
      <point x="341" y="16" type="curve"/>
      <point x="341" y="-12" type="line"/>
      <point x="527" y="-12"/>
      <point x="634" y="101"/>
      <point x="634" y="281" type="curve"/>
      <point x="634" y="427"/>
      <point x="556" y="512"/>
      <point x="462" y="512" type="curve"/>
      <point x="367" y="512"/>
      <point x="320" y="436"/>
      <point x="320" y="315" type="curve"/>
      <point x="320" y="-208" type="line" smooth="yes"/>
      <point x="320" y="-222"/>
      <point x="326" y="-230"/>
    </contour>
    <contour>
      <point x="329" y="-12" type="curve"/>
      <point x="329" y="16" type="line"/>
      <point x="152" y="19"/>
      <point x="84" y="138"/>
      <point x="84" y="266" type="curve"/>
      <point x="84" y="388"/>
      <point x="149" y="473"/>
      <point x="212" y="491" type="curve"/>
      <point x="212" y="504"/>
      <point x="208" y="512"/>
      <point x="196" y="512" type="curve"/>
      <point x="159" y="512"/>
      <point x="52" y="435"/>
      <point x="52" y="266" type="curve"/>
      <point x="52" y="95"/>
      <point x="157" y="-9"/>
    </contour>
  </outline>
</glyph>
<glyph name="chi" format="1">
  <advance width="520"/>
  <unicode hex="03C7"/>
  <outline>
    <contour>
      <point x="478" y="-230" type="curve"/>
      <point x="511" y="-230"/>
      <point x="525" y="-206"/>
      <point x="525" y="-193" type="curve"/>
      <point x="525" y="-182"/>
      <point x="519" y="-175"/>
      <point x="514" y="-173" type="curve"/>
      <point x="510" y="-185"/>
      <point x="499" y="-202"/>
      <point x="481" y="-202" type="curve"/>
      <point x="459" y="-202"/>
      <point x="446" y="-177"/>
      <point x="426" y="-131" type="curve"/>
      <point x="288" y="183" type="line"/>
      <point x="286" y="181" type="line"/>
      <point x="144" y="462" type="line" smooth="yes"/>
      <point x="125" y="499"/>
      <point x="106" y="512"/>
      <point x="80" y="512" type="curve"/>
      <point x="40" y="512"/>
      <point x="29" y="487"/>
      <point x="29" y="476" type="curve"/>
      <point x="29" y="465"/>
      <point x="35" y="459"/>
      <point x="40" y="455" type="curve"/>
      <point x="45" y="468"/>
      <point x="56" y="483"/>
      <point x="76" y="483" type="curve"/>
      <point x="101" y="483"/>
      <point x="114" y="457"/>
      <point x="124" y="436" type="curve"/>
      <point x="262" y="161" type="line"/>
      <point x="267" y="157" type="line"/>
      <point x="400" y="-145" type="line" smooth="yes"/>
      <point x="424" y="-200"/>
      <point x="441" y="-230"/>
    </contour>
    <contour>
      <point x="51" y="-230" type="curve"/>
      <point x="73" y="-230"/>
      <point x="90" y="-200"/>
      <point x="158" y="-79" type="curve"/>
      <point x="283" y="157" type="line"/>
      <point x="266" y="187" type="line"/>
      <point x="134" y="-60" type="line" smooth="yes"/>
      <point x="61" y="-189"/>
      <point x="48" y="-206"/>
      <point x="33" y="-212" type="curve"/>
      <point x="33" y="-220"/>
      <point x="40" y="-230"/>
    </contour>
    <contour>
      <point x="264" y="177" type="line"/>
      <point x="281" y="147" type="line"/>
      <point x="389" y="342" type="line" smooth="yes"/>
      <point x="456" y="471"/>
      <point x="475" y="488"/>
      <point x="489" y="494" type="curve"/>
      <point x="489" y="504"/>
      <point x="483" y="512"/>
      <point x="472" y="512" type="curve"/>
      <point x="450" y="512"/>
      <point x="426" y="481"/>
      <point x="365" y="361" type="curve"/>
    </contour>
  </outline>
</glyph>
<glyph name="psi" format="1">
  <advance width="742"/>
  <unicode hex="03C8"/>
  <outline>
    <contour>
      <point x="372" y="-13" type="curve"/>
      <point x="372" y="15" type="line"/>
      <point x="237" y="17"/>
      <point x="147" y="72"/>
      <point x="147" y="191" type="curve"/>
      <point x="147" y="266"/>
      <point x="163" y="337"/>
      <point x="163" y="408" type="curve"/>
      <point x="163" y="465"/>
      <point x="148" y="512"/>
      <point x="93" y="512" type="curve"/>
      <point x="72" y="512"/>
      <point x="46" y="501"/>
      <point x="46" y="478" type="curve"/>
      <point x="46" y="471"/>
      <point x="50" y="462"/>
      <point x="55" y="457" type="curve"/>
      <point x="60" y="470"/>
      <point x="71" y="484"/>
      <point x="91" y="484" type="curve"/>
      <point x="125" y="484"/>
      <point x="133" y="456"/>
      <point x="133" y="410" type="curve"/>
      <point x="133" y="332"/>
      <point x="117" y="259"/>
      <point x="117" y="191" type="curve"/>
      <point x="117" y="74"/>
      <point x="195" y="-11"/>
    </contour>
    <contour>
      <point x="386" y="-230" type="curve"/>
      <point x="395" y="-230"/>
      <point x="400" y="-226"/>
      <point x="404" y="-222" type="curve"/>
      <point x="400" y="-206"/>
      <point x="398" y="-175"/>
      <point x="398" y="-135" type="curve"/>
      <point x="398" y="706" type="line"/>
      <point x="398" y="720"/>
      <point x="392" y="728"/>
      <point x="380" y="728" type="curve"/>
      <point x="371" y="728"/>
      <point x="366" y="724"/>
      <point x="362" y="720" type="curve"/>
      <point x="366" y="704"/>
      <point x="368" y="673"/>
      <point x="368" y="633" type="curve"/>
      <point x="368" y="-208" type="line" smooth="yes"/>
      <point x="368" y="-222"/>
      <point x="374" y="-230"/>
    </contour>
    <contour>
      <point x="379" y="16" type="curve"/>
      <point x="379" y="-12" type="line"/>
      <point x="585" y="-12"/>
      <point x="662" y="120"/>
      <point x="662" y="274" type="curve"/>
      <point x="662" y="421"/>
      <point x="603" y="512"/>
      <point x="563" y="512" type="curve"/>
      <point x="554" y="512"/>
      <point x="548" y="508"/>
      <point x="547" y="501" type="curve"/>
      <point x="598" y="474"/>
      <point x="630" y="378"/>
      <point x="630" y="280" type="curve"/>
      <point x="630" y="153"/>
      <point x="577" y="16"/>
    </contour>
  </outline>
</glyph>
<glyph name="omega" format="1">
  <advance width="829"/>
  <unicode hex="03C9"/>
  <outline>
    <contour>
      <point x="250" y="-12" type="curve"/>
      <point x="334" y="-12"/>
      <point x="398" y="47"/>
      <point x="425" y="157" type="curve"/>
      <point x="412" y="158" type="line"/>
      <point x="434" y="48"/>
      <point x="500" y="-12"/>
      <point x="575" y="-12" type="curve"/>
      <point x="682" y="-12"/>
      <point x="759" y="85"/>
      <point x="759" y="253" type="curve"/>
      <point x="759" y="415"/>
      <point x="676" y="512"/>
      <point x="618" y="512" type="curve"/>
      <point x="610" y="512"/>
      <point x="603" y="508"/>
      <point x="602" y="501" type="curve"/>
      <point x="678" y="471"/>
      <point x="727" y="367"/>
      <point x="727" y="246" type="curve"/>
      <point x="727" y="117"/>
      <point x="675" y="16"/>
      <point x="571" y="16" type="curve"/>
      <point x="504" y="16"/>
      <point x="447" y="85"/>
      <point x="428" y="200" type="curve"/>
      <point x="408" y="204" type="line"/>
      <point x="391" y="91"/>
      <point x="331" y="16"/>
      <point x="254" y="16" type="curve"/>
      <point x="154" y="16"/>
      <point x="102" y="117"/>
      <point x="102" y="246" type="curve"/>
      <point x="102" y="367"/>
      <point x="154" y="471"/>
      <point x="224" y="501" type="curve"/>
      <point x="223" y="508"/>
      <point x="216" y="512"/>
      <point x="208" y="512" type="curve"/>
      <point x="154" y="512"/>
      <point x="70" y="415"/>
      <point x="70" y="253" type="curve"/>
      <point x="70" y="85"/>
      <point x="147" y="-12"/>
    </contour>
    <contour>
      <point x="408" y="195" type="curve"/>
      <point x="429" y="194" type="line"/>
      <point x="432" y="257"/>
      <point x="435" y="313"/>
      <point x="440" y="367" type="curve"/>
      <point x="436" y="369"/>
      <point x="429" y="371"/>
      <point x="425" y="371" type="curve"/>
      <point x="408" y="371"/>
      <point x="394" y="354"/>
      <point x="394" y="306" type="curve"/>
      <point x="394" y="263"/>
      <point x="402" y="222"/>
    </contour>
    <contour>
      <point x="418" y="500" type="move" name="top"/>
    </contour>
  </outline>
</glyph>
<glyph name="KaiSymbol" format="1">
  <advance width="554"/>
  <unicode hex="03CF"/>
  <outline>
    <contour>
      <point x="536" y="23" type="curve"/>
      <point x="507" y="14" type="line"/>
      <point x="507" y="-107"/>
      <point x="392" y="-202"/>
      <point x="233" y="-202" type="curve"/>
      <point x="163" y="-202"/>
      <point x="88" y="-188"/>
      <point x="63" y="-113" type="curve"/>
      <point x="52" y="-117"/>
      <point x="49" y="-125"/>
      <point x="49" y="-131" type="curve"/>
      <point x="49" y="-184"/>
      <point x="113" y="-230"/>
      <point x="231" y="-230" type="curve"/>
      <point x="418" y="-230"/>
      <point x="536" y="-124"/>
    </contour>
    <component base="Kappa"/>
  </outline>
</glyph>
<glyph name="kaiSymbol" format="1">
  <advance width="520"/>
  <unicode hex="03D7"/>
  <outline>
    <contour>
      <point x="505" y="29" type="curve"/>
      <point x="476" y="17" type="line"/>
      <point x="476" y="-113"/>
      <point x="348" y="-202"/>
      <point x="223" y="-202" type="curve"/>
      <point x="163" y="-202"/>
      <point x="88" y="-188"/>
      <point x="63" y="-113" type="curve"/>
      <point x="52" y="-117"/>
      <point x="49" y="-125"/>
      <point x="49" y="-131" type="curve"/>
      <point x="49" y="-184"/>
      <point x="113" y="-230"/>
      <point x="221" y="-230" type="curve"/>
      <point x="374" y="-230"/>
      <point x="505" y="-130"/>
    </contour>
    <component base="kappa"/>
  </outline>
</glyph>
<glyph name="acircumflexgrave" format="1">
  <advance width="534"/>
  <unicode hex="1EA7"/>
  <outline>
    <contour>
      <point x="144" y="553" type="curve"/>
      <point x="246" y="642" type="line"/>
      <point x="347" y="553" type="line"/>
      <point x="353" y="553"/>
      <point x="366" y="557"/>
      <point x="369" y="563" type="curve"/>
      <point x="263" y="674" type="line"/>
      <point x="251" y="676"/>
      <point x="240" y="676"/>
      <point x="228" y="674" type="curve"/>
      <point x="122" y="563" type="line"/>
      <point x="125" y="557"/>
      <point x="136" y="553"/>
    </contour>
    <contour>
      <point x="276" y="752" type="curve"/>
      <point x="357" y="662" type="line"/>
      <point x="365" y="661"/>
      <point x="379" y="664"/>
      <point x="382" y="667" type="curve"/>
      <point x="318" y="762" type="line"/>
      <point x="307" y="765"/>
      <point x="285" y="758"/>
    </contour>
    <component base="a"/>
  </outline>
</glyph>
<glyph name="acircumflexhookabove" format="1">
  <advance width="534"/>
  <unicode hex="1EA9"/>
  <outline>
    <contour>
      <point x="144" y="553" type="curve"/>
      <point x="246" y="642" type="line"/>
      <point x="347" y="553" type="line"/>
      <point x="353" y="553"/>
      <point x="366" y="557"/>
      <point x="369" y="563" type="curve"/>
      <point x="263" y="674" type="line"/>
      <point x="251" y="676"/>
      <point x="240" y="676"/>
      <point x="228" y="674" type="curve"/>
      <point x="122" y="563" type="line"/>
      <point x="125" y="557"/>
      <point x="136" y="553"/>
    </contour>
    <component base="a"/>
    <component base="hookabovecomb" xOffset="151" yOffset="101"/>
  </outline>
</glyph>
<glyph name="ecircumflexgrave" format="1">
  <advance width="497"/>
  <unicode hex="1EC1"/>
  <outline>
    <contour>
      <point x="159" y="550" type="curve"/>
      <point x="261" y="639" type="line"/>
      <point x="362" y="550" type="line"/>
      <point x="368" y="550"/>
      <point x="381" y="554"/>
      <point x="384" y="560" type="curve"/>
      <point x="278" y="671" type="line"/>
      <point x="266" y="673"/>
      <point x="255" y="673"/>
      <point x="243" y="671" type="curve"/>
      <point x="137" y="560" type="line"/>
      <point x="140" y="554"/>
      <point x="151" y="550"/>
    </contour>
    <contour>
      <point x="288" y="740" type="curve"/>
      <point x="369" y="650" type="line"/>
      <point x="377" y="649"/>
      <point x="391" y="652"/>
      <point x="394" y="655" type="curve"/>
      <point x="330" y="750" type="line"/>
      <point x="319" y="753"/>
      <point x="297" y="746"/>
    </contour>
    <component base="e"/>
  </outline>
</glyph>
<glyph name="ecircumflexhookabove" format="1">
  <advance width="497"/>
  <unicode hex="1EC3"/>
  <outline>
    <contour>
      <point x="159" y="550" type="curve"/>
      <point x="261" y="639" type="line"/>
      <point x="362" y="550" type="line"/>
      <point x="368" y="550"/>
      <point x="381" y="554"/>
      <point x="384" y="560" type="curve"/>
      <point x="278" y="671" type="line"/>
      <point x="266" y="673"/>
      <point x="255" y="673"/>
      <point x="243" y="671" type="curve"/>
      <point x="137" y="560" type="line"/>
      <point x="140" y="554"/>
      <point x="151" y="550"/>
    </contour>
    <component base="e"/>
    <component base="hookabovecomb" xOffset="171" yOffset="85"/>
  </outline>
</glyph>
<glyph name="ocircumflexgrave" format="1">
  <advance width="534"/>
  <unicode hex="1ED3"/>
  <outline>
    <contour>
      <point x="161" y="543" type="curve"/>
      <point x="263" y="632" type="line"/>
      <point x="364" y="543" type="line"/>
      <point x="370" y="543"/>
      <point x="383" y="547"/>
      <point x="386" y="553" type="curve"/>
      <point x="280" y="664" type="line"/>
      <point x="268" y="666"/>
      <point x="257" y="666"/>
      <point x="245" y="664" type="curve"/>
      <point x="139" y="553" type="line"/>
      <point x="142" y="547"/>
      <point x="153" y="543"/>
    </contour>
    <contour>
      <point x="299" y="731" type="curve"/>
      <point x="380" y="641" type="line"/>
      <point x="388" y="640"/>
      <point x="402" y="643"/>
      <point x="405" y="646" type="curve"/>
      <point x="341" y="741" type="line"/>
      <point x="330" y="744"/>
      <point x="308" y="737"/>
    </contour>
    <component base="o"/>
  </outline>
</glyph>
<glyph name="ocircumflexhookabove" format="1">
  <advance width="534"/>
  <unicode hex="1ED5"/>
  <outline>
    <contour>
      <point x="163" y="543" type="curve"/>
      <point x="265" y="632" type="line"/>
      <point x="366" y="543" type="line"/>
      <point x="372" y="543"/>
      <point x="385" y="547"/>
      <point x="388" y="553" type="curve"/>
      <point x="282" y="664" type="line"/>
      <point x="270" y="666"/>
      <point x="259" y="666"/>
      <point x="247" y="664" type="curve"/>
      <point x="141" y="553" type="line"/>
      <point x="144" y="547"/>
      <point x="155" y="543"/>
    </contour>
    <component base="o"/>
    <component base="hookabovecomb" xOffset="169" yOffset="85"/>
  </outline>
</glyph>
<glyph name="prosgegrammeni" format="1">
  <advance width="271"/>
  <unicode hex="1FBE"/>
  <outline>
    <contour>
      <point x="163" y="-230" type="curve"/>
      <point x="181" y="-230"/>
      <point x="200" y="-220"/>
      <point x="200" y="-202" type="curve"/>
      <point x="200" y="-196"/>
      <point x="198" y="-189"/>
      <point x="191" y="-181" type="curve"/>
      <point x="186" y="-197"/>
      <point x="173" y="-201"/>
      <point x="164" y="-201" type="curve"/>
      <point x="143" y="-201"/>
      <point x="136" y="-185"/>
      <point x="137" y="-149" type="curve"/>
      <point x="137" y="-78" type="line" smooth="yes"/>
      <point x="137" y="-64"/>
      <point x="131" y="-56"/>
      <point x="121" y="-56" type="curve"/>
      <point x="111" y="-56"/>
      <point x="106" y="-60"/>
      <point x="102" y="-64" type="curve"/>
      <point x="106" y="-80"/>
      <point x="106" y="-113"/>
      <point x="106" y="-153" type="curve"/>
      <point x="106" y="-201"/>
      <point x="119" y="-230"/>
    </contour>
    <contour>
      <point x="118" y="0" type="move" name="_bottom"/>
    </contour>
  </outline>
</glyph>
<glyph name="psili" format="1">
  <advance width="156"/>
  <unicode hex="1FBF"/>
  <outline>
    <contour>
      <point x="60" y="557" type="curve"/>
      <point x="100" y="578"/>
      <point x="125" y="621"/>
      <point x="125" y="671" type="curve"/>
      <point x="125" y="702"/>
      <point x="111" y="732"/>
      <point x="82" y="732" type="curve"/>
      <point x="53" y="732"/>
      <point x="46" y="708"/>
      <point x="46" y="700" type="curve"/>
      <point x="64" y="690"/>
      <point x="91" y="679"/>
      <point x="91" y="645" type="curve"/>
      <point x="91" y="612"/>
      <point x="66" y="589"/>
      <point x="46" y="576" type="curve"/>
      <point x="47" y="570"/>
      <point x="53" y="560"/>
    </contour>
    <contour>
      <point x="60" y="500" type="move" name="_top"/>
    </contour>
    <contour>
      <point x="82" y="688" type="move" name="top"/>
    </contour>
  </outline>
</glyph>
<glyph name="perispomeni" format="1">
  <advance width="346"/>
  <unicode hex="1FC0"/>
  <outline>
    <contour>
      <point x="221" y="585" type="curve"/>
      <point x="251" y="585"/>
      <point x="276" y="609"/>
      <point x="286" y="640" type="curve"/>
      <point x="282" y="645"/>
      <point x="274" y="651"/>
      <point x="265" y="651" type="curve"/>
      <point x="256" y="631"/>
      <point x="246" y="616"/>
      <point x="221" y="616" type="curve"/>
      <point x="186" y="616"/>
      <point x="170" y="654"/>
      <point x="127" y="654" type="curve"/>
      <point x="99" y="654"/>
      <point x="71" y="635"/>
      <point x="60" y="599" type="curve"/>
      <point x="63" y="593"/>
      <point x="74" y="589"/>
      <point x="81" y="589" type="curve"/>
      <point x="88" y="611"/>
      <point x="109" y="623"/>
      <point x="127" y="623" type="curve"/>
      <point x="161" y="623"/>
      <point x="181" y="585"/>
    </contour>
    <contour>
      <point x="170" y="500" type="move" name="_top"/>
    </contour>
  </outline>
</glyph>
<glyph name="dialytikaperispomeni" format="1">
  <advance width="346"/>
  <unicode hex="1FC1"/>
  <outline>
    <contour>
      <point x="110" y="587" type="curve"/>
      <point x="130" y="587"/>
      <point x="140" y="604"/>
      <point x="140" y="623" type="curve"/>
      <point x="140" y="642"/>
      <point x="130" y="659"/>
      <point x="110" y="659" type="curve"/>
      <point x="90" y="659"/>
      <point x="79" y="642"/>
      <point x="79" y="623" type="curve"/>
      <point x="79" y="604"/>
      <point x="90" y="587"/>
    </contour>
    <contour>
      <point x="250" y="587" type="curve"/>
      <point x="270" y="587"/>
      <point x="280" y="604"/>
      <point x="280" y="623" type="curve"/>
      <point x="280" y="642"/>
      <point x="270" y="659"/>
      <point x="250" y="659" type="curve"/>
      <point x="230" y="659"/>
      <point x="219" y="642"/>
      <point x="219" y="623" type="curve"/>
      <point x="219" y="604"/>
      <point x="230" y="587"/>
    </contour>
    <component base="perispomeni" xOffset="2" yOffset="111"/>
    <contour>
      <point x="184" y="500" type="move" name="_top"/>
    </contour>
  </outline>
</glyph>
<glyph name="psilioxia" format="1">
  <advance width="256"/>
  <unicode hex="1FCE"/>
  <outline>
    <component base="psili" xOffset="-18"/>
    <component base="oxia" xOffset="52"/>
    <contour>
      <point x="97" y="500" type="move" name="_top"/>
    </contour>
  </outline>
</glyph>
<glyph name="psiliperispomeni" format="1">
  <advance width="346"/>
  <unicode hex="1FCF"/>
  <outline>
    <component base="psili" xOffset="91"/>
    <component base="perispomeni" xOffset="3" yOffset="188"/>
    <contour>
      <point x="173" y="500" type="move" name="_top"/>
    </contour>
  </outline>
</glyph>
<glyph name="dasiaoxia" format="1">
  <advance width="285"/>
  <unicode hex="1FDE"/>
  <outline>
    <component base="dasia" xOffset="19"/>
    <component base="oxia" xOffset="80"/>
    <contour>
      <point x="143" y="500" type="move" name="_top"/>
    </contour>
  </outline>
</glyph>
<glyph name="dasiaperispomeni" format="1">
  <advance width="346"/>
  <unicode hex="1FDF"/>
  <outline>
    <component base="dasia" xOffset="93"/>
    <component base="perispomeni" xOffset="4" yOffset="188"/>
    <contour>
      <point x="173" y="500" type="move" name="_top"/>
    </contour>
  </outline>
</glyph>
<glyph name="dialytikavaria" format="1">
  <advance width="321"/>
  <unicode hex="1FED"/>
  <outline>
    <contour>
      <point x="118" y="743" type="curve"/>
      <point x="155" y="589" type="line"/>
      <point x="161" y="588"/>
      <point x="176" y="589"/>
      <point x="178" y="594" type="curve"/>
      <point x="158" y="752" type="line"/>
      <point x="141" y="752"/>
      <point x="130" y="750"/>
    </contour>
    <contour>
      <point x="81" y="587" type="curve"/>
      <point x="101" y="587"/>
      <point x="111" y="604"/>
      <point x="111" y="623" type="curve"/>
      <point x="111" y="642"/>
      <point x="101" y="659"/>
      <point x="81" y="659" type="curve"/>
      <point x="61" y="659"/>
      <point x="50" y="642"/>
      <point x="50" y="623" type="curve"/>
      <point x="50" y="604"/>
      <point x="61" y="587"/>
    </contour>
    <contour>
      <point x="241" y="587" type="curve"/>
      <point x="261" y="587"/>
      <point x="271" y="604"/>
      <point x="271" y="623" type="curve"/>
      <point x="271" y="642"/>
      <point x="261" y="659"/>
      <point x="241" y="659" type="curve"/>
      <point x="221" y="659"/>
      <point x="210" y="642"/>
      <point x="210" y="623" type="curve"/>
      <point x="210" y="604"/>
      <point x="221" y="587"/>
    </contour>
    <contour>
      <point x="163" y="500" type="move" name="_top"/>
    </contour>
  </outline>
</glyph>
<glyph name="dialytikaoxia" format="1">
  <advance width="321"/>
  <unicode hex="1FEE"/>
  <outline>
    <contour>
      <point x="165" y="589" type="curve"/>
      <point x="202" y="743" type="line"/>
      <point x="190" y="750"/>
      <point x="179" y="752"/>
      <point x="162" y="752" type="curve"/>
      <point x="142" y="594" type="line"/>
      <point x="144" y="589"/>
      <point x="159" y="588"/>
    </contour>
    <contour>
      <point x="87" y="587" type="curve"/>
      <point x="107" y="587"/>
      <point x="117" y="604"/>
      <point x="117" y="623" type="curve"/>
      <point x="117" y="642"/>
      <point x="107" y="659"/>
      <point x="87" y="659" type="curve"/>
      <point x="67" y="659"/>
      <point x="56" y="642"/>
      <point x="56" y="623" type="curve"/>
      <point x="56" y="604"/>
      <point x="67" y="587"/>
    </contour>
    <contour>
      <point x="235" y="587" type="curve"/>
      <point x="255" y="587"/>
      <point x="265" y="604"/>
      <point x="265" y="623" type="curve"/>
      <point x="265" y="642"/>
      <point x="255" y="659"/>
      <point x="235" y="659" type="curve"/>
      <point x="215" y="659"/>
      <point x="204" y="642"/>
      <point x="204" y="623" type="curve"/>
      <point x="204" y="604"/>
      <point x="215" y="587"/>
    </contour>
    <contour>
      <point x="158" y="500" type="move" name="_top"/>
    </contour>
  </outline>
</glyph>
<glyph name="varia" format="1">
  <advance width="236"/>
  <unicode hex="1FEF"/>
  <outline>
    <component base="oxia" xScale="-1" xOffset="223"/>
    <contour>
      <point x="136" y="500" type="move" name="_top"/>
    </contour>
  </outline>
</glyph>
<glyph name="oxia" format="1">
  <advance width="236"/>
  <unicode hex="1FFD"/>
  <outline>
    <contour>
      <point x="102" y="557" type="curve"/>
      <point x="166" y="719" type="line"/>
      <point x="155" y="728"/>
      <point x="145" y="731"/>
      <point x="130" y="732" type="curve"/>
      <point x="79" y="562" type="line"/>
      <point x="81" y="557"/>
      <point x="96" y="556"/>
    </contour>
    <contour>
      <point x="88" y="500" type="move" name="_top"/>
    </contour>
  </outline>
</glyph>
<glyph name="dasia" format="1">
  <advance width="156"/>
  <unicode hex="1FFE"/>
  <outline>
    <component base="psili" xScale="-1" xOffset="156"/>
    <contour>
      <point x="82" y="500" type="move" name="_top"/>
    </contour>
    <contour>
      <point x="81" y="688" type="move" name="top"/>
    </contour>
  </outline>
</glyph>
<glyph name="endash" format="1">
  <advance width="466"/>
  <unicode hex="2013"/>
  <outline>
    <contour>
      <point x="50" y="270" type="line"/>
      <point x="50" y="242" type="line"/>
      <point x="416" y="242" type="line"/>
      <point x="416" y="270" type="line"/>
    </contour>
  </outline>
</glyph>
<glyph name="bullet" format="1">
  <advance width="298"/>
  <unicode hex="2022"/>
  <outline>
    <contour>
      <point x="149" y="198" type="curve"/>
      <point x="187" y="198"/>
      <point x="218" y="229"/>
      <point x="218" y="267" type="curve"/>
      <point x="218" y="304"/>
      <point x="187" y="335"/>
      <point x="149" y="335" type="curve"/>
      <point x="111" y="335"/>
      <point x="80" y="304"/>
      <point x="80" y="267" type="curve"/>
      <point x="80" y="229"/>
      <point x="111" y="198"/>
    </contour>
  </outline>
</glyph>
<glyph name="guilsinglleft" format="1">
  <advance width="411"/>
  <unicode hex="2039"/>
  <outline>
    <contour>
      <point x="37" y="226" type="curve"/>
      <point x="333" y="21" type="line"/>
      <point x="351" y="42" type="line"/>
      <point x="67" y="238" type="line"/>
      <point x="67" y="243" type="line"/>
      <point x="349" y="438" type="line"/>
      <point x="333" y="460" type="line"/>
      <point x="37" y="256" type="line"/>
      <point x="35" y="247"/>
      <point x="35" y="236"/>
    </contour>
  </outline>
</glyph>
<glyph name="fraction" format="1">
  <advance width="214"/>
  <unicode hex="2044"/>
  <outline>
    <contour>
      <point x="-110" y="-12" type="curve"/>
      <point x="344" y="686" type="line"/>
      <point x="344" y="697"/>
      <point x="334" y="702"/>
      <point x="324" y="700" type="curve"/>
      <point x="-130" y="2" type="line"/>
      <point x="-127" y="-8"/>
      <point x="-121" y="-12"/>
    </contour>
  </outline>
</glyph>
<glyph name="zerosuperior" format="1">
  <advance width="427"/>
  <unicode hex="2070"/>
  <outline>
    <contour>
      <point x="227" y="235" type="curve"/>
      <point x="324" y="235"/>
      <point x="378" y="309"/>
      <point x="378" y="468" type="curve"/>
      <point x="378" y="626"/>
      <point x="324" y="700"/>
      <point x="227" y="700" type="curve"/>
      <point x="130" y="700"/>
      <point x="75" y="626"/>
      <point x="75" y="468" type="curve"/>
      <point x="75" y="309"/>
      <point x="130" y="235"/>
    </contour>
    <contour>
      <point x="227" y="256" type="curve"/>
      <point x="148" y="256"/>
      <point x="102" y="322"/>
      <point x="102" y="468" type="curve"/>
      <point x="102" y="613"/>
      <point x="148" y="679"/>
      <point x="227" y="679" type="curve"/>
      <point x="305" y="679"/>
      <point x="352" y="613"/>
      <point x="352" y="468" type="curve"/>
      <point x="352" y="322"/>
      <point x="305" y="256"/>
    </contour>
  </outline>
</glyph>
<glyph name="fivesuperior" format="1">
  <advance width="390"/>
  <unicode hex="2075"/>
  <outline>
    <contour>
      <point x="197" y="227" type="curve"/>
      <point x="278" y="227"/>
      <point x="348" y="266"/>
      <point x="348" y="380" type="curve"/>
      <point x="348" y="463"/>
      <point x="294" y="515"/>
      <point x="211" y="515" type="curve"/>
      <point x="169" y="515"/>
      <point x="142" y="506"/>
      <point x="114" y="494" type="curve"/>
      <point x="121" y="670" type="line"/>
      <point x="186" y="669"/>
      <point x="251" y="669"/>
      <point x="314" y="669" type="curve"/>
      <point x="318" y="676"/>
      <point x="321" y="685"/>
      <point x="318" y="693" type="curve"/>
      <point x="253" y="690"/>
      <point x="185" y="691"/>
      <point x="114" y="691" type="curve"/>
      <point x="106" y="691"/>
      <point x="100" y="686"/>
      <point x="99" y="678" type="curve"/>
      <point x="91" y="481" type="line"/>
      <point x="92" y="475"/>
      <point x="93" y="468"/>
      <point x="104" y="468" type="curve"/>
      <point x="113" y="473"/>
      <point x="159" y="495"/>
      <point x="206" y="495" type="curve"/>
      <point x="272" y="495"/>
      <point x="320" y="455"/>
      <point x="320" y="377" type="curve"/>
      <point x="320" y="296"/>
      <point x="283" y="247"/>
      <point x="197" y="247" type="curve"/>
      <point x="121" y="247"/>
      <point x="96" y="304"/>
      <point x="94" y="331" type="curve"/>
      <point x="82" y="331"/>
      <point x="74" y="324"/>
      <point x="74" y="314" type="curve"/>
      <point x="74" y="275"/>
      <point x="120" y="227"/>
    </contour>
  </outline>
</glyph>
<glyph name="sixsuperior" format="1">
  <advance width="401"/>
  <unicode hex="2076"/>
  <outline>
    <contour>
      <point x="224" y="231" type="curve"/>
      <point x="308" y="231"/>
      <point x="361" y="291"/>
      <point x="361" y="383" type="curve"/>
      <point x="361" y="473"/>
      <point x="307" y="517"/>
      <point x="232" y="517" type="curve"/>
      <point x="155" y="517"/>
      <point x="102" y="460"/>
      <point x="88" y="417" type="curve"/>
      <point x="96" y="399" type="line"/>
      <point x="116" y="449"/>
      <point x="166" y="496"/>
      <point x="231" y="496" type="curve"/>
      <point x="295" y="496"/>
      <point x="334" y="452"/>
      <point x="334" y="383" type="curve"/>
      <point x="334" y="318"/>
      <point x="302" y="251"/>
      <point x="225" y="251" type="curve"/>
      <point x="137" y="251"/>
      <point x="100" y="329"/>
      <point x="100" y="433" type="curve"/>
      <point x="100" y="533"/>
      <point x="113" y="680"/>
      <point x="241" y="680" type="curve"/>
      <point x="265" y="680"/>
      <point x="291" y="673"/>
      <point x="318" y="646" type="curve"/>
      <point x="323" y="647"/>
      <point x="330" y="652"/>
      <point x="330" y="660" type="curve"/>
      <point x="330" y="679"/>
      <point x="281" y="700"/>
      <point x="240" y="700" type="curve"/>
      <point x="132" y="700"/>
      <point x="75" y="625"/>
      <point x="75" y="435" type="curve"/>
      <point x="75" y="274"/>
      <point x="151" y="231"/>
    </contour>
  </outline>
</glyph>
<glyph name="ninesuperior" format="1">
  <advance width="401"/>
  <unicode hex="2079"/>
  <outline>
    <contour>
      <point x="192" y="231" type="curve"/>
      <point x="297" y="231"/>
      <point x="352" y="300"/>
      <point x="352" y="497" type="curve"/>
      <point x="352" y="657"/>
      <point x="284" y="700"/>
      <point x="207" y="700" type="curve"/>
      <point x="125" y="700"/>
      <point x="73" y="643"/>
      <point x="73" y="554" type="curve"/>
      <point x="73" y="461"/>
      <point x="126" y="415"/>
      <point x="200" y="415" type="curve"/>
      <point x="275" y="415"/>
      <point x="326" y="471"/>
      <point x="339" y="513" type="curve"/>
      <point x="332" y="533" type="line"/>
      <point x="312" y="481"/>
      <point x="263" y="434"/>
      <point x="201" y="434" type="curve"/>
      <point x="139" y="434"/>
      <point x="100" y="480"/>
      <point x="100" y="555" type="curve"/>
      <point x="100" y="616"/>
      <point x="132" y="680"/>
      <point x="207" y="680" type="curve"/>
      <point x="297" y="680"/>
      <point x="327" y="602"/>
      <point x="327" y="498" type="curve"/>
      <point x="327" y="391"/>
      <point x="315" y="253"/>
      <point x="192" y="253" type="curve"/>
      <point x="163" y="253"/>
      <point x="133" y="259"/>
      <point x="100" y="295" type="curve"/>
      <point x="90" y="296"/>
      <point x="81" y="284"/>
      <point x="89" y="272" type="curve"/>
      <point x="102" y="253"/>
      <point x="137" y="231"/>
    </contour>
  </outline>
</glyph>
<glyph name="nmod" format="1">
  <advance width="384"/>
  <unicode hex="207F"/>
  <outline>
    <contour>
      <point x="84" y="360" type="curve"/>
      <point x="91" y="360"/>
      <point x="95" y="362"/>
      <point x="98" y="365" type="curve"/>
      <point x="92" y="381"/>
      <point x="92" y="405"/>
      <point x="94" y="531" type="curve"/>
      <point x="94" y="654"/>
      <point x="164" y="687"/>
      <point x="208" y="687" type="curve"/>
      <point x="271" y="687"/>
      <point x="296" y="647"/>
      <point x="296" y="565" type="curve"/>
      <point x="296" y="375" type="line" smooth="yes"/>
      <point x="296" y="365"/>
      <point x="302" y="360"/>
      <point x="311" y="360" type="curve"/>
      <point x="317" y="360"/>
      <point x="320" y="362"/>
      <point x="323" y="365" type="curve"/>
      <point x="320" y="376"/>
      <point x="318" y="397"/>
      <point x="318" y="423" type="curve"/>
      <point x="318" y="564" type="line" smooth="yes"/>
      <point x="318" y="658"/>
      <point x="284" y="708"/>
      <point x="210" y="708" type="curve"/>
      <point x="147" y="708"/>
      <point x="88" y="659"/>
      <point x="83" y="579" type="curve"/>
      <point x="92" y="584" type="line"/>
      <point x="92" y="654" type="line" smooth="yes"/>
      <point x="92" y="689"/>
      <point x="81" y="707"/>
      <point x="54" y="707" type="curve"/>
      <point x="38" y="707"/>
      <point x="27" y="701"/>
      <point x="27" y="691" type="curve"/>
      <point x="27" y="686"/>
      <point x="29" y="681"/>
      <point x="34" y="676" type="curve"/>
      <point x="38" y="687"/>
      <point x="46" y="688"/>
      <point x="52" y="688" type="curve"/>
      <point x="66" y="688"/>
      <point x="72" y="679"/>
      <point x="72" y="655" type="curve"/>
      <point x="72" y="375" type="line" smooth="yes"/>
      <point x="72" y="365"/>
      <point x="76" y="360"/>
    </contour>
  </outline>
</glyph>
<glyph name="oneinferior" format="1">
  <advance width="314"/>
  <unicode hex="2081"/>
  <outline>
    <contour>
      <point x="162" y="-5" type="curve"/>
      <point x="169" y="-5"/>
      <point x="173" y="-2"/>
      <point x="176" y="1" type="curve"/>
      <point x="173" y="13"/>
      <point x="171" y="35"/>
      <point x="172" y="61" type="curve"/>
      <point x="171" y="440" type="line"/>
      <point x="171" y="451"/>
      <point x="165" y="457"/>
      <point x="156" y="457" type="curve"/>
      <point x="151" y="457"/>
      <point x="149" y="456"/>
      <point x="145" y="454" type="curve"/>
      <point x="107" y="429"/>
      <point x="35" y="376"/>
      <point x="27" y="371" type="curve"/>
      <point x="27" y="366"/>
      <point x="28" y="356"/>
      <point x="37" y="356" type="curve"/>
      <point x="46" y="356"/>
      <point x="109" y="405"/>
      <point x="145" y="429" type="curve"/>
      <point x="146" y="418"/>
      <point x="146" y="406"/>
      <point x="146" y="392" type="curve"/>
      <point x="148" y="11" type="line" smooth="yes"/>
      <point x="148" y="1"/>
      <point x="153" y="-5"/>
    </contour>
  </outline>
</glyph>
<glyph name="fourinferior" format="1">
  <advance width="395"/>
  <unicode hex="2084"/>
  <outline>
    <contour>
      <point x="293" y="-5" type="curve"/>
      <point x="300" y="-5"/>
      <point x="305" y="-2"/>
      <point x="307" y="1" type="curve"/>
      <point x="305" y="13"/>
      <point x="303" y="35"/>
      <point x="303" y="61" type="curve"/>
      <point x="302" y="440" type="line"/>
      <point x="302" y="451"/>
      <point x="296" y="457"/>
      <point x="288" y="457" type="curve"/>
      <point x="280" y="457"/>
      <point x="275" y="453"/>
      <point x="273" y="450" type="curve"/>
      <point x="45" y="150" type="line"/>
      <point x="41" y="144"/>
      <point x="36" y="136"/>
      <point x="47" y="127" type="curve"/>
      <point x="367" y="127" type="line"/>
      <point x="374" y="131"/>
      <point x="374" y="146"/>
      <point x="368" y="154" type="curve"/>
      <point x="343" y="150"/>
      <point x="315" y="149"/>
      <point x="288" y="149" type="curve"/>
      <point x="72" y="149" type="line"/>
      <point x="277" y="420" type="line"/>
      <point x="279" y="11" type="line" smooth="yes"/>
      <point x="279" y="1"/>
      <point x="284" y="-5"/>
    </contour>
  </outline>
</glyph>
